%TF.GenerationSoftware,KiCad,Pcbnew,9.0.0*%
%TF.CreationDate,2025-05-23T12:22:20-04:00*%
%TF.ProjectId,lmc_media_blitz,6c6d635f-6d65-4646-9961-5f626c69747a,rev?*%
%TF.SameCoordinates,Original*%
%TF.FileFunction,Legend,Top*%
%TF.FilePolarity,Positive*%
%FSLAX46Y46*%
G04 Gerber Fmt 4.6, Leading zero omitted, Abs format (unit mm)*
G04 Created by KiCad (PCBNEW 9.0.0) date 2025-05-23 12:22:20*
%MOMM*%
%LPD*%
G01*
G04 APERTURE LIST*
%ADD10C,0.100000*%
%ADD11C,0.300000*%
%ADD12C,0.550000*%
%ADD13C,0.150000*%
%ADD14C,0.120000*%
G04 APERTURE END LIST*
D10*
X132500000Y-90600000D02*
X133000000Y-90600000D01*
X132500000Y-86100000D02*
X133000000Y-86100000D01*
X132500000Y-89100000D02*
X132500000Y-90600000D01*
X132000000Y-89100000D02*
X132500000Y-89100000D01*
X132000000Y-87600000D02*
X132000000Y-89100000D01*
X132500000Y-87600000D02*
X132000000Y-87600000D01*
X132500000Y-86100000D02*
X132500000Y-87600000D01*
D11*
G36*
X122973481Y-61497217D02*
G01*
X122988374Y-61512110D01*
X123018796Y-61572953D01*
X123018796Y-61673561D01*
X122988375Y-61734403D01*
X122965656Y-61757121D01*
X122904815Y-61787542D01*
X122633082Y-61787542D01*
X122633082Y-61458971D01*
X122858742Y-61458971D01*
X122973481Y-61497217D01*
G37*
G36*
X122908513Y-60917962D02*
G01*
X122931231Y-60940681D01*
X122961653Y-61001524D01*
X122961653Y-61044988D01*
X122931230Y-61105832D01*
X122908513Y-61128550D01*
X122847672Y-61158971D01*
X122633082Y-61158971D01*
X122633082Y-60887542D01*
X122847672Y-60887542D01*
X122908513Y-60917962D01*
G37*
G36*
X123989253Y-61444685D02*
G01*
X123834052Y-61444685D01*
X123911652Y-61211882D01*
X123989253Y-61444685D01*
G37*
G36*
X126837343Y-62237542D02*
G01*
X122183082Y-62237542D01*
X122183082Y-60737542D01*
X122333082Y-60737542D01*
X122333082Y-61937542D01*
X122335964Y-61966806D01*
X122358362Y-62020878D01*
X122399746Y-62062262D01*
X122453818Y-62084660D01*
X122483082Y-62087542D01*
X122940225Y-62087542D01*
X122969489Y-62084660D01*
X122974467Y-62082597D01*
X122979843Y-62082216D01*
X123007307Y-62071706D01*
X123121591Y-62014564D01*
X123134184Y-62006637D01*
X123137845Y-62005121D01*
X123141963Y-62001740D01*
X123146477Y-61998900D01*
X123149074Y-61995905D01*
X123160576Y-61986466D01*
X123217719Y-61929323D01*
X123226370Y-61918781D01*
X123362831Y-61918781D01*
X123366980Y-61977162D01*
X123393154Y-62029509D01*
X123437368Y-62067856D01*
X123492892Y-62086364D01*
X123551273Y-62082215D01*
X123603620Y-62056041D01*
X123641967Y-62011827D01*
X123653955Y-61984976D01*
X123734052Y-61744685D01*
X124089253Y-61744685D01*
X124169350Y-61984976D01*
X124181339Y-62011827D01*
X124219686Y-62056041D01*
X124272033Y-62082215D01*
X124330414Y-62086364D01*
X124385938Y-62067856D01*
X124430152Y-62029509D01*
X124456326Y-61977161D01*
X124460475Y-61918781D01*
X124453955Y-61890108D01*
X124060012Y-60708278D01*
X124393106Y-60708278D01*
X124393106Y-60766806D01*
X124415504Y-60820878D01*
X124456888Y-60862262D01*
X124510960Y-60884660D01*
X124540224Y-60887542D01*
X124733081Y-60887542D01*
X124733081Y-61937542D01*
X124735963Y-61966806D01*
X124758361Y-62020878D01*
X124799745Y-62062262D01*
X124853817Y-62084660D01*
X124912345Y-62084660D01*
X124966417Y-62062262D01*
X125007801Y-62020878D01*
X125030199Y-61966806D01*
X125033081Y-61937542D01*
X125033081Y-61451136D01*
X125478821Y-61451136D01*
X125478821Y-61509664D01*
X125501219Y-61563736D01*
X125542603Y-61605120D01*
X125596675Y-61627518D01*
X125625939Y-61630400D01*
X125933082Y-61630400D01*
X125933082Y-61937542D01*
X125935964Y-61966806D01*
X125958362Y-62020878D01*
X125999746Y-62062262D01*
X126053818Y-62084660D01*
X126112346Y-62084660D01*
X126166418Y-62062262D01*
X126207802Y-62020878D01*
X126230200Y-61966806D01*
X126233082Y-61937542D01*
X126233082Y-61630400D01*
X126540225Y-61630400D01*
X126569489Y-61627518D01*
X126623561Y-61605120D01*
X126664945Y-61563736D01*
X126687343Y-61509664D01*
X126687343Y-61451136D01*
X126664945Y-61397064D01*
X126623561Y-61355680D01*
X126569489Y-61333282D01*
X126540225Y-61330400D01*
X126233082Y-61330400D01*
X126233082Y-61023257D01*
X126230200Y-60993993D01*
X126207802Y-60939921D01*
X126166418Y-60898537D01*
X126112346Y-60876139D01*
X126053818Y-60876139D01*
X125999746Y-60898537D01*
X125958362Y-60939921D01*
X125935964Y-60993993D01*
X125933082Y-61023257D01*
X125933082Y-61330400D01*
X125625939Y-61330400D01*
X125596675Y-61333282D01*
X125542603Y-61355680D01*
X125501219Y-61397064D01*
X125478821Y-61451136D01*
X125033081Y-61451136D01*
X125033081Y-60887542D01*
X125225939Y-60887542D01*
X125255203Y-60884660D01*
X125309275Y-60862262D01*
X125350659Y-60820878D01*
X125373057Y-60766806D01*
X125373057Y-60708278D01*
X125350659Y-60654206D01*
X125309275Y-60612822D01*
X125255203Y-60590424D01*
X125225939Y-60587542D01*
X124540224Y-60587542D01*
X124510960Y-60590424D01*
X124456888Y-60612822D01*
X124415504Y-60654206D01*
X124393106Y-60708278D01*
X124060012Y-60708278D01*
X124053955Y-60690108D01*
X124041967Y-60663257D01*
X124034944Y-60655160D01*
X124030152Y-60645575D01*
X124015943Y-60633251D01*
X124003620Y-60619043D01*
X123994034Y-60614250D01*
X123985938Y-60607228D01*
X123968096Y-60601280D01*
X123951273Y-60592869D01*
X123940581Y-60592109D01*
X123930414Y-60588720D01*
X123911653Y-60590053D01*
X123892892Y-60588720D01*
X123882724Y-60592109D01*
X123872033Y-60592869D01*
X123855209Y-60601280D01*
X123837368Y-60607228D01*
X123829271Y-60614250D01*
X123819686Y-60619043D01*
X123807362Y-60633251D01*
X123793154Y-60645575D01*
X123788361Y-60655160D01*
X123781339Y-60663257D01*
X123769350Y-60690108D01*
X123369351Y-61890108D01*
X123362831Y-61918781D01*
X123226370Y-61918781D01*
X123227159Y-61917820D01*
X123230152Y-61915225D01*
X123232990Y-61910715D01*
X123236374Y-61906593D01*
X123237890Y-61902930D01*
X123245817Y-61890339D01*
X123302960Y-61776053D01*
X123313470Y-61748589D01*
X123313851Y-61743213D01*
X123315914Y-61738235D01*
X123318796Y-61708971D01*
X123318796Y-61537542D01*
X123315914Y-61508278D01*
X123313852Y-61503300D01*
X123313470Y-61497923D01*
X123302960Y-61470460D01*
X123245817Y-61356174D01*
X123237890Y-61343581D01*
X123236374Y-61339921D01*
X123232991Y-61335799D01*
X123230152Y-61331289D01*
X123227159Y-61328693D01*
X123217719Y-61317191D01*
X123178923Y-61278395D01*
X123179232Y-61278019D01*
X123180747Y-61274359D01*
X123188674Y-61261768D01*
X123245817Y-61147482D01*
X123256327Y-61120019D01*
X123256709Y-61114641D01*
X123258771Y-61109664D01*
X123261653Y-61080400D01*
X123261653Y-60966114D01*
X123258771Y-60936850D01*
X123256708Y-60931871D01*
X123256327Y-60926496D01*
X123245817Y-60899032D01*
X123188674Y-60784746D01*
X123180748Y-60772154D01*
X123179232Y-60768494D01*
X123175849Y-60764372D01*
X123173009Y-60759860D01*
X123170015Y-60757264D01*
X123160577Y-60745763D01*
X123103435Y-60688620D01*
X123091933Y-60679180D01*
X123089336Y-60676186D01*
X123084821Y-60673344D01*
X123080704Y-60669965D01*
X123077045Y-60668449D01*
X123064450Y-60660521D01*
X122950164Y-60603378D01*
X122922701Y-60592868D01*
X122917323Y-60592485D01*
X122912346Y-60590424D01*
X122883082Y-60587542D01*
X122483082Y-60587542D01*
X122453818Y-60590424D01*
X122399746Y-60612822D01*
X122358362Y-60654206D01*
X122335964Y-60708278D01*
X122333082Y-60737542D01*
X122183082Y-60737542D01*
X122183082Y-60437542D01*
X126837343Y-60437542D01*
X126837343Y-62237542D01*
G37*
D12*
X133275000Y-84100000D02*
G75*
G02*
X132725000Y-84100000I-275000J0D01*
G01*
X132725000Y-84100000D02*
G75*
G02*
X133275000Y-84100000I275000J0D01*
G01*
D11*
G36*
X136316339Y-79425788D02*
G01*
X136388374Y-79497824D01*
X136427269Y-79575613D01*
X136475939Y-79770293D01*
X136475939Y-79904792D01*
X136427269Y-80099472D01*
X136388374Y-80177260D01*
X136316340Y-80249294D01*
X136201597Y-80287542D01*
X136090225Y-80287542D01*
X136090225Y-79387542D01*
X136201599Y-79387542D01*
X136316339Y-79425788D01*
G37*
G36*
X136925939Y-80737542D02*
G01*
X133125939Y-80737542D01*
X133125939Y-79751828D01*
X133275939Y-79751828D01*
X133275939Y-79923257D01*
X133276441Y-79928360D01*
X133276116Y-79930548D01*
X133277735Y-79941498D01*
X133278821Y-79952521D01*
X133279668Y-79954565D01*
X133280418Y-79959637D01*
X133337561Y-80188209D01*
X133338331Y-80190364D01*
X133338408Y-80191447D01*
X133343070Y-80203629D01*
X133347454Y-80215900D01*
X133348099Y-80216771D01*
X133348918Y-80218910D01*
X133406061Y-80333196D01*
X133413988Y-80345789D01*
X133415504Y-80349449D01*
X133418885Y-80353568D01*
X133421726Y-80358082D01*
X133424720Y-80360678D01*
X133434159Y-80372180D01*
X133548443Y-80486465D01*
X133571174Y-80505120D01*
X133576152Y-80507182D01*
X133580226Y-80510715D01*
X133607077Y-80522703D01*
X133778506Y-80579845D01*
X133793015Y-80583144D01*
X133796675Y-80584660D01*
X133801978Y-80585182D01*
X133807180Y-80586365D01*
X133811133Y-80586083D01*
X133825939Y-80587542D01*
X133940225Y-80587542D01*
X133955030Y-80586083D01*
X133958985Y-80586365D01*
X133964186Y-80585182D01*
X133969489Y-80584660D01*
X133973146Y-80583144D01*
X133987659Y-80579845D01*
X134159087Y-80522703D01*
X134185938Y-80510714D01*
X134190008Y-80507183D01*
X134194988Y-80505121D01*
X134217719Y-80486466D01*
X134274862Y-80429323D01*
X134293517Y-80406593D01*
X134315914Y-80352520D01*
X134318796Y-80323257D01*
X134318796Y-79923257D01*
X134315914Y-79893993D01*
X134293516Y-79839921D01*
X134252132Y-79798537D01*
X134198060Y-79776139D01*
X134168796Y-79773257D01*
X133940225Y-79773257D01*
X133910961Y-79776139D01*
X133856889Y-79798537D01*
X133815505Y-79839921D01*
X133793107Y-79893993D01*
X133793107Y-79952521D01*
X133815505Y-80006593D01*
X133856889Y-80047977D01*
X133910961Y-80070375D01*
X133940225Y-80073257D01*
X134018796Y-80073257D01*
X134018796Y-80253238D01*
X133915882Y-80287542D01*
X133850281Y-80287542D01*
X133735536Y-80249294D01*
X133663503Y-80177260D01*
X133624608Y-80099471D01*
X133575939Y-79904792D01*
X133575939Y-79770292D01*
X133624608Y-79575613D01*
X133663503Y-79497824D01*
X133735538Y-79425789D01*
X133850282Y-79387542D01*
X133961957Y-79387542D01*
X134044571Y-79428849D01*
X134072034Y-79439359D01*
X134130414Y-79443507D01*
X134185937Y-79425000D01*
X134230152Y-79386653D01*
X134256327Y-79334304D01*
X134260475Y-79275924D01*
X134247681Y-79237542D01*
X134533082Y-79237542D01*
X134533082Y-80437542D01*
X134535964Y-80466806D01*
X134558362Y-80520878D01*
X134599746Y-80562262D01*
X134653818Y-80584660D01*
X134712346Y-80584660D01*
X134766418Y-80562262D01*
X134807802Y-80520878D01*
X134830200Y-80466806D01*
X134833082Y-80437542D01*
X134833082Y-79802376D01*
X135238559Y-80511963D01*
X135242938Y-80518132D01*
X135244076Y-80520878D01*
X135246874Y-80523676D01*
X135255581Y-80535941D01*
X135271352Y-80548154D01*
X135285460Y-80562262D01*
X135294295Y-80565921D01*
X135301855Y-80571776D01*
X135321097Y-80577023D01*
X135339532Y-80584660D01*
X135349096Y-80584660D01*
X135358318Y-80587175D01*
X135378104Y-80584660D01*
X135398060Y-80584660D01*
X135406894Y-80581000D01*
X135416379Y-80579795D01*
X135433701Y-80569896D01*
X135452132Y-80562262D01*
X135458892Y-80555501D01*
X135467195Y-80550757D01*
X135479408Y-80534985D01*
X135493516Y-80520878D01*
X135497175Y-80512042D01*
X135503030Y-80504483D01*
X135508277Y-80485241D01*
X135515914Y-80466806D01*
X135517388Y-80451834D01*
X135518429Y-80448019D01*
X135518054Y-80445072D01*
X135518796Y-80437542D01*
X135518796Y-79237542D01*
X135790225Y-79237542D01*
X135790225Y-80437542D01*
X135793107Y-80466806D01*
X135815505Y-80520878D01*
X135856889Y-80562262D01*
X135910961Y-80584660D01*
X135940225Y-80587542D01*
X136225939Y-80587542D01*
X136240744Y-80586083D01*
X136244699Y-80586365D01*
X136249900Y-80585182D01*
X136255203Y-80584660D01*
X136258861Y-80583144D01*
X136273372Y-80579845D01*
X136444802Y-80522703D01*
X136471653Y-80510715D01*
X136475724Y-80507183D01*
X136480704Y-80505121D01*
X136503434Y-80486466D01*
X136617719Y-80372180D01*
X136627158Y-80360678D01*
X136630152Y-80358082D01*
X136632992Y-80353568D01*
X136636374Y-80349449D01*
X136637889Y-80345789D01*
X136645817Y-80333196D01*
X136702960Y-80218910D01*
X136703778Y-80216771D01*
X136704424Y-80215900D01*
X136708808Y-80203626D01*
X136713470Y-80191446D01*
X136713546Y-80190363D01*
X136714317Y-80188208D01*
X136771460Y-79959637D01*
X136772209Y-79954565D01*
X136773057Y-79952521D01*
X136774142Y-79941498D01*
X136775762Y-79930548D01*
X136775436Y-79928360D01*
X136775939Y-79923257D01*
X136775939Y-79751828D01*
X136775436Y-79746724D01*
X136775762Y-79744537D01*
X136774142Y-79733586D01*
X136773057Y-79722564D01*
X136772209Y-79720519D01*
X136771460Y-79715448D01*
X136714317Y-79486877D01*
X136713546Y-79484721D01*
X136713470Y-79483639D01*
X136708808Y-79471458D01*
X136704424Y-79459185D01*
X136703778Y-79458313D01*
X136702960Y-79456175D01*
X136645817Y-79341889D01*
X136637889Y-79329295D01*
X136636374Y-79325636D01*
X136632992Y-79321516D01*
X136630152Y-79317003D01*
X136627158Y-79314406D01*
X136617719Y-79302905D01*
X136503434Y-79188619D01*
X136480704Y-79169964D01*
X136475722Y-79167900D01*
X136471653Y-79164371D01*
X136444802Y-79152382D01*
X136273373Y-79095240D01*
X136258865Y-79091941D01*
X136255203Y-79090424D01*
X136249894Y-79089901D01*
X136244700Y-79088720D01*
X136240750Y-79089000D01*
X136225939Y-79087542D01*
X135940225Y-79087542D01*
X135910961Y-79090424D01*
X135856889Y-79112822D01*
X135815505Y-79154206D01*
X135793107Y-79208278D01*
X135790225Y-79237542D01*
X135518796Y-79237542D01*
X135515914Y-79208278D01*
X135493516Y-79154206D01*
X135452132Y-79112822D01*
X135398060Y-79090424D01*
X135339532Y-79090424D01*
X135285460Y-79112822D01*
X135244076Y-79154206D01*
X135221678Y-79208278D01*
X135218796Y-79237542D01*
X135218796Y-79872707D01*
X134813318Y-79163121D01*
X134808940Y-79156953D01*
X134807802Y-79154206D01*
X134805002Y-79151406D01*
X134796297Y-79139143D01*
X134780525Y-79126929D01*
X134766418Y-79112822D01*
X134757582Y-79109162D01*
X134750023Y-79103308D01*
X134730778Y-79098059D01*
X134712346Y-79090424D01*
X134702784Y-79090424D01*
X134693559Y-79087908D01*
X134673768Y-79090424D01*
X134653818Y-79090424D01*
X134644984Y-79094083D01*
X134635499Y-79095289D01*
X134618176Y-79105187D01*
X134599746Y-79112822D01*
X134592985Y-79119582D01*
X134584683Y-79124327D01*
X134572469Y-79140098D01*
X134558362Y-79154206D01*
X134554702Y-79163041D01*
X134548848Y-79170601D01*
X134543599Y-79189845D01*
X134535964Y-79208278D01*
X134534490Y-79223244D01*
X134533448Y-79227065D01*
X134533823Y-79230016D01*
X134533082Y-79237542D01*
X134247681Y-79237542D01*
X134241968Y-79220402D01*
X134203621Y-79176186D01*
X134178736Y-79160521D01*
X134064451Y-79103378D01*
X134036987Y-79092869D01*
X134031612Y-79092487D01*
X134026632Y-79090424D01*
X133997368Y-79087542D01*
X133825939Y-79087542D01*
X133811127Y-79089000D01*
X133807178Y-79088720D01*
X133801983Y-79089901D01*
X133796675Y-79090424D01*
X133793012Y-79091941D01*
X133778505Y-79095240D01*
X133607076Y-79152383D01*
X133580225Y-79164371D01*
X133576153Y-79167902D01*
X133571174Y-79169965D01*
X133548443Y-79188620D01*
X133434159Y-79302905D01*
X133424720Y-79314406D01*
X133421726Y-79317003D01*
X133418885Y-79321516D01*
X133415504Y-79325636D01*
X133413988Y-79329295D01*
X133406061Y-79341889D01*
X133348918Y-79456175D01*
X133348099Y-79458313D01*
X133347454Y-79459185D01*
X133343070Y-79471455D01*
X133338408Y-79483638D01*
X133338331Y-79484720D01*
X133337561Y-79486876D01*
X133280418Y-79715448D01*
X133279668Y-79720519D01*
X133278821Y-79722564D01*
X133277735Y-79733586D01*
X133276116Y-79744537D01*
X133276441Y-79746724D01*
X133275939Y-79751828D01*
X133125939Y-79751828D01*
X133125939Y-78937542D01*
X136925939Y-78937542D01*
X136925939Y-80737542D01*
G37*
G36*
X133553332Y-72237542D02*
G01*
X131126639Y-72237542D01*
X131126639Y-71323451D01*
X131276639Y-71323451D01*
X131278821Y-71330682D01*
X131278821Y-71338234D01*
X131287212Y-71358493D01*
X131293546Y-71379483D01*
X131298327Y-71385326D01*
X131301218Y-71392306D01*
X131316721Y-71407809D01*
X131330606Y-71424780D01*
X131337263Y-71428351D01*
X131342604Y-71433692D01*
X131362858Y-71442081D01*
X131382181Y-71452447D01*
X131389698Y-71453198D01*
X131396676Y-71456089D01*
X131418600Y-71456089D01*
X131440419Y-71458271D01*
X131447650Y-71456089D01*
X131455202Y-71456089D01*
X131475461Y-71447697D01*
X131496451Y-71441364D01*
X131502294Y-71436582D01*
X131509274Y-71433692D01*
X131532005Y-71415037D01*
X131571936Y-71375106D01*
X131632778Y-71344685D01*
X131847672Y-71344685D01*
X131908513Y-71375105D01*
X131931231Y-71397824D01*
X131961653Y-71458667D01*
X131961653Y-71673561D01*
X131931231Y-71734403D01*
X131908513Y-71757122D01*
X131847672Y-71787542D01*
X131632778Y-71787542D01*
X131571934Y-71757120D01*
X131532005Y-71717191D01*
X131509274Y-71698536D01*
X131455202Y-71676139D01*
X131396676Y-71676139D01*
X131342604Y-71698536D01*
X131301218Y-71739922D01*
X131278821Y-71793994D01*
X131278821Y-71852520D01*
X131301218Y-71906592D01*
X131319873Y-71929323D01*
X131377016Y-71986466D01*
X131388519Y-71995906D01*
X131391115Y-71998900D01*
X131395625Y-72001739D01*
X131399746Y-72005121D01*
X131403406Y-72006637D01*
X131416001Y-72014565D01*
X131530287Y-72071706D01*
X131557750Y-72082216D01*
X131563125Y-72082597D01*
X131568104Y-72084660D01*
X131597368Y-72087542D01*
X131883082Y-72087542D01*
X131912346Y-72084660D01*
X131917324Y-72082597D01*
X131922700Y-72082216D01*
X131950163Y-72071707D01*
X132064449Y-72014565D01*
X132077047Y-72006634D01*
X132080704Y-72005120D01*
X132084820Y-72001742D01*
X132089335Y-71998900D01*
X132091932Y-71995904D01*
X132103435Y-71986465D01*
X132160577Y-71929322D01*
X132170015Y-71917820D01*
X132173009Y-71915225D01*
X132175849Y-71910712D01*
X132179232Y-71906591D01*
X132180748Y-71902930D01*
X132188674Y-71890339D01*
X132245817Y-71776053D01*
X132256327Y-71748589D01*
X132256708Y-71743213D01*
X132258771Y-71738235D01*
X132261653Y-71708971D01*
X132261653Y-71423257D01*
X132258771Y-71393993D01*
X132256708Y-71389014D01*
X132256327Y-71383639D01*
X132245817Y-71356175D01*
X132188674Y-71241889D01*
X132180748Y-71229297D01*
X132179232Y-71225637D01*
X132175849Y-71221515D01*
X132173009Y-71217003D01*
X132170015Y-71214407D01*
X132160577Y-71202906D01*
X132103435Y-71145763D01*
X132091933Y-71136323D01*
X132089336Y-71133329D01*
X132084821Y-71130487D01*
X132080704Y-71127108D01*
X132077045Y-71125592D01*
X132064450Y-71117664D01*
X131950164Y-71060521D01*
X131922701Y-71050011D01*
X131917323Y-71049628D01*
X131912346Y-71047567D01*
X131883082Y-71044685D01*
X131603116Y-71044685D01*
X131618831Y-70887542D01*
X132054510Y-70887542D01*
X132083774Y-70884660D01*
X132137846Y-70862262D01*
X132179230Y-70820878D01*
X132201628Y-70766806D01*
X132201628Y-70756303D01*
X132305688Y-70756303D01*
X132312208Y-70784976D01*
X132712207Y-71984976D01*
X132724196Y-72011827D01*
X132731218Y-72019923D01*
X132736011Y-72029509D01*
X132750219Y-72041832D01*
X132762543Y-72056041D01*
X132772128Y-72060833D01*
X132780225Y-72067856D01*
X132798066Y-72073803D01*
X132814890Y-72082215D01*
X132825581Y-72082974D01*
X132835749Y-72086364D01*
X132854510Y-72085030D01*
X132873271Y-72086364D01*
X132883438Y-72082974D01*
X132894130Y-72082215D01*
X132910953Y-72073803D01*
X132928795Y-72067856D01*
X132936891Y-72060833D01*
X132946477Y-72056041D01*
X132958800Y-72041832D01*
X132973009Y-72029509D01*
X132977801Y-72019923D01*
X132984824Y-72011827D01*
X132996812Y-71984976D01*
X133396812Y-70784976D01*
X133403332Y-70756303D01*
X133399183Y-70697923D01*
X133373009Y-70645575D01*
X133328795Y-70607228D01*
X133273271Y-70588720D01*
X133214890Y-70592869D01*
X133162543Y-70619043D01*
X133124196Y-70663257D01*
X133112207Y-70690108D01*
X132854509Y-71463201D01*
X132596812Y-70690108D01*
X132584824Y-70663257D01*
X132546477Y-70619043D01*
X132494130Y-70592869D01*
X132435749Y-70588720D01*
X132380225Y-70607228D01*
X132336011Y-70645575D01*
X132309837Y-70697922D01*
X132305688Y-70756303D01*
X132201628Y-70756303D01*
X132201628Y-70708278D01*
X132179230Y-70654206D01*
X132137846Y-70612822D01*
X132083774Y-70590424D01*
X132054510Y-70587542D01*
X131483082Y-70587542D01*
X131472259Y-70588607D01*
X131468602Y-70588242D01*
X131465029Y-70589319D01*
X131453818Y-70590424D01*
X131433558Y-70598815D01*
X131412570Y-70605149D01*
X131406725Y-70609930D01*
X131399746Y-70612822D01*
X131384240Y-70628327D01*
X131367273Y-70642210D01*
X131363702Y-70648865D01*
X131358362Y-70654206D01*
X131349971Y-70674461D01*
X131339606Y-70693784D01*
X131337390Y-70704833D01*
X131335964Y-70708278D01*
X131335964Y-70711951D01*
X131333826Y-70722616D01*
X131276683Y-71294045D01*
X131276639Y-71323451D01*
X131126639Y-71323451D01*
X131126639Y-70437542D01*
X133553332Y-70437542D01*
X133553332Y-72237542D01*
G37*
G36*
X148583081Y-72237542D02*
G01*
X145071678Y-72237542D01*
X145071678Y-70708278D01*
X145221678Y-70708278D01*
X145221678Y-70766806D01*
X145244076Y-70820878D01*
X145285460Y-70862262D01*
X145339532Y-70884660D01*
X145368796Y-70887542D01*
X145781087Y-70887542D01*
X145598766Y-71095909D01*
X145589722Y-71108559D01*
X145586933Y-71111349D01*
X145585836Y-71113994D01*
X145581665Y-71119831D01*
X145573858Y-71142912D01*
X145564535Y-71165421D01*
X145564535Y-71170480D01*
X145562914Y-71175273D01*
X145564535Y-71199582D01*
X145564535Y-71223949D01*
X145566471Y-71228624D01*
X145566808Y-71233669D01*
X145577606Y-71255504D01*
X145586933Y-71278021D01*
X145590509Y-71281597D01*
X145592752Y-71286132D01*
X145611087Y-71302175D01*
X145628317Y-71319405D01*
X145632991Y-71321341D01*
X145636799Y-71324673D01*
X145659880Y-71332479D01*
X145682389Y-71341803D01*
X145689526Y-71342505D01*
X145692241Y-71343424D01*
X145696180Y-71343161D01*
X145711653Y-71344685D01*
X145847672Y-71344685D01*
X145908513Y-71375105D01*
X145931231Y-71397824D01*
X145961653Y-71458667D01*
X145961653Y-71673561D01*
X145931231Y-71734403D01*
X145908513Y-71757122D01*
X145847672Y-71787542D01*
X145575635Y-71787542D01*
X145514791Y-71757120D01*
X145474862Y-71717191D01*
X145452131Y-71698536D01*
X145398059Y-71676139D01*
X145339533Y-71676139D01*
X145285461Y-71698536D01*
X145244075Y-71739922D01*
X145221678Y-71793994D01*
X145221678Y-71852520D01*
X145244075Y-71906592D01*
X145262730Y-71929323D01*
X145319873Y-71986466D01*
X145331376Y-71995906D01*
X145333972Y-71998900D01*
X145338482Y-72001739D01*
X145342603Y-72005121D01*
X145346263Y-72006637D01*
X145358858Y-72014565D01*
X145473144Y-72071706D01*
X145500607Y-72082216D01*
X145505982Y-72082597D01*
X145510961Y-72084660D01*
X145540225Y-72087542D01*
X145883082Y-72087542D01*
X145912346Y-72084660D01*
X145917324Y-72082597D01*
X145922700Y-72082216D01*
X145950163Y-72071707D01*
X146064449Y-72014565D01*
X146077047Y-72006634D01*
X146080704Y-72005120D01*
X146084820Y-72001742D01*
X146089335Y-71998900D01*
X146091932Y-71995904D01*
X146103435Y-71986465D01*
X146160577Y-71929322D01*
X146170015Y-71917820D01*
X146173009Y-71915225D01*
X146175849Y-71910712D01*
X146179232Y-71906591D01*
X146180748Y-71902930D01*
X146188674Y-71890339D01*
X146245817Y-71776053D01*
X146256327Y-71748589D01*
X146256708Y-71743213D01*
X146258771Y-71738235D01*
X146261653Y-71708971D01*
X146261653Y-71423257D01*
X146258771Y-71393993D01*
X146256708Y-71389014D01*
X146256327Y-71383639D01*
X146245817Y-71356175D01*
X146188674Y-71241889D01*
X146180748Y-71229297D01*
X146179232Y-71225637D01*
X146175849Y-71221515D01*
X146173009Y-71217003D01*
X146170015Y-71214407D01*
X146160577Y-71202906D01*
X146103435Y-71145763D01*
X146091933Y-71136323D01*
X146089336Y-71133329D01*
X146084821Y-71130487D01*
X146080704Y-71127108D01*
X146077045Y-71125592D01*
X146064450Y-71117664D01*
X146004562Y-71087720D01*
X146224540Y-70836318D01*
X146233583Y-70823667D01*
X146236373Y-70820878D01*
X146237469Y-70818232D01*
X146241641Y-70812396D01*
X146249447Y-70789314D01*
X146258771Y-70766806D01*
X146258771Y-70761746D01*
X146260392Y-70756954D01*
X146260349Y-70756303D01*
X146305688Y-70756303D01*
X146312208Y-70784976D01*
X146712207Y-71984976D01*
X146724196Y-72011827D01*
X146731218Y-72019923D01*
X146736011Y-72029509D01*
X146750219Y-72041832D01*
X146762543Y-72056041D01*
X146772128Y-72060833D01*
X146780225Y-72067856D01*
X146798066Y-72073803D01*
X146814890Y-72082215D01*
X146825581Y-72082974D01*
X146835749Y-72086364D01*
X146854510Y-72085030D01*
X146873271Y-72086364D01*
X146883438Y-72082974D01*
X146894130Y-72082215D01*
X146910953Y-72073803D01*
X146928795Y-72067856D01*
X146936891Y-72060833D01*
X146946477Y-72056041D01*
X146958800Y-72041832D01*
X146973009Y-72029509D01*
X146977801Y-72019923D01*
X146984824Y-72011827D01*
X146996812Y-71984976D01*
X147396812Y-70784976D01*
X147398165Y-70779021D01*
X147415504Y-70820878D01*
X147456888Y-70862262D01*
X147510960Y-70884660D01*
X147540224Y-70887542D01*
X147952515Y-70887542D01*
X147770194Y-71095909D01*
X147761150Y-71108559D01*
X147758361Y-71111349D01*
X147757264Y-71113994D01*
X147753093Y-71119831D01*
X147745286Y-71142912D01*
X147735963Y-71165421D01*
X147735963Y-71170480D01*
X147734342Y-71175273D01*
X147735963Y-71199582D01*
X147735963Y-71223949D01*
X147737899Y-71228624D01*
X147738236Y-71233669D01*
X147749034Y-71255504D01*
X147758361Y-71278021D01*
X147761937Y-71281597D01*
X147764180Y-71286132D01*
X147782515Y-71302175D01*
X147799745Y-71319405D01*
X147804419Y-71321341D01*
X147808227Y-71324673D01*
X147831308Y-71332479D01*
X147853817Y-71341803D01*
X147860954Y-71342505D01*
X147863669Y-71343424D01*
X147867608Y-71343161D01*
X147883081Y-71344685D01*
X148019100Y-71344685D01*
X148079941Y-71375105D01*
X148102659Y-71397824D01*
X148133081Y-71458667D01*
X148133081Y-71673561D01*
X148102659Y-71734403D01*
X148079941Y-71757122D01*
X148019100Y-71787542D01*
X147747063Y-71787542D01*
X147686219Y-71757120D01*
X147646290Y-71717191D01*
X147623559Y-71698536D01*
X147569487Y-71676139D01*
X147510961Y-71676139D01*
X147456889Y-71698536D01*
X147415503Y-71739922D01*
X147393106Y-71793994D01*
X147393106Y-71852520D01*
X147415503Y-71906592D01*
X147434158Y-71929323D01*
X147491301Y-71986466D01*
X147502804Y-71995906D01*
X147505400Y-71998900D01*
X147509910Y-72001739D01*
X147514031Y-72005121D01*
X147517691Y-72006637D01*
X147530286Y-72014565D01*
X147644572Y-72071706D01*
X147672035Y-72082216D01*
X147677410Y-72082597D01*
X147682389Y-72084660D01*
X147711653Y-72087542D01*
X148054510Y-72087542D01*
X148083774Y-72084660D01*
X148088752Y-72082597D01*
X148094128Y-72082216D01*
X148121591Y-72071707D01*
X148235877Y-72014565D01*
X148248475Y-72006634D01*
X148252132Y-72005120D01*
X148256248Y-72001742D01*
X148260763Y-71998900D01*
X148263360Y-71995904D01*
X148274863Y-71986465D01*
X148332005Y-71929322D01*
X148341443Y-71917820D01*
X148344437Y-71915225D01*
X148347277Y-71910712D01*
X148350660Y-71906591D01*
X148352176Y-71902930D01*
X148360102Y-71890339D01*
X148417245Y-71776053D01*
X148427755Y-71748589D01*
X148428136Y-71743213D01*
X148430199Y-71738235D01*
X148433081Y-71708971D01*
X148433081Y-71423257D01*
X148430199Y-71393993D01*
X148428136Y-71389014D01*
X148427755Y-71383639D01*
X148417245Y-71356175D01*
X148360102Y-71241889D01*
X148352176Y-71229297D01*
X148350660Y-71225637D01*
X148347277Y-71221515D01*
X148344437Y-71217003D01*
X148341443Y-71214407D01*
X148332005Y-71202906D01*
X148274863Y-71145763D01*
X148263361Y-71136323D01*
X148260764Y-71133329D01*
X148256249Y-71130487D01*
X148252132Y-71127108D01*
X148248473Y-71125592D01*
X148235878Y-71117664D01*
X148175990Y-71087720D01*
X148395968Y-70836318D01*
X148405011Y-70823667D01*
X148407801Y-70820878D01*
X148408897Y-70818232D01*
X148413069Y-70812396D01*
X148420875Y-70789314D01*
X148430199Y-70766806D01*
X148430199Y-70761746D01*
X148431820Y-70756954D01*
X148430199Y-70732644D01*
X148430199Y-70708278D01*
X148428262Y-70703602D01*
X148427926Y-70698558D01*
X148417127Y-70676722D01*
X148407801Y-70654206D01*
X148404224Y-70650629D01*
X148401982Y-70646095D01*
X148383646Y-70630051D01*
X148366417Y-70612822D01*
X148361742Y-70610885D01*
X148357935Y-70607554D01*
X148334853Y-70599747D01*
X148312345Y-70590424D01*
X148305207Y-70589721D01*
X148302493Y-70588803D01*
X148298553Y-70589065D01*
X148283081Y-70587542D01*
X147540224Y-70587542D01*
X147510960Y-70590424D01*
X147456888Y-70612822D01*
X147415504Y-70654206D01*
X147398205Y-70695967D01*
X147373009Y-70645575D01*
X147328795Y-70607228D01*
X147273271Y-70588720D01*
X147214890Y-70592869D01*
X147162543Y-70619043D01*
X147124196Y-70663257D01*
X147112207Y-70690108D01*
X146854509Y-71463201D01*
X146596812Y-70690108D01*
X146584824Y-70663257D01*
X146546477Y-70619043D01*
X146494130Y-70592869D01*
X146435749Y-70588720D01*
X146380225Y-70607228D01*
X146336011Y-70645575D01*
X146309837Y-70697922D01*
X146305688Y-70756303D01*
X146260349Y-70756303D01*
X146258771Y-70732644D01*
X146258771Y-70708278D01*
X146256834Y-70703602D01*
X146256498Y-70698558D01*
X146245699Y-70676722D01*
X146236373Y-70654206D01*
X146232796Y-70650629D01*
X146230554Y-70646095D01*
X146212218Y-70630051D01*
X146194989Y-70612822D01*
X146190314Y-70610885D01*
X146186507Y-70607554D01*
X146163425Y-70599747D01*
X146140917Y-70590424D01*
X146133779Y-70589721D01*
X146131065Y-70588803D01*
X146127125Y-70589065D01*
X146111653Y-70587542D01*
X145368796Y-70587542D01*
X145339532Y-70590424D01*
X145285460Y-70612822D01*
X145244076Y-70654206D01*
X145221678Y-70708278D01*
X145071678Y-70708278D01*
X145071678Y-70437542D01*
X148583081Y-70437542D01*
X148583081Y-72237542D01*
G37*
D13*
X127333333Y-68554819D02*
X126857143Y-68554819D01*
X126857143Y-68554819D02*
X126857143Y-67554819D01*
X128190476Y-68554819D02*
X127619048Y-68554819D01*
X127904762Y-68554819D02*
X127904762Y-67554819D01*
X127904762Y-67554819D02*
X127809524Y-67697676D01*
X127809524Y-67697676D02*
X127714286Y-67792914D01*
X127714286Y-67792914D02*
X127619048Y-67840533D01*
X150238095Y-84046819D02*
X150238095Y-84856342D01*
X150238095Y-84856342D02*
X150285714Y-84951580D01*
X150285714Y-84951580D02*
X150333333Y-84999200D01*
X150333333Y-84999200D02*
X150428571Y-85046819D01*
X150428571Y-85046819D02*
X150619047Y-85046819D01*
X150619047Y-85046819D02*
X150714285Y-84999200D01*
X150714285Y-84999200D02*
X150761904Y-84951580D01*
X150761904Y-84951580D02*
X150809523Y-84856342D01*
X150809523Y-84856342D02*
X150809523Y-84046819D01*
X151761904Y-84046819D02*
X151285714Y-84046819D01*
X151285714Y-84046819D02*
X151238095Y-84523009D01*
X151238095Y-84523009D02*
X151285714Y-84475390D01*
X151285714Y-84475390D02*
X151380952Y-84427771D01*
X151380952Y-84427771D02*
X151619047Y-84427771D01*
X151619047Y-84427771D02*
X151714285Y-84475390D01*
X151714285Y-84475390D02*
X151761904Y-84523009D01*
X151761904Y-84523009D02*
X151809523Y-84618247D01*
X151809523Y-84618247D02*
X151809523Y-84856342D01*
X151809523Y-84856342D02*
X151761904Y-84951580D01*
X151761904Y-84951580D02*
X151714285Y-84999200D01*
X151714285Y-84999200D02*
X151619047Y-85046819D01*
X151619047Y-85046819D02*
X151380952Y-85046819D01*
X151380952Y-85046819D02*
X151285714Y-84999200D01*
X151285714Y-84999200D02*
X151238095Y-84951580D01*
X154738095Y-97254819D02*
X154738095Y-98064342D01*
X154738095Y-98064342D02*
X154785714Y-98159580D01*
X154785714Y-98159580D02*
X154833333Y-98207200D01*
X154833333Y-98207200D02*
X154928571Y-98254819D01*
X154928571Y-98254819D02*
X155119047Y-98254819D01*
X155119047Y-98254819D02*
X155214285Y-98207200D01*
X155214285Y-98207200D02*
X155261904Y-98159580D01*
X155261904Y-98159580D02*
X155309523Y-98064342D01*
X155309523Y-98064342D02*
X155309523Y-97254819D01*
X156214285Y-97588152D02*
X156214285Y-98254819D01*
X155976190Y-97207200D02*
X155738095Y-97921485D01*
X155738095Y-97921485D02*
X156357142Y-97921485D01*
X162359580Y-99242857D02*
X162407200Y-99290476D01*
X162407200Y-99290476D02*
X162454819Y-99433333D01*
X162454819Y-99433333D02*
X162454819Y-99528571D01*
X162454819Y-99528571D02*
X162407200Y-99671428D01*
X162407200Y-99671428D02*
X162311961Y-99766666D01*
X162311961Y-99766666D02*
X162216723Y-99814285D01*
X162216723Y-99814285D02*
X162026247Y-99861904D01*
X162026247Y-99861904D02*
X161883390Y-99861904D01*
X161883390Y-99861904D02*
X161692914Y-99814285D01*
X161692914Y-99814285D02*
X161597676Y-99766666D01*
X161597676Y-99766666D02*
X161502438Y-99671428D01*
X161502438Y-99671428D02*
X161454819Y-99528571D01*
X161454819Y-99528571D02*
X161454819Y-99433333D01*
X161454819Y-99433333D02*
X161502438Y-99290476D01*
X161502438Y-99290476D02*
X161550057Y-99242857D01*
X162454819Y-98290476D02*
X162454819Y-98861904D01*
X162454819Y-98576190D02*
X161454819Y-98576190D01*
X161454819Y-98576190D02*
X161597676Y-98671428D01*
X161597676Y-98671428D02*
X161692914Y-98766666D01*
X161692914Y-98766666D02*
X161740533Y-98861904D01*
X161883390Y-97719047D02*
X161835771Y-97814285D01*
X161835771Y-97814285D02*
X161788152Y-97861904D01*
X161788152Y-97861904D02*
X161692914Y-97909523D01*
X161692914Y-97909523D02*
X161645295Y-97909523D01*
X161645295Y-97909523D02*
X161550057Y-97861904D01*
X161550057Y-97861904D02*
X161502438Y-97814285D01*
X161502438Y-97814285D02*
X161454819Y-97719047D01*
X161454819Y-97719047D02*
X161454819Y-97528571D01*
X161454819Y-97528571D02*
X161502438Y-97433333D01*
X161502438Y-97433333D02*
X161550057Y-97385714D01*
X161550057Y-97385714D02*
X161645295Y-97338095D01*
X161645295Y-97338095D02*
X161692914Y-97338095D01*
X161692914Y-97338095D02*
X161788152Y-97385714D01*
X161788152Y-97385714D02*
X161835771Y-97433333D01*
X161835771Y-97433333D02*
X161883390Y-97528571D01*
X161883390Y-97528571D02*
X161883390Y-97719047D01*
X161883390Y-97719047D02*
X161931009Y-97814285D01*
X161931009Y-97814285D02*
X161978628Y-97861904D01*
X161978628Y-97861904D02*
X162073866Y-97909523D01*
X162073866Y-97909523D02*
X162264342Y-97909523D01*
X162264342Y-97909523D02*
X162359580Y-97861904D01*
X162359580Y-97861904D02*
X162407200Y-97814285D01*
X162407200Y-97814285D02*
X162454819Y-97719047D01*
X162454819Y-97719047D02*
X162454819Y-97528571D01*
X162454819Y-97528571D02*
X162407200Y-97433333D01*
X162407200Y-97433333D02*
X162359580Y-97385714D01*
X162359580Y-97385714D02*
X162264342Y-97338095D01*
X162264342Y-97338095D02*
X162073866Y-97338095D01*
X162073866Y-97338095D02*
X161978628Y-97385714D01*
X161978628Y-97385714D02*
X161931009Y-97433333D01*
X161931009Y-97433333D02*
X161883390Y-97528571D01*
X163859580Y-99242857D02*
X163907200Y-99290476D01*
X163907200Y-99290476D02*
X163954819Y-99433333D01*
X163954819Y-99433333D02*
X163954819Y-99528571D01*
X163954819Y-99528571D02*
X163907200Y-99671428D01*
X163907200Y-99671428D02*
X163811961Y-99766666D01*
X163811961Y-99766666D02*
X163716723Y-99814285D01*
X163716723Y-99814285D02*
X163526247Y-99861904D01*
X163526247Y-99861904D02*
X163383390Y-99861904D01*
X163383390Y-99861904D02*
X163192914Y-99814285D01*
X163192914Y-99814285D02*
X163097676Y-99766666D01*
X163097676Y-99766666D02*
X163002438Y-99671428D01*
X163002438Y-99671428D02*
X162954819Y-99528571D01*
X162954819Y-99528571D02*
X162954819Y-99433333D01*
X162954819Y-99433333D02*
X163002438Y-99290476D01*
X163002438Y-99290476D02*
X163050057Y-99242857D01*
X163954819Y-98290476D02*
X163954819Y-98861904D01*
X163954819Y-98576190D02*
X162954819Y-98576190D01*
X162954819Y-98576190D02*
X163097676Y-98671428D01*
X163097676Y-98671428D02*
X163192914Y-98766666D01*
X163192914Y-98766666D02*
X163240533Y-98861904D01*
X163954819Y-97814285D02*
X163954819Y-97623809D01*
X163954819Y-97623809D02*
X163907200Y-97528571D01*
X163907200Y-97528571D02*
X163859580Y-97480952D01*
X163859580Y-97480952D02*
X163716723Y-97385714D01*
X163716723Y-97385714D02*
X163526247Y-97338095D01*
X163526247Y-97338095D02*
X163145295Y-97338095D01*
X163145295Y-97338095D02*
X163050057Y-97385714D01*
X163050057Y-97385714D02*
X163002438Y-97433333D01*
X163002438Y-97433333D02*
X162954819Y-97528571D01*
X162954819Y-97528571D02*
X162954819Y-97719047D01*
X162954819Y-97719047D02*
X163002438Y-97814285D01*
X163002438Y-97814285D02*
X163050057Y-97861904D01*
X163050057Y-97861904D02*
X163145295Y-97909523D01*
X163145295Y-97909523D02*
X163383390Y-97909523D01*
X163383390Y-97909523D02*
X163478628Y-97861904D01*
X163478628Y-97861904D02*
X163526247Y-97814285D01*
X163526247Y-97814285D02*
X163573866Y-97719047D01*
X163573866Y-97719047D02*
X163573866Y-97528571D01*
X163573866Y-97528571D02*
X163526247Y-97433333D01*
X163526247Y-97433333D02*
X163478628Y-97385714D01*
X163478628Y-97385714D02*
X163383390Y-97338095D01*
X166488095Y-83806819D02*
X167059523Y-83806819D01*
X166773809Y-84806819D02*
X166773809Y-83806819D01*
X167392857Y-84806819D02*
X167392857Y-83806819D01*
X167392857Y-83806819D02*
X167773809Y-83806819D01*
X167773809Y-83806819D02*
X167869047Y-83854438D01*
X167869047Y-83854438D02*
X167916666Y-83902057D01*
X167916666Y-83902057D02*
X167964285Y-83997295D01*
X167964285Y-83997295D02*
X167964285Y-84140152D01*
X167964285Y-84140152D02*
X167916666Y-84235390D01*
X167916666Y-84235390D02*
X167869047Y-84283009D01*
X167869047Y-84283009D02*
X167773809Y-84330628D01*
X167773809Y-84330628D02*
X167392857Y-84330628D01*
X168345238Y-83902057D02*
X168392857Y-83854438D01*
X168392857Y-83854438D02*
X168488095Y-83806819D01*
X168488095Y-83806819D02*
X168726190Y-83806819D01*
X168726190Y-83806819D02*
X168821428Y-83854438D01*
X168821428Y-83854438D02*
X168869047Y-83902057D01*
X168869047Y-83902057D02*
X168916666Y-83997295D01*
X168916666Y-83997295D02*
X168916666Y-84092533D01*
X168916666Y-84092533D02*
X168869047Y-84235390D01*
X168869047Y-84235390D02*
X168297619Y-84806819D01*
X168297619Y-84806819D02*
X168916666Y-84806819D01*
X166738095Y-107806819D02*
X167309523Y-107806819D01*
X167023809Y-108806819D02*
X167023809Y-107806819D01*
X167642857Y-108806819D02*
X167642857Y-107806819D01*
X167642857Y-107806819D02*
X168023809Y-107806819D01*
X168023809Y-107806819D02*
X168119047Y-107854438D01*
X168119047Y-107854438D02*
X168166666Y-107902057D01*
X168166666Y-107902057D02*
X168214285Y-107997295D01*
X168214285Y-107997295D02*
X168214285Y-108140152D01*
X168214285Y-108140152D02*
X168166666Y-108235390D01*
X168166666Y-108235390D02*
X168119047Y-108283009D01*
X168119047Y-108283009D02*
X168023809Y-108330628D01*
X168023809Y-108330628D02*
X167642857Y-108330628D01*
X168547619Y-107806819D02*
X169214285Y-107806819D01*
X169214285Y-107806819D02*
X168785714Y-108806819D01*
X169238095Y-78556819D02*
X169809523Y-78556819D01*
X169523809Y-79556819D02*
X169523809Y-78556819D01*
X170142857Y-79556819D02*
X170142857Y-78556819D01*
X170142857Y-78556819D02*
X170523809Y-78556819D01*
X170523809Y-78556819D02*
X170619047Y-78604438D01*
X170619047Y-78604438D02*
X170666666Y-78652057D01*
X170666666Y-78652057D02*
X170714285Y-78747295D01*
X170714285Y-78747295D02*
X170714285Y-78890152D01*
X170714285Y-78890152D02*
X170666666Y-78985390D01*
X170666666Y-78985390D02*
X170619047Y-79033009D01*
X170619047Y-79033009D02*
X170523809Y-79080628D01*
X170523809Y-79080628D02*
X170142857Y-79080628D01*
X171571428Y-78556819D02*
X171380952Y-78556819D01*
X171380952Y-78556819D02*
X171285714Y-78604438D01*
X171285714Y-78604438D02*
X171238095Y-78652057D01*
X171238095Y-78652057D02*
X171142857Y-78794914D01*
X171142857Y-78794914D02*
X171095238Y-78985390D01*
X171095238Y-78985390D02*
X171095238Y-79366342D01*
X171095238Y-79366342D02*
X171142857Y-79461580D01*
X171142857Y-79461580D02*
X171190476Y-79509200D01*
X171190476Y-79509200D02*
X171285714Y-79556819D01*
X171285714Y-79556819D02*
X171476190Y-79556819D01*
X171476190Y-79556819D02*
X171571428Y-79509200D01*
X171571428Y-79509200D02*
X171619047Y-79461580D01*
X171619047Y-79461580D02*
X171666666Y-79366342D01*
X171666666Y-79366342D02*
X171666666Y-79128247D01*
X171666666Y-79128247D02*
X171619047Y-79033009D01*
X171619047Y-79033009D02*
X171571428Y-78985390D01*
X171571428Y-78985390D02*
X171476190Y-78937771D01*
X171476190Y-78937771D02*
X171285714Y-78937771D01*
X171285714Y-78937771D02*
X171190476Y-78985390D01*
X171190476Y-78985390D02*
X171142857Y-79033009D01*
X171142857Y-79033009D02*
X171095238Y-79128247D01*
X156357142Y-57459580D02*
X156309523Y-57507200D01*
X156309523Y-57507200D02*
X156166666Y-57554819D01*
X156166666Y-57554819D02*
X156071428Y-57554819D01*
X156071428Y-57554819D02*
X155928571Y-57507200D01*
X155928571Y-57507200D02*
X155833333Y-57411961D01*
X155833333Y-57411961D02*
X155785714Y-57316723D01*
X155785714Y-57316723D02*
X155738095Y-57126247D01*
X155738095Y-57126247D02*
X155738095Y-56983390D01*
X155738095Y-56983390D02*
X155785714Y-56792914D01*
X155785714Y-56792914D02*
X155833333Y-56697676D01*
X155833333Y-56697676D02*
X155928571Y-56602438D01*
X155928571Y-56602438D02*
X156071428Y-56554819D01*
X156071428Y-56554819D02*
X156166666Y-56554819D01*
X156166666Y-56554819D02*
X156309523Y-56602438D01*
X156309523Y-56602438D02*
X156357142Y-56650057D01*
X156738095Y-56650057D02*
X156785714Y-56602438D01*
X156785714Y-56602438D02*
X156880952Y-56554819D01*
X156880952Y-56554819D02*
X157119047Y-56554819D01*
X157119047Y-56554819D02*
X157214285Y-56602438D01*
X157214285Y-56602438D02*
X157261904Y-56650057D01*
X157261904Y-56650057D02*
X157309523Y-56745295D01*
X157309523Y-56745295D02*
X157309523Y-56840533D01*
X157309523Y-56840533D02*
X157261904Y-56983390D01*
X157261904Y-56983390D02*
X156690476Y-57554819D01*
X156690476Y-57554819D02*
X157309523Y-57554819D01*
X157785714Y-57554819D02*
X157976190Y-57554819D01*
X157976190Y-57554819D02*
X158071428Y-57507200D01*
X158071428Y-57507200D02*
X158119047Y-57459580D01*
X158119047Y-57459580D02*
X158214285Y-57316723D01*
X158214285Y-57316723D02*
X158261904Y-57126247D01*
X158261904Y-57126247D02*
X158261904Y-56745295D01*
X158261904Y-56745295D02*
X158214285Y-56650057D01*
X158214285Y-56650057D02*
X158166666Y-56602438D01*
X158166666Y-56602438D02*
X158071428Y-56554819D01*
X158071428Y-56554819D02*
X157880952Y-56554819D01*
X157880952Y-56554819D02*
X157785714Y-56602438D01*
X157785714Y-56602438D02*
X157738095Y-56650057D01*
X157738095Y-56650057D02*
X157690476Y-56745295D01*
X157690476Y-56745295D02*
X157690476Y-56983390D01*
X157690476Y-56983390D02*
X157738095Y-57078628D01*
X157738095Y-57078628D02*
X157785714Y-57126247D01*
X157785714Y-57126247D02*
X157880952Y-57173866D01*
X157880952Y-57173866D02*
X158071428Y-57173866D01*
X158071428Y-57173866D02*
X158166666Y-57126247D01*
X158166666Y-57126247D02*
X158214285Y-57078628D01*
X158214285Y-57078628D02*
X158261904Y-56983390D01*
X138859580Y-75266666D02*
X138907200Y-75314285D01*
X138907200Y-75314285D02*
X138954819Y-75457142D01*
X138954819Y-75457142D02*
X138954819Y-75552380D01*
X138954819Y-75552380D02*
X138907200Y-75695237D01*
X138907200Y-75695237D02*
X138811961Y-75790475D01*
X138811961Y-75790475D02*
X138716723Y-75838094D01*
X138716723Y-75838094D02*
X138526247Y-75885713D01*
X138526247Y-75885713D02*
X138383390Y-75885713D01*
X138383390Y-75885713D02*
X138192914Y-75838094D01*
X138192914Y-75838094D02*
X138097676Y-75790475D01*
X138097676Y-75790475D02*
X138002438Y-75695237D01*
X138002438Y-75695237D02*
X137954819Y-75552380D01*
X137954819Y-75552380D02*
X137954819Y-75457142D01*
X137954819Y-75457142D02*
X138002438Y-75314285D01*
X138002438Y-75314285D02*
X138050057Y-75266666D01*
X137954819Y-74933332D02*
X137954819Y-74314285D01*
X137954819Y-74314285D02*
X138335771Y-74647618D01*
X138335771Y-74647618D02*
X138335771Y-74504761D01*
X138335771Y-74504761D02*
X138383390Y-74409523D01*
X138383390Y-74409523D02*
X138431009Y-74361904D01*
X138431009Y-74361904D02*
X138526247Y-74314285D01*
X138526247Y-74314285D02*
X138764342Y-74314285D01*
X138764342Y-74314285D02*
X138859580Y-74361904D01*
X138859580Y-74361904D02*
X138907200Y-74409523D01*
X138907200Y-74409523D02*
X138954819Y-74504761D01*
X138954819Y-74504761D02*
X138954819Y-74790475D01*
X138954819Y-74790475D02*
X138907200Y-74885713D01*
X138907200Y-74885713D02*
X138859580Y-74933332D01*
X160359580Y-93766666D02*
X160407200Y-93814285D01*
X160407200Y-93814285D02*
X160454819Y-93957142D01*
X160454819Y-93957142D02*
X160454819Y-94052380D01*
X160454819Y-94052380D02*
X160407200Y-94195237D01*
X160407200Y-94195237D02*
X160311961Y-94290475D01*
X160311961Y-94290475D02*
X160216723Y-94338094D01*
X160216723Y-94338094D02*
X160026247Y-94385713D01*
X160026247Y-94385713D02*
X159883390Y-94385713D01*
X159883390Y-94385713D02*
X159692914Y-94338094D01*
X159692914Y-94338094D02*
X159597676Y-94290475D01*
X159597676Y-94290475D02*
X159502438Y-94195237D01*
X159502438Y-94195237D02*
X159454819Y-94052380D01*
X159454819Y-94052380D02*
X159454819Y-93957142D01*
X159454819Y-93957142D02*
X159502438Y-93814285D01*
X159502438Y-93814285D02*
X159550057Y-93766666D01*
X159454819Y-93433332D02*
X159454819Y-92766666D01*
X159454819Y-92766666D02*
X160454819Y-93195237D01*
X156859580Y-82242857D02*
X156907200Y-82290476D01*
X156907200Y-82290476D02*
X156954819Y-82433333D01*
X156954819Y-82433333D02*
X156954819Y-82528571D01*
X156954819Y-82528571D02*
X156907200Y-82671428D01*
X156907200Y-82671428D02*
X156811961Y-82766666D01*
X156811961Y-82766666D02*
X156716723Y-82814285D01*
X156716723Y-82814285D02*
X156526247Y-82861904D01*
X156526247Y-82861904D02*
X156383390Y-82861904D01*
X156383390Y-82861904D02*
X156192914Y-82814285D01*
X156192914Y-82814285D02*
X156097676Y-82766666D01*
X156097676Y-82766666D02*
X156002438Y-82671428D01*
X156002438Y-82671428D02*
X155954819Y-82528571D01*
X155954819Y-82528571D02*
X155954819Y-82433333D01*
X155954819Y-82433333D02*
X156002438Y-82290476D01*
X156002438Y-82290476D02*
X156050057Y-82242857D01*
X156288152Y-81385714D02*
X156954819Y-81385714D01*
X155907200Y-81623809D02*
X156621485Y-81861904D01*
X156621485Y-81861904D02*
X156621485Y-81242857D01*
X155954819Y-80671428D02*
X155954819Y-80576190D01*
X155954819Y-80576190D02*
X156002438Y-80480952D01*
X156002438Y-80480952D02*
X156050057Y-80433333D01*
X156050057Y-80433333D02*
X156145295Y-80385714D01*
X156145295Y-80385714D02*
X156335771Y-80338095D01*
X156335771Y-80338095D02*
X156573866Y-80338095D01*
X156573866Y-80338095D02*
X156764342Y-80385714D01*
X156764342Y-80385714D02*
X156859580Y-80433333D01*
X156859580Y-80433333D02*
X156907200Y-80480952D01*
X156907200Y-80480952D02*
X156954819Y-80576190D01*
X156954819Y-80576190D02*
X156954819Y-80671428D01*
X156954819Y-80671428D02*
X156907200Y-80766666D01*
X156907200Y-80766666D02*
X156859580Y-80814285D01*
X156859580Y-80814285D02*
X156764342Y-80861904D01*
X156764342Y-80861904D02*
X156573866Y-80909523D01*
X156573866Y-80909523D02*
X156335771Y-80909523D01*
X156335771Y-80909523D02*
X156145295Y-80861904D01*
X156145295Y-80861904D02*
X156050057Y-80814285D01*
X156050057Y-80814285D02*
X156002438Y-80766666D01*
X156002438Y-80766666D02*
X155954819Y-80671428D01*
X158359580Y-82242857D02*
X158407200Y-82290476D01*
X158407200Y-82290476D02*
X158454819Y-82433333D01*
X158454819Y-82433333D02*
X158454819Y-82528571D01*
X158454819Y-82528571D02*
X158407200Y-82671428D01*
X158407200Y-82671428D02*
X158311961Y-82766666D01*
X158311961Y-82766666D02*
X158216723Y-82814285D01*
X158216723Y-82814285D02*
X158026247Y-82861904D01*
X158026247Y-82861904D02*
X157883390Y-82861904D01*
X157883390Y-82861904D02*
X157692914Y-82814285D01*
X157692914Y-82814285D02*
X157597676Y-82766666D01*
X157597676Y-82766666D02*
X157502438Y-82671428D01*
X157502438Y-82671428D02*
X157454819Y-82528571D01*
X157454819Y-82528571D02*
X157454819Y-82433333D01*
X157454819Y-82433333D02*
X157502438Y-82290476D01*
X157502438Y-82290476D02*
X157550057Y-82242857D01*
X157454819Y-81909523D02*
X157454819Y-81290476D01*
X157454819Y-81290476D02*
X157835771Y-81623809D01*
X157835771Y-81623809D02*
X157835771Y-81480952D01*
X157835771Y-81480952D02*
X157883390Y-81385714D01*
X157883390Y-81385714D02*
X157931009Y-81338095D01*
X157931009Y-81338095D02*
X158026247Y-81290476D01*
X158026247Y-81290476D02*
X158264342Y-81290476D01*
X158264342Y-81290476D02*
X158359580Y-81338095D01*
X158359580Y-81338095D02*
X158407200Y-81385714D01*
X158407200Y-81385714D02*
X158454819Y-81480952D01*
X158454819Y-81480952D02*
X158454819Y-81766666D01*
X158454819Y-81766666D02*
X158407200Y-81861904D01*
X158407200Y-81861904D02*
X158359580Y-81909523D01*
X158454819Y-80814285D02*
X158454819Y-80623809D01*
X158454819Y-80623809D02*
X158407200Y-80528571D01*
X158407200Y-80528571D02*
X158359580Y-80480952D01*
X158359580Y-80480952D02*
X158216723Y-80385714D01*
X158216723Y-80385714D02*
X158026247Y-80338095D01*
X158026247Y-80338095D02*
X157645295Y-80338095D01*
X157645295Y-80338095D02*
X157550057Y-80385714D01*
X157550057Y-80385714D02*
X157502438Y-80433333D01*
X157502438Y-80433333D02*
X157454819Y-80528571D01*
X157454819Y-80528571D02*
X157454819Y-80719047D01*
X157454819Y-80719047D02*
X157502438Y-80814285D01*
X157502438Y-80814285D02*
X157550057Y-80861904D01*
X157550057Y-80861904D02*
X157645295Y-80909523D01*
X157645295Y-80909523D02*
X157883390Y-80909523D01*
X157883390Y-80909523D02*
X157978628Y-80861904D01*
X157978628Y-80861904D02*
X158026247Y-80814285D01*
X158026247Y-80814285D02*
X158073866Y-80719047D01*
X158073866Y-80719047D02*
X158073866Y-80528571D01*
X158073866Y-80528571D02*
X158026247Y-80433333D01*
X158026247Y-80433333D02*
X157978628Y-80385714D01*
X157978628Y-80385714D02*
X157883390Y-80338095D01*
X142230819Y-80266666D02*
X141754628Y-80599999D01*
X142230819Y-80838094D02*
X141230819Y-80838094D01*
X141230819Y-80838094D02*
X141230819Y-80457142D01*
X141230819Y-80457142D02*
X141278438Y-80361904D01*
X141278438Y-80361904D02*
X141326057Y-80314285D01*
X141326057Y-80314285D02*
X141421295Y-80266666D01*
X141421295Y-80266666D02*
X141564152Y-80266666D01*
X141564152Y-80266666D02*
X141659390Y-80314285D01*
X141659390Y-80314285D02*
X141707009Y-80361904D01*
X141707009Y-80361904D02*
X141754628Y-80457142D01*
X141754628Y-80457142D02*
X141754628Y-80838094D01*
X142230819Y-79314285D02*
X142230819Y-79885713D01*
X142230819Y-79599999D02*
X141230819Y-79599999D01*
X141230819Y-79599999D02*
X141373676Y-79695237D01*
X141373676Y-79695237D02*
X141468914Y-79790475D01*
X141468914Y-79790475D02*
X141516533Y-79885713D01*
X142738095Y-75954819D02*
X142738095Y-76764342D01*
X142738095Y-76764342D02*
X142785714Y-76859580D01*
X142785714Y-76859580D02*
X142833333Y-76907200D01*
X142833333Y-76907200D02*
X142928571Y-76954819D01*
X142928571Y-76954819D02*
X143119047Y-76954819D01*
X143119047Y-76954819D02*
X143214285Y-76907200D01*
X143214285Y-76907200D02*
X143261904Y-76859580D01*
X143261904Y-76859580D02*
X143309523Y-76764342D01*
X143309523Y-76764342D02*
X143309523Y-75954819D01*
X143738095Y-76050057D02*
X143785714Y-76002438D01*
X143785714Y-76002438D02*
X143880952Y-75954819D01*
X143880952Y-75954819D02*
X144119047Y-75954819D01*
X144119047Y-75954819D02*
X144214285Y-76002438D01*
X144214285Y-76002438D02*
X144261904Y-76050057D01*
X144261904Y-76050057D02*
X144309523Y-76145295D01*
X144309523Y-76145295D02*
X144309523Y-76240533D01*
X144309523Y-76240533D02*
X144261904Y-76383390D01*
X144261904Y-76383390D02*
X143690476Y-76954819D01*
X143690476Y-76954819D02*
X144309523Y-76954819D01*
X135357142Y-103459580D02*
X135309523Y-103507200D01*
X135309523Y-103507200D02*
X135166666Y-103554819D01*
X135166666Y-103554819D02*
X135071428Y-103554819D01*
X135071428Y-103554819D02*
X134928571Y-103507200D01*
X134928571Y-103507200D02*
X134833333Y-103411961D01*
X134833333Y-103411961D02*
X134785714Y-103316723D01*
X134785714Y-103316723D02*
X134738095Y-103126247D01*
X134738095Y-103126247D02*
X134738095Y-102983390D01*
X134738095Y-102983390D02*
X134785714Y-102792914D01*
X134785714Y-102792914D02*
X134833333Y-102697676D01*
X134833333Y-102697676D02*
X134928571Y-102602438D01*
X134928571Y-102602438D02*
X135071428Y-102554819D01*
X135071428Y-102554819D02*
X135166666Y-102554819D01*
X135166666Y-102554819D02*
X135309523Y-102602438D01*
X135309523Y-102602438D02*
X135357142Y-102650057D01*
X136309523Y-103554819D02*
X135738095Y-103554819D01*
X136023809Y-103554819D02*
X136023809Y-102554819D01*
X136023809Y-102554819D02*
X135928571Y-102697676D01*
X135928571Y-102697676D02*
X135833333Y-102792914D01*
X135833333Y-102792914D02*
X135738095Y-102840533D01*
X137214285Y-102554819D02*
X136738095Y-102554819D01*
X136738095Y-102554819D02*
X136690476Y-103031009D01*
X136690476Y-103031009D02*
X136738095Y-102983390D01*
X136738095Y-102983390D02*
X136833333Y-102935771D01*
X136833333Y-102935771D02*
X137071428Y-102935771D01*
X137071428Y-102935771D02*
X137166666Y-102983390D01*
X137166666Y-102983390D02*
X137214285Y-103031009D01*
X137214285Y-103031009D02*
X137261904Y-103126247D01*
X137261904Y-103126247D02*
X137261904Y-103364342D01*
X137261904Y-103364342D02*
X137214285Y-103459580D01*
X137214285Y-103459580D02*
X137166666Y-103507200D01*
X137166666Y-103507200D02*
X137071428Y-103554819D01*
X137071428Y-103554819D02*
X136833333Y-103554819D01*
X136833333Y-103554819D02*
X136738095Y-103507200D01*
X136738095Y-103507200D02*
X136690476Y-103459580D01*
X144859580Y-112742857D02*
X144907200Y-112790476D01*
X144907200Y-112790476D02*
X144954819Y-112933333D01*
X144954819Y-112933333D02*
X144954819Y-113028571D01*
X144954819Y-113028571D02*
X144907200Y-113171428D01*
X144907200Y-113171428D02*
X144811961Y-113266666D01*
X144811961Y-113266666D02*
X144716723Y-113314285D01*
X144716723Y-113314285D02*
X144526247Y-113361904D01*
X144526247Y-113361904D02*
X144383390Y-113361904D01*
X144383390Y-113361904D02*
X144192914Y-113314285D01*
X144192914Y-113314285D02*
X144097676Y-113266666D01*
X144097676Y-113266666D02*
X144002438Y-113171428D01*
X144002438Y-113171428D02*
X143954819Y-113028571D01*
X143954819Y-113028571D02*
X143954819Y-112933333D01*
X143954819Y-112933333D02*
X144002438Y-112790476D01*
X144002438Y-112790476D02*
X144050057Y-112742857D01*
X144954819Y-111790476D02*
X144954819Y-112361904D01*
X144954819Y-112076190D02*
X143954819Y-112076190D01*
X143954819Y-112076190D02*
X144097676Y-112171428D01*
X144097676Y-112171428D02*
X144192914Y-112266666D01*
X144192914Y-112266666D02*
X144240533Y-112361904D01*
X144050057Y-111409523D02*
X144002438Y-111361904D01*
X144002438Y-111361904D02*
X143954819Y-111266666D01*
X143954819Y-111266666D02*
X143954819Y-111028571D01*
X143954819Y-111028571D02*
X144002438Y-110933333D01*
X144002438Y-110933333D02*
X144050057Y-110885714D01*
X144050057Y-110885714D02*
X144145295Y-110838095D01*
X144145295Y-110838095D02*
X144240533Y-110838095D01*
X144240533Y-110838095D02*
X144383390Y-110885714D01*
X144383390Y-110885714D02*
X144954819Y-111457142D01*
X144954819Y-111457142D02*
X144954819Y-110838095D01*
X140359580Y-111742857D02*
X140407200Y-111790476D01*
X140407200Y-111790476D02*
X140454819Y-111933333D01*
X140454819Y-111933333D02*
X140454819Y-112028571D01*
X140454819Y-112028571D02*
X140407200Y-112171428D01*
X140407200Y-112171428D02*
X140311961Y-112266666D01*
X140311961Y-112266666D02*
X140216723Y-112314285D01*
X140216723Y-112314285D02*
X140026247Y-112361904D01*
X140026247Y-112361904D02*
X139883390Y-112361904D01*
X139883390Y-112361904D02*
X139692914Y-112314285D01*
X139692914Y-112314285D02*
X139597676Y-112266666D01*
X139597676Y-112266666D02*
X139502438Y-112171428D01*
X139502438Y-112171428D02*
X139454819Y-112028571D01*
X139454819Y-112028571D02*
X139454819Y-111933333D01*
X139454819Y-111933333D02*
X139502438Y-111790476D01*
X139502438Y-111790476D02*
X139550057Y-111742857D01*
X140454819Y-110790476D02*
X140454819Y-111361904D01*
X140454819Y-111076190D02*
X139454819Y-111076190D01*
X139454819Y-111076190D02*
X139597676Y-111171428D01*
X139597676Y-111171428D02*
X139692914Y-111266666D01*
X139692914Y-111266666D02*
X139740533Y-111361904D01*
X140454819Y-109838095D02*
X140454819Y-110409523D01*
X140454819Y-110123809D02*
X139454819Y-110123809D01*
X139454819Y-110123809D02*
X139597676Y-110219047D01*
X139597676Y-110219047D02*
X139692914Y-110314285D01*
X139692914Y-110314285D02*
X139740533Y-110409523D01*
X153191770Y-108723472D02*
X152855053Y-109060190D01*
X152855053Y-109060190D02*
X152147946Y-108353083D01*
X152754038Y-107881678D02*
X152754038Y-107814335D01*
X152754038Y-107814335D02*
X152787709Y-107713319D01*
X152787709Y-107713319D02*
X152956068Y-107544961D01*
X152956068Y-107544961D02*
X153057083Y-107511289D01*
X153057083Y-107511289D02*
X153124427Y-107511289D01*
X153124427Y-107511289D02*
X153225442Y-107544961D01*
X153225442Y-107544961D02*
X153292786Y-107612304D01*
X153292786Y-107612304D02*
X153360129Y-107746991D01*
X153360129Y-107746991D02*
X153360129Y-108555113D01*
X153360129Y-108555113D02*
X153797862Y-108117380D01*
X141859580Y-111742857D02*
X141907200Y-111790476D01*
X141907200Y-111790476D02*
X141954819Y-111933333D01*
X141954819Y-111933333D02*
X141954819Y-112028571D01*
X141954819Y-112028571D02*
X141907200Y-112171428D01*
X141907200Y-112171428D02*
X141811961Y-112266666D01*
X141811961Y-112266666D02*
X141716723Y-112314285D01*
X141716723Y-112314285D02*
X141526247Y-112361904D01*
X141526247Y-112361904D02*
X141383390Y-112361904D01*
X141383390Y-112361904D02*
X141192914Y-112314285D01*
X141192914Y-112314285D02*
X141097676Y-112266666D01*
X141097676Y-112266666D02*
X141002438Y-112171428D01*
X141002438Y-112171428D02*
X140954819Y-112028571D01*
X140954819Y-112028571D02*
X140954819Y-111933333D01*
X140954819Y-111933333D02*
X141002438Y-111790476D01*
X141002438Y-111790476D02*
X141050057Y-111742857D01*
X141954819Y-110790476D02*
X141954819Y-111361904D01*
X141954819Y-111076190D02*
X140954819Y-111076190D01*
X140954819Y-111076190D02*
X141097676Y-111171428D01*
X141097676Y-111171428D02*
X141192914Y-111266666D01*
X141192914Y-111266666D02*
X141240533Y-111361904D01*
X140954819Y-110171428D02*
X140954819Y-110076190D01*
X140954819Y-110076190D02*
X141002438Y-109980952D01*
X141002438Y-109980952D02*
X141050057Y-109933333D01*
X141050057Y-109933333D02*
X141145295Y-109885714D01*
X141145295Y-109885714D02*
X141335771Y-109838095D01*
X141335771Y-109838095D02*
X141573866Y-109838095D01*
X141573866Y-109838095D02*
X141764342Y-109885714D01*
X141764342Y-109885714D02*
X141859580Y-109933333D01*
X141859580Y-109933333D02*
X141907200Y-109980952D01*
X141907200Y-109980952D02*
X141954819Y-110076190D01*
X141954819Y-110076190D02*
X141954819Y-110171428D01*
X141954819Y-110171428D02*
X141907200Y-110266666D01*
X141907200Y-110266666D02*
X141859580Y-110314285D01*
X141859580Y-110314285D02*
X141764342Y-110361904D01*
X141764342Y-110361904D02*
X141573866Y-110409523D01*
X141573866Y-110409523D02*
X141335771Y-110409523D01*
X141335771Y-110409523D02*
X141145295Y-110361904D01*
X141145295Y-110361904D02*
X141050057Y-110314285D01*
X141050057Y-110314285D02*
X141002438Y-110266666D01*
X141002438Y-110266666D02*
X140954819Y-110171428D01*
X135357142Y-105153580D02*
X135309523Y-105201200D01*
X135309523Y-105201200D02*
X135166666Y-105248819D01*
X135166666Y-105248819D02*
X135071428Y-105248819D01*
X135071428Y-105248819D02*
X134928571Y-105201200D01*
X134928571Y-105201200D02*
X134833333Y-105105961D01*
X134833333Y-105105961D02*
X134785714Y-105010723D01*
X134785714Y-105010723D02*
X134738095Y-104820247D01*
X134738095Y-104820247D02*
X134738095Y-104677390D01*
X134738095Y-104677390D02*
X134785714Y-104486914D01*
X134785714Y-104486914D02*
X134833333Y-104391676D01*
X134833333Y-104391676D02*
X134928571Y-104296438D01*
X134928571Y-104296438D02*
X135071428Y-104248819D01*
X135071428Y-104248819D02*
X135166666Y-104248819D01*
X135166666Y-104248819D02*
X135309523Y-104296438D01*
X135309523Y-104296438D02*
X135357142Y-104344057D01*
X136309523Y-105248819D02*
X135738095Y-105248819D01*
X136023809Y-105248819D02*
X136023809Y-104248819D01*
X136023809Y-104248819D02*
X135928571Y-104391676D01*
X135928571Y-104391676D02*
X135833333Y-104486914D01*
X135833333Y-104486914D02*
X135738095Y-104534533D01*
X137166666Y-104582152D02*
X137166666Y-105248819D01*
X136928571Y-104201200D02*
X136690476Y-104915485D01*
X136690476Y-104915485D02*
X137309523Y-104915485D01*
X143359580Y-112742857D02*
X143407200Y-112790476D01*
X143407200Y-112790476D02*
X143454819Y-112933333D01*
X143454819Y-112933333D02*
X143454819Y-113028571D01*
X143454819Y-113028571D02*
X143407200Y-113171428D01*
X143407200Y-113171428D02*
X143311961Y-113266666D01*
X143311961Y-113266666D02*
X143216723Y-113314285D01*
X143216723Y-113314285D02*
X143026247Y-113361904D01*
X143026247Y-113361904D02*
X142883390Y-113361904D01*
X142883390Y-113361904D02*
X142692914Y-113314285D01*
X142692914Y-113314285D02*
X142597676Y-113266666D01*
X142597676Y-113266666D02*
X142502438Y-113171428D01*
X142502438Y-113171428D02*
X142454819Y-113028571D01*
X142454819Y-113028571D02*
X142454819Y-112933333D01*
X142454819Y-112933333D02*
X142502438Y-112790476D01*
X142502438Y-112790476D02*
X142550057Y-112742857D01*
X143454819Y-111790476D02*
X143454819Y-112361904D01*
X143454819Y-112076190D02*
X142454819Y-112076190D01*
X142454819Y-112076190D02*
X142597676Y-112171428D01*
X142597676Y-112171428D02*
X142692914Y-112266666D01*
X142692914Y-112266666D02*
X142740533Y-112361904D01*
X142454819Y-111457142D02*
X142454819Y-110838095D01*
X142454819Y-110838095D02*
X142835771Y-111171428D01*
X142835771Y-111171428D02*
X142835771Y-111028571D01*
X142835771Y-111028571D02*
X142883390Y-110933333D01*
X142883390Y-110933333D02*
X142931009Y-110885714D01*
X142931009Y-110885714D02*
X143026247Y-110838095D01*
X143026247Y-110838095D02*
X143264342Y-110838095D01*
X143264342Y-110838095D02*
X143359580Y-110885714D01*
X143359580Y-110885714D02*
X143407200Y-110933333D01*
X143407200Y-110933333D02*
X143454819Y-111028571D01*
X143454819Y-111028571D02*
X143454819Y-111314285D01*
X143454819Y-111314285D02*
X143407200Y-111409523D01*
X143407200Y-111409523D02*
X143359580Y-111457142D01*
X146807142Y-111459580D02*
X146759523Y-111507200D01*
X146759523Y-111507200D02*
X146616666Y-111554819D01*
X146616666Y-111554819D02*
X146521428Y-111554819D01*
X146521428Y-111554819D02*
X146378571Y-111507200D01*
X146378571Y-111507200D02*
X146283333Y-111411961D01*
X146283333Y-111411961D02*
X146235714Y-111316723D01*
X146235714Y-111316723D02*
X146188095Y-111126247D01*
X146188095Y-111126247D02*
X146188095Y-110983390D01*
X146188095Y-110983390D02*
X146235714Y-110792914D01*
X146235714Y-110792914D02*
X146283333Y-110697676D01*
X146283333Y-110697676D02*
X146378571Y-110602438D01*
X146378571Y-110602438D02*
X146521428Y-110554819D01*
X146521428Y-110554819D02*
X146616666Y-110554819D01*
X146616666Y-110554819D02*
X146759523Y-110602438D01*
X146759523Y-110602438D02*
X146807142Y-110650057D01*
X147188095Y-110650057D02*
X147235714Y-110602438D01*
X147235714Y-110602438D02*
X147330952Y-110554819D01*
X147330952Y-110554819D02*
X147569047Y-110554819D01*
X147569047Y-110554819D02*
X147664285Y-110602438D01*
X147664285Y-110602438D02*
X147711904Y-110650057D01*
X147711904Y-110650057D02*
X147759523Y-110745295D01*
X147759523Y-110745295D02*
X147759523Y-110840533D01*
X147759523Y-110840533D02*
X147711904Y-110983390D01*
X147711904Y-110983390D02*
X147140476Y-111554819D01*
X147140476Y-111554819D02*
X147759523Y-111554819D01*
X148664285Y-110554819D02*
X148188095Y-110554819D01*
X148188095Y-110554819D02*
X148140476Y-111031009D01*
X148140476Y-111031009D02*
X148188095Y-110983390D01*
X148188095Y-110983390D02*
X148283333Y-110935771D01*
X148283333Y-110935771D02*
X148521428Y-110935771D01*
X148521428Y-110935771D02*
X148616666Y-110983390D01*
X148616666Y-110983390D02*
X148664285Y-111031009D01*
X148664285Y-111031009D02*
X148711904Y-111126247D01*
X148711904Y-111126247D02*
X148711904Y-111364342D01*
X148711904Y-111364342D02*
X148664285Y-111459580D01*
X148664285Y-111459580D02*
X148616666Y-111507200D01*
X148616666Y-111507200D02*
X148521428Y-111554819D01*
X148521428Y-111554819D02*
X148283333Y-111554819D01*
X148283333Y-111554819D02*
X148188095Y-111507200D01*
X148188095Y-111507200D02*
X148140476Y-111459580D01*
X142523809Y-104078628D02*
X142523809Y-104554819D01*
X142190476Y-103554819D02*
X142523809Y-104078628D01*
X142523809Y-104078628D02*
X142857142Y-103554819D01*
X143714285Y-104554819D02*
X143142857Y-104554819D01*
X143428571Y-104554819D02*
X143428571Y-103554819D01*
X143428571Y-103554819D02*
X143333333Y-103697676D01*
X143333333Y-103697676D02*
X143238095Y-103792914D01*
X143238095Y-103792914D02*
X143142857Y-103840533D01*
X146859580Y-93742857D02*
X146907200Y-93790476D01*
X146907200Y-93790476D02*
X146954819Y-93933333D01*
X146954819Y-93933333D02*
X146954819Y-94028571D01*
X146954819Y-94028571D02*
X146907200Y-94171428D01*
X146907200Y-94171428D02*
X146811961Y-94266666D01*
X146811961Y-94266666D02*
X146716723Y-94314285D01*
X146716723Y-94314285D02*
X146526247Y-94361904D01*
X146526247Y-94361904D02*
X146383390Y-94361904D01*
X146383390Y-94361904D02*
X146192914Y-94314285D01*
X146192914Y-94314285D02*
X146097676Y-94266666D01*
X146097676Y-94266666D02*
X146002438Y-94171428D01*
X146002438Y-94171428D02*
X145954819Y-94028571D01*
X145954819Y-94028571D02*
X145954819Y-93933333D01*
X145954819Y-93933333D02*
X146002438Y-93790476D01*
X146002438Y-93790476D02*
X146050057Y-93742857D01*
X146954819Y-92790476D02*
X146954819Y-93361904D01*
X146954819Y-93076190D02*
X145954819Y-93076190D01*
X145954819Y-93076190D02*
X146097676Y-93171428D01*
X146097676Y-93171428D02*
X146192914Y-93266666D01*
X146192914Y-93266666D02*
X146240533Y-93361904D01*
X145954819Y-91933333D02*
X145954819Y-92123809D01*
X145954819Y-92123809D02*
X146002438Y-92219047D01*
X146002438Y-92219047D02*
X146050057Y-92266666D01*
X146050057Y-92266666D02*
X146192914Y-92361904D01*
X146192914Y-92361904D02*
X146383390Y-92409523D01*
X146383390Y-92409523D02*
X146764342Y-92409523D01*
X146764342Y-92409523D02*
X146859580Y-92361904D01*
X146859580Y-92361904D02*
X146907200Y-92314285D01*
X146907200Y-92314285D02*
X146954819Y-92219047D01*
X146954819Y-92219047D02*
X146954819Y-92028571D01*
X146954819Y-92028571D02*
X146907200Y-91933333D01*
X146907200Y-91933333D02*
X146859580Y-91885714D01*
X146859580Y-91885714D02*
X146764342Y-91838095D01*
X146764342Y-91838095D02*
X146526247Y-91838095D01*
X146526247Y-91838095D02*
X146431009Y-91885714D01*
X146431009Y-91885714D02*
X146383390Y-91933333D01*
X146383390Y-91933333D02*
X146335771Y-92028571D01*
X146335771Y-92028571D02*
X146335771Y-92219047D01*
X146335771Y-92219047D02*
X146383390Y-92314285D01*
X146383390Y-92314285D02*
X146431009Y-92361904D01*
X146431009Y-92361904D02*
X146526247Y-92409523D01*
X150359580Y-100742857D02*
X150407200Y-100790476D01*
X150407200Y-100790476D02*
X150454819Y-100933333D01*
X150454819Y-100933333D02*
X150454819Y-101028571D01*
X150454819Y-101028571D02*
X150407200Y-101171428D01*
X150407200Y-101171428D02*
X150311961Y-101266666D01*
X150311961Y-101266666D02*
X150216723Y-101314285D01*
X150216723Y-101314285D02*
X150026247Y-101361904D01*
X150026247Y-101361904D02*
X149883390Y-101361904D01*
X149883390Y-101361904D02*
X149692914Y-101314285D01*
X149692914Y-101314285D02*
X149597676Y-101266666D01*
X149597676Y-101266666D02*
X149502438Y-101171428D01*
X149502438Y-101171428D02*
X149454819Y-101028571D01*
X149454819Y-101028571D02*
X149454819Y-100933333D01*
X149454819Y-100933333D02*
X149502438Y-100790476D01*
X149502438Y-100790476D02*
X149550057Y-100742857D01*
X149550057Y-100361904D02*
X149502438Y-100314285D01*
X149502438Y-100314285D02*
X149454819Y-100219047D01*
X149454819Y-100219047D02*
X149454819Y-99980952D01*
X149454819Y-99980952D02*
X149502438Y-99885714D01*
X149502438Y-99885714D02*
X149550057Y-99838095D01*
X149550057Y-99838095D02*
X149645295Y-99790476D01*
X149645295Y-99790476D02*
X149740533Y-99790476D01*
X149740533Y-99790476D02*
X149883390Y-99838095D01*
X149883390Y-99838095D02*
X150454819Y-100409523D01*
X150454819Y-100409523D02*
X150454819Y-99790476D01*
X149454819Y-99457142D02*
X149454819Y-98838095D01*
X149454819Y-98838095D02*
X149835771Y-99171428D01*
X149835771Y-99171428D02*
X149835771Y-99028571D01*
X149835771Y-99028571D02*
X149883390Y-98933333D01*
X149883390Y-98933333D02*
X149931009Y-98885714D01*
X149931009Y-98885714D02*
X150026247Y-98838095D01*
X150026247Y-98838095D02*
X150264342Y-98838095D01*
X150264342Y-98838095D02*
X150359580Y-98885714D01*
X150359580Y-98885714D02*
X150407200Y-98933333D01*
X150407200Y-98933333D02*
X150454819Y-99028571D01*
X150454819Y-99028571D02*
X150454819Y-99314285D01*
X150454819Y-99314285D02*
X150407200Y-99409523D01*
X150407200Y-99409523D02*
X150359580Y-99457142D01*
X141359580Y-101742857D02*
X141407200Y-101790476D01*
X141407200Y-101790476D02*
X141454819Y-101933333D01*
X141454819Y-101933333D02*
X141454819Y-102028571D01*
X141454819Y-102028571D02*
X141407200Y-102171428D01*
X141407200Y-102171428D02*
X141311961Y-102266666D01*
X141311961Y-102266666D02*
X141216723Y-102314285D01*
X141216723Y-102314285D02*
X141026247Y-102361904D01*
X141026247Y-102361904D02*
X140883390Y-102361904D01*
X140883390Y-102361904D02*
X140692914Y-102314285D01*
X140692914Y-102314285D02*
X140597676Y-102266666D01*
X140597676Y-102266666D02*
X140502438Y-102171428D01*
X140502438Y-102171428D02*
X140454819Y-102028571D01*
X140454819Y-102028571D02*
X140454819Y-101933333D01*
X140454819Y-101933333D02*
X140502438Y-101790476D01*
X140502438Y-101790476D02*
X140550057Y-101742857D01*
X140550057Y-101361904D02*
X140502438Y-101314285D01*
X140502438Y-101314285D02*
X140454819Y-101219047D01*
X140454819Y-101219047D02*
X140454819Y-100980952D01*
X140454819Y-100980952D02*
X140502438Y-100885714D01*
X140502438Y-100885714D02*
X140550057Y-100838095D01*
X140550057Y-100838095D02*
X140645295Y-100790476D01*
X140645295Y-100790476D02*
X140740533Y-100790476D01*
X140740533Y-100790476D02*
X140883390Y-100838095D01*
X140883390Y-100838095D02*
X141454819Y-101409523D01*
X141454819Y-101409523D02*
X141454819Y-100790476D01*
X140788152Y-99933333D02*
X141454819Y-99933333D01*
X140407200Y-100171428D02*
X141121485Y-100409523D01*
X141121485Y-100409523D02*
X141121485Y-99790476D01*
X154359580Y-96766666D02*
X154407200Y-96814285D01*
X154407200Y-96814285D02*
X154454819Y-96957142D01*
X154454819Y-96957142D02*
X154454819Y-97052380D01*
X154454819Y-97052380D02*
X154407200Y-97195237D01*
X154407200Y-97195237D02*
X154311961Y-97290475D01*
X154311961Y-97290475D02*
X154216723Y-97338094D01*
X154216723Y-97338094D02*
X154026247Y-97385713D01*
X154026247Y-97385713D02*
X153883390Y-97385713D01*
X153883390Y-97385713D02*
X153692914Y-97338094D01*
X153692914Y-97338094D02*
X153597676Y-97290475D01*
X153597676Y-97290475D02*
X153502438Y-97195237D01*
X153502438Y-97195237D02*
X153454819Y-97052380D01*
X153454819Y-97052380D02*
X153454819Y-96957142D01*
X153454819Y-96957142D02*
X153502438Y-96814285D01*
X153502438Y-96814285D02*
X153550057Y-96766666D01*
X154454819Y-96290475D02*
X154454819Y-96099999D01*
X154454819Y-96099999D02*
X154407200Y-96004761D01*
X154407200Y-96004761D02*
X154359580Y-95957142D01*
X154359580Y-95957142D02*
X154216723Y-95861904D01*
X154216723Y-95861904D02*
X154026247Y-95814285D01*
X154026247Y-95814285D02*
X153645295Y-95814285D01*
X153645295Y-95814285D02*
X153550057Y-95861904D01*
X153550057Y-95861904D02*
X153502438Y-95909523D01*
X153502438Y-95909523D02*
X153454819Y-96004761D01*
X153454819Y-96004761D02*
X153454819Y-96195237D01*
X153454819Y-96195237D02*
X153502438Y-96290475D01*
X153502438Y-96290475D02*
X153550057Y-96338094D01*
X153550057Y-96338094D02*
X153645295Y-96385713D01*
X153645295Y-96385713D02*
X153883390Y-96385713D01*
X153883390Y-96385713D02*
X153978628Y-96338094D01*
X153978628Y-96338094D02*
X154026247Y-96290475D01*
X154026247Y-96290475D02*
X154073866Y-96195237D01*
X154073866Y-96195237D02*
X154073866Y-96004761D01*
X154073866Y-96004761D02*
X154026247Y-95909523D01*
X154026247Y-95909523D02*
X153978628Y-95861904D01*
X153978628Y-95861904D02*
X153883390Y-95814285D01*
X144859580Y-115992857D02*
X144907200Y-116040476D01*
X144907200Y-116040476D02*
X144954819Y-116183333D01*
X144954819Y-116183333D02*
X144954819Y-116278571D01*
X144954819Y-116278571D02*
X144907200Y-116421428D01*
X144907200Y-116421428D02*
X144811961Y-116516666D01*
X144811961Y-116516666D02*
X144716723Y-116564285D01*
X144716723Y-116564285D02*
X144526247Y-116611904D01*
X144526247Y-116611904D02*
X144383390Y-116611904D01*
X144383390Y-116611904D02*
X144192914Y-116564285D01*
X144192914Y-116564285D02*
X144097676Y-116516666D01*
X144097676Y-116516666D02*
X144002438Y-116421428D01*
X144002438Y-116421428D02*
X143954819Y-116278571D01*
X143954819Y-116278571D02*
X143954819Y-116183333D01*
X143954819Y-116183333D02*
X144002438Y-116040476D01*
X144002438Y-116040476D02*
X144050057Y-115992857D01*
X144050057Y-115611904D02*
X144002438Y-115564285D01*
X144002438Y-115564285D02*
X143954819Y-115469047D01*
X143954819Y-115469047D02*
X143954819Y-115230952D01*
X143954819Y-115230952D02*
X144002438Y-115135714D01*
X144002438Y-115135714D02*
X144050057Y-115088095D01*
X144050057Y-115088095D02*
X144145295Y-115040476D01*
X144145295Y-115040476D02*
X144240533Y-115040476D01*
X144240533Y-115040476D02*
X144383390Y-115088095D01*
X144383390Y-115088095D02*
X144954819Y-115659523D01*
X144954819Y-115659523D02*
X144954819Y-115040476D01*
X143954819Y-114183333D02*
X143954819Y-114373809D01*
X143954819Y-114373809D02*
X144002438Y-114469047D01*
X144002438Y-114469047D02*
X144050057Y-114516666D01*
X144050057Y-114516666D02*
X144192914Y-114611904D01*
X144192914Y-114611904D02*
X144383390Y-114659523D01*
X144383390Y-114659523D02*
X144764342Y-114659523D01*
X144764342Y-114659523D02*
X144859580Y-114611904D01*
X144859580Y-114611904D02*
X144907200Y-114564285D01*
X144907200Y-114564285D02*
X144954819Y-114469047D01*
X144954819Y-114469047D02*
X144954819Y-114278571D01*
X144954819Y-114278571D02*
X144907200Y-114183333D01*
X144907200Y-114183333D02*
X144859580Y-114135714D01*
X144859580Y-114135714D02*
X144764342Y-114088095D01*
X144764342Y-114088095D02*
X144526247Y-114088095D01*
X144526247Y-114088095D02*
X144431009Y-114135714D01*
X144431009Y-114135714D02*
X144383390Y-114183333D01*
X144383390Y-114183333D02*
X144335771Y-114278571D01*
X144335771Y-114278571D02*
X144335771Y-114469047D01*
X144335771Y-114469047D02*
X144383390Y-114564285D01*
X144383390Y-114564285D02*
X144431009Y-114611904D01*
X144431009Y-114611904D02*
X144526247Y-114659523D01*
X167454819Y-115766666D02*
X166978628Y-116099999D01*
X167454819Y-116338094D02*
X166454819Y-116338094D01*
X166454819Y-116338094D02*
X166454819Y-115957142D01*
X166454819Y-115957142D02*
X166502438Y-115861904D01*
X166502438Y-115861904D02*
X166550057Y-115814285D01*
X166550057Y-115814285D02*
X166645295Y-115766666D01*
X166645295Y-115766666D02*
X166788152Y-115766666D01*
X166788152Y-115766666D02*
X166883390Y-115814285D01*
X166883390Y-115814285D02*
X166931009Y-115861904D01*
X166931009Y-115861904D02*
X166978628Y-115957142D01*
X166978628Y-115957142D02*
X166978628Y-116338094D01*
X166883390Y-115195237D02*
X166835771Y-115290475D01*
X166835771Y-115290475D02*
X166788152Y-115338094D01*
X166788152Y-115338094D02*
X166692914Y-115385713D01*
X166692914Y-115385713D02*
X166645295Y-115385713D01*
X166645295Y-115385713D02*
X166550057Y-115338094D01*
X166550057Y-115338094D02*
X166502438Y-115290475D01*
X166502438Y-115290475D02*
X166454819Y-115195237D01*
X166454819Y-115195237D02*
X166454819Y-115004761D01*
X166454819Y-115004761D02*
X166502438Y-114909523D01*
X166502438Y-114909523D02*
X166550057Y-114861904D01*
X166550057Y-114861904D02*
X166645295Y-114814285D01*
X166645295Y-114814285D02*
X166692914Y-114814285D01*
X166692914Y-114814285D02*
X166788152Y-114861904D01*
X166788152Y-114861904D02*
X166835771Y-114909523D01*
X166835771Y-114909523D02*
X166883390Y-115004761D01*
X166883390Y-115004761D02*
X166883390Y-115195237D01*
X166883390Y-115195237D02*
X166931009Y-115290475D01*
X166931009Y-115290475D02*
X166978628Y-115338094D01*
X166978628Y-115338094D02*
X167073866Y-115385713D01*
X167073866Y-115385713D02*
X167264342Y-115385713D01*
X167264342Y-115385713D02*
X167359580Y-115338094D01*
X167359580Y-115338094D02*
X167407200Y-115290475D01*
X167407200Y-115290475D02*
X167454819Y-115195237D01*
X167454819Y-115195237D02*
X167454819Y-115004761D01*
X167454819Y-115004761D02*
X167407200Y-114909523D01*
X167407200Y-114909523D02*
X167359580Y-114861904D01*
X167359580Y-114861904D02*
X167264342Y-114814285D01*
X167264342Y-114814285D02*
X167073866Y-114814285D01*
X167073866Y-114814285D02*
X166978628Y-114861904D01*
X166978628Y-114861904D02*
X166931009Y-114909523D01*
X166931009Y-114909523D02*
X166883390Y-115004761D01*
X143704819Y-116016666D02*
X143228628Y-116349999D01*
X143704819Y-116588094D02*
X142704819Y-116588094D01*
X142704819Y-116588094D02*
X142704819Y-116207142D01*
X142704819Y-116207142D02*
X142752438Y-116111904D01*
X142752438Y-116111904D02*
X142800057Y-116064285D01*
X142800057Y-116064285D02*
X142895295Y-116016666D01*
X142895295Y-116016666D02*
X143038152Y-116016666D01*
X143038152Y-116016666D02*
X143133390Y-116064285D01*
X143133390Y-116064285D02*
X143181009Y-116111904D01*
X143181009Y-116111904D02*
X143228628Y-116207142D01*
X143228628Y-116207142D02*
X143228628Y-116588094D01*
X142704819Y-115683332D02*
X142704819Y-115016666D01*
X142704819Y-115016666D02*
X143704819Y-115445237D01*
X163861319Y-69655166D02*
X163385128Y-69988499D01*
X163861319Y-70226594D02*
X162861319Y-70226594D01*
X162861319Y-70226594D02*
X162861319Y-69845642D01*
X162861319Y-69845642D02*
X162908938Y-69750404D01*
X162908938Y-69750404D02*
X162956557Y-69702785D01*
X162956557Y-69702785D02*
X163051795Y-69655166D01*
X163051795Y-69655166D02*
X163194652Y-69655166D01*
X163194652Y-69655166D02*
X163289890Y-69702785D01*
X163289890Y-69702785D02*
X163337509Y-69750404D01*
X163337509Y-69750404D02*
X163385128Y-69845642D01*
X163385128Y-69845642D02*
X163385128Y-70226594D01*
X162861319Y-68798023D02*
X162861319Y-68988499D01*
X162861319Y-68988499D02*
X162908938Y-69083737D01*
X162908938Y-69083737D02*
X162956557Y-69131356D01*
X162956557Y-69131356D02*
X163099414Y-69226594D01*
X163099414Y-69226594D02*
X163289890Y-69274213D01*
X163289890Y-69274213D02*
X163670842Y-69274213D01*
X163670842Y-69274213D02*
X163766080Y-69226594D01*
X163766080Y-69226594D02*
X163813700Y-69178975D01*
X163813700Y-69178975D02*
X163861319Y-69083737D01*
X163861319Y-69083737D02*
X163861319Y-68893261D01*
X163861319Y-68893261D02*
X163813700Y-68798023D01*
X163813700Y-68798023D02*
X163766080Y-68750404D01*
X163766080Y-68750404D02*
X163670842Y-68702785D01*
X163670842Y-68702785D02*
X163432747Y-68702785D01*
X163432747Y-68702785D02*
X163337509Y-68750404D01*
X163337509Y-68750404D02*
X163289890Y-68798023D01*
X163289890Y-68798023D02*
X163242271Y-68893261D01*
X163242271Y-68893261D02*
X163242271Y-69083737D01*
X163242271Y-69083737D02*
X163289890Y-69178975D01*
X163289890Y-69178975D02*
X163337509Y-69226594D01*
X163337509Y-69226594D02*
X163432747Y-69274213D01*
X169861319Y-69655166D02*
X169385128Y-69988499D01*
X169861319Y-70226594D02*
X168861319Y-70226594D01*
X168861319Y-70226594D02*
X168861319Y-69845642D01*
X168861319Y-69845642D02*
X168908938Y-69750404D01*
X168908938Y-69750404D02*
X168956557Y-69702785D01*
X168956557Y-69702785D02*
X169051795Y-69655166D01*
X169051795Y-69655166D02*
X169194652Y-69655166D01*
X169194652Y-69655166D02*
X169289890Y-69702785D01*
X169289890Y-69702785D02*
X169337509Y-69750404D01*
X169337509Y-69750404D02*
X169385128Y-69845642D01*
X169385128Y-69845642D02*
X169385128Y-70226594D01*
X169194652Y-68798023D02*
X169861319Y-68798023D01*
X168813700Y-69036118D02*
X169527985Y-69274213D01*
X169527985Y-69274213D02*
X169527985Y-68655166D01*
X139454819Y-80266666D02*
X138978628Y-80599999D01*
X139454819Y-80838094D02*
X138454819Y-80838094D01*
X138454819Y-80838094D02*
X138454819Y-80457142D01*
X138454819Y-80457142D02*
X138502438Y-80361904D01*
X138502438Y-80361904D02*
X138550057Y-80314285D01*
X138550057Y-80314285D02*
X138645295Y-80266666D01*
X138645295Y-80266666D02*
X138788152Y-80266666D01*
X138788152Y-80266666D02*
X138883390Y-80314285D01*
X138883390Y-80314285D02*
X138931009Y-80361904D01*
X138931009Y-80361904D02*
X138978628Y-80457142D01*
X138978628Y-80457142D02*
X138978628Y-80838094D01*
X138550057Y-79885713D02*
X138502438Y-79838094D01*
X138502438Y-79838094D02*
X138454819Y-79742856D01*
X138454819Y-79742856D02*
X138454819Y-79504761D01*
X138454819Y-79504761D02*
X138502438Y-79409523D01*
X138502438Y-79409523D02*
X138550057Y-79361904D01*
X138550057Y-79361904D02*
X138645295Y-79314285D01*
X138645295Y-79314285D02*
X138740533Y-79314285D01*
X138740533Y-79314285D02*
X138883390Y-79361904D01*
X138883390Y-79361904D02*
X139454819Y-79933332D01*
X139454819Y-79933332D02*
X139454819Y-79314285D01*
X159311261Y-76038557D02*
X159216023Y-75990938D01*
X159216023Y-75990938D02*
X159120785Y-75895700D01*
X159120785Y-75895700D02*
X158977928Y-75752842D01*
X158977928Y-75752842D02*
X158882690Y-75705223D01*
X158882690Y-75705223D02*
X158787452Y-75705223D01*
X158835071Y-75943319D02*
X158739833Y-75895700D01*
X158739833Y-75895700D02*
X158644595Y-75800461D01*
X158644595Y-75800461D02*
X158596976Y-75609985D01*
X158596976Y-75609985D02*
X158596976Y-75276652D01*
X158596976Y-75276652D02*
X158644595Y-75086176D01*
X158644595Y-75086176D02*
X158739833Y-74990938D01*
X158739833Y-74990938D02*
X158835071Y-74943319D01*
X158835071Y-74943319D02*
X159025547Y-74943319D01*
X159025547Y-74943319D02*
X159120785Y-74990938D01*
X159120785Y-74990938D02*
X159216023Y-75086176D01*
X159216023Y-75086176D02*
X159263642Y-75276652D01*
X159263642Y-75276652D02*
X159263642Y-75609985D01*
X159263642Y-75609985D02*
X159216023Y-75800461D01*
X159216023Y-75800461D02*
X159120785Y-75895700D01*
X159120785Y-75895700D02*
X159025547Y-75943319D01*
X159025547Y-75943319D02*
X158835071Y-75943319D01*
X159644595Y-75038557D02*
X159692214Y-74990938D01*
X159692214Y-74990938D02*
X159787452Y-74943319D01*
X159787452Y-74943319D02*
X160025547Y-74943319D01*
X160025547Y-74943319D02*
X160120785Y-74990938D01*
X160120785Y-74990938D02*
X160168404Y-75038557D01*
X160168404Y-75038557D02*
X160216023Y-75133795D01*
X160216023Y-75133795D02*
X160216023Y-75229033D01*
X160216023Y-75229033D02*
X160168404Y-75371890D01*
X160168404Y-75371890D02*
X159596976Y-75943319D01*
X159596976Y-75943319D02*
X160216023Y-75943319D01*
X165311261Y-76038557D02*
X165216023Y-75990938D01*
X165216023Y-75990938D02*
X165120785Y-75895700D01*
X165120785Y-75895700D02*
X164977928Y-75752842D01*
X164977928Y-75752842D02*
X164882690Y-75705223D01*
X164882690Y-75705223D02*
X164787452Y-75705223D01*
X164835071Y-75943319D02*
X164739833Y-75895700D01*
X164739833Y-75895700D02*
X164644595Y-75800461D01*
X164644595Y-75800461D02*
X164596976Y-75609985D01*
X164596976Y-75609985D02*
X164596976Y-75276652D01*
X164596976Y-75276652D02*
X164644595Y-75086176D01*
X164644595Y-75086176D02*
X164739833Y-74990938D01*
X164739833Y-74990938D02*
X164835071Y-74943319D01*
X164835071Y-74943319D02*
X165025547Y-74943319D01*
X165025547Y-74943319D02*
X165120785Y-74990938D01*
X165120785Y-74990938D02*
X165216023Y-75086176D01*
X165216023Y-75086176D02*
X165263642Y-75276652D01*
X165263642Y-75276652D02*
X165263642Y-75609985D01*
X165263642Y-75609985D02*
X165216023Y-75800461D01*
X165216023Y-75800461D02*
X165120785Y-75895700D01*
X165120785Y-75895700D02*
X165025547Y-75943319D01*
X165025547Y-75943319D02*
X164835071Y-75943319D01*
X166216023Y-75943319D02*
X165644595Y-75943319D01*
X165930309Y-75943319D02*
X165930309Y-74943319D01*
X165930309Y-74943319D02*
X165835071Y-75086176D01*
X165835071Y-75086176D02*
X165739833Y-75181414D01*
X165739833Y-75181414D02*
X165644595Y-75229033D01*
X154560543Y-108303754D02*
X154223825Y-107967037D01*
X154223825Y-107967037D02*
X154930932Y-107259930D01*
X155436009Y-107765006D02*
X155873741Y-108202739D01*
X155873741Y-108202739D02*
X155368665Y-108236411D01*
X155368665Y-108236411D02*
X155469680Y-108337426D01*
X155469680Y-108337426D02*
X155503352Y-108438441D01*
X155503352Y-108438441D02*
X155503352Y-108505785D01*
X155503352Y-108505785D02*
X155469680Y-108606800D01*
X155469680Y-108606800D02*
X155301322Y-108775159D01*
X155301322Y-108775159D02*
X155200306Y-108808831D01*
X155200306Y-108808831D02*
X155132963Y-108808831D01*
X155132963Y-108808831D02*
X155031948Y-108775159D01*
X155031948Y-108775159D02*
X154829917Y-108573128D01*
X154829917Y-108573128D02*
X154796245Y-108472113D01*
X154796245Y-108472113D02*
X154796245Y-108404770D01*
X136826666Y-83054819D02*
X136826666Y-83769104D01*
X136826666Y-83769104D02*
X136779047Y-83911961D01*
X136779047Y-83911961D02*
X136683809Y-84007200D01*
X136683809Y-84007200D02*
X136540952Y-84054819D01*
X136540952Y-84054819D02*
X136445714Y-84054819D01*
X137207619Y-83054819D02*
X137826666Y-83054819D01*
X137826666Y-83054819D02*
X137493333Y-83435771D01*
X137493333Y-83435771D02*
X137636190Y-83435771D01*
X137636190Y-83435771D02*
X137731428Y-83483390D01*
X137731428Y-83483390D02*
X137779047Y-83531009D01*
X137779047Y-83531009D02*
X137826666Y-83626247D01*
X137826666Y-83626247D02*
X137826666Y-83864342D01*
X137826666Y-83864342D02*
X137779047Y-83959580D01*
X137779047Y-83959580D02*
X137731428Y-84007200D01*
X137731428Y-84007200D02*
X137636190Y-84054819D01*
X137636190Y-84054819D02*
X137350476Y-84054819D01*
X137350476Y-84054819D02*
X137255238Y-84007200D01*
X137255238Y-84007200D02*
X137207619Y-83959580D01*
X162857142Y-118459580D02*
X162809523Y-118507200D01*
X162809523Y-118507200D02*
X162666666Y-118554819D01*
X162666666Y-118554819D02*
X162571428Y-118554819D01*
X162571428Y-118554819D02*
X162428571Y-118507200D01*
X162428571Y-118507200D02*
X162333333Y-118411961D01*
X162333333Y-118411961D02*
X162285714Y-118316723D01*
X162285714Y-118316723D02*
X162238095Y-118126247D01*
X162238095Y-118126247D02*
X162238095Y-117983390D01*
X162238095Y-117983390D02*
X162285714Y-117792914D01*
X162285714Y-117792914D02*
X162333333Y-117697676D01*
X162333333Y-117697676D02*
X162428571Y-117602438D01*
X162428571Y-117602438D02*
X162571428Y-117554819D01*
X162571428Y-117554819D02*
X162666666Y-117554819D01*
X162666666Y-117554819D02*
X162809523Y-117602438D01*
X162809523Y-117602438D02*
X162857142Y-117650057D01*
X163190476Y-117554819D02*
X163809523Y-117554819D01*
X163809523Y-117554819D02*
X163476190Y-117935771D01*
X163476190Y-117935771D02*
X163619047Y-117935771D01*
X163619047Y-117935771D02*
X163714285Y-117983390D01*
X163714285Y-117983390D02*
X163761904Y-118031009D01*
X163761904Y-118031009D02*
X163809523Y-118126247D01*
X163809523Y-118126247D02*
X163809523Y-118364342D01*
X163809523Y-118364342D02*
X163761904Y-118459580D01*
X163761904Y-118459580D02*
X163714285Y-118507200D01*
X163714285Y-118507200D02*
X163619047Y-118554819D01*
X163619047Y-118554819D02*
X163333333Y-118554819D01*
X163333333Y-118554819D02*
X163238095Y-118507200D01*
X163238095Y-118507200D02*
X163190476Y-118459580D01*
X164142857Y-117554819D02*
X164809523Y-117554819D01*
X164809523Y-117554819D02*
X164380952Y-118554819D01*
X164533580Y-115742857D02*
X164581200Y-115790476D01*
X164581200Y-115790476D02*
X164628819Y-115933333D01*
X164628819Y-115933333D02*
X164628819Y-116028571D01*
X164628819Y-116028571D02*
X164581200Y-116171428D01*
X164581200Y-116171428D02*
X164485961Y-116266666D01*
X164485961Y-116266666D02*
X164390723Y-116314285D01*
X164390723Y-116314285D02*
X164200247Y-116361904D01*
X164200247Y-116361904D02*
X164057390Y-116361904D01*
X164057390Y-116361904D02*
X163866914Y-116314285D01*
X163866914Y-116314285D02*
X163771676Y-116266666D01*
X163771676Y-116266666D02*
X163676438Y-116171428D01*
X163676438Y-116171428D02*
X163628819Y-116028571D01*
X163628819Y-116028571D02*
X163628819Y-115933333D01*
X163628819Y-115933333D02*
X163676438Y-115790476D01*
X163676438Y-115790476D02*
X163724057Y-115742857D01*
X163628819Y-115409523D02*
X163628819Y-114790476D01*
X163628819Y-114790476D02*
X164009771Y-115123809D01*
X164009771Y-115123809D02*
X164009771Y-114980952D01*
X164009771Y-114980952D02*
X164057390Y-114885714D01*
X164057390Y-114885714D02*
X164105009Y-114838095D01*
X164105009Y-114838095D02*
X164200247Y-114790476D01*
X164200247Y-114790476D02*
X164438342Y-114790476D01*
X164438342Y-114790476D02*
X164533580Y-114838095D01*
X164533580Y-114838095D02*
X164581200Y-114885714D01*
X164581200Y-114885714D02*
X164628819Y-114980952D01*
X164628819Y-114980952D02*
X164628819Y-115266666D01*
X164628819Y-115266666D02*
X164581200Y-115361904D01*
X164581200Y-115361904D02*
X164533580Y-115409523D01*
X163628819Y-113933333D02*
X163628819Y-114123809D01*
X163628819Y-114123809D02*
X163676438Y-114219047D01*
X163676438Y-114219047D02*
X163724057Y-114266666D01*
X163724057Y-114266666D02*
X163866914Y-114361904D01*
X163866914Y-114361904D02*
X164057390Y-114409523D01*
X164057390Y-114409523D02*
X164438342Y-114409523D01*
X164438342Y-114409523D02*
X164533580Y-114361904D01*
X164533580Y-114361904D02*
X164581200Y-114314285D01*
X164581200Y-114314285D02*
X164628819Y-114219047D01*
X164628819Y-114219047D02*
X164628819Y-114028571D01*
X164628819Y-114028571D02*
X164581200Y-113933333D01*
X164581200Y-113933333D02*
X164533580Y-113885714D01*
X164533580Y-113885714D02*
X164438342Y-113838095D01*
X164438342Y-113838095D02*
X164200247Y-113838095D01*
X164200247Y-113838095D02*
X164105009Y-113885714D01*
X164105009Y-113885714D02*
X164057390Y-113933333D01*
X164057390Y-113933333D02*
X164009771Y-114028571D01*
X164009771Y-114028571D02*
X164009771Y-114219047D01*
X164009771Y-114219047D02*
X164057390Y-114314285D01*
X164057390Y-114314285D02*
X164105009Y-114361904D01*
X164105009Y-114361904D02*
X164200247Y-114409523D01*
X159857142Y-112959580D02*
X159809523Y-113007200D01*
X159809523Y-113007200D02*
X159666666Y-113054819D01*
X159666666Y-113054819D02*
X159571428Y-113054819D01*
X159571428Y-113054819D02*
X159428571Y-113007200D01*
X159428571Y-113007200D02*
X159333333Y-112911961D01*
X159333333Y-112911961D02*
X159285714Y-112816723D01*
X159285714Y-112816723D02*
X159238095Y-112626247D01*
X159238095Y-112626247D02*
X159238095Y-112483390D01*
X159238095Y-112483390D02*
X159285714Y-112292914D01*
X159285714Y-112292914D02*
X159333333Y-112197676D01*
X159333333Y-112197676D02*
X159428571Y-112102438D01*
X159428571Y-112102438D02*
X159571428Y-112054819D01*
X159571428Y-112054819D02*
X159666666Y-112054819D01*
X159666666Y-112054819D02*
X159809523Y-112102438D01*
X159809523Y-112102438D02*
X159857142Y-112150057D01*
X160190476Y-112054819D02*
X160809523Y-112054819D01*
X160809523Y-112054819D02*
X160476190Y-112435771D01*
X160476190Y-112435771D02*
X160619047Y-112435771D01*
X160619047Y-112435771D02*
X160714285Y-112483390D01*
X160714285Y-112483390D02*
X160761904Y-112531009D01*
X160761904Y-112531009D02*
X160809523Y-112626247D01*
X160809523Y-112626247D02*
X160809523Y-112864342D01*
X160809523Y-112864342D02*
X160761904Y-112959580D01*
X160761904Y-112959580D02*
X160714285Y-113007200D01*
X160714285Y-113007200D02*
X160619047Y-113054819D01*
X160619047Y-113054819D02*
X160333333Y-113054819D01*
X160333333Y-113054819D02*
X160238095Y-113007200D01*
X160238095Y-113007200D02*
X160190476Y-112959580D01*
X161714285Y-112054819D02*
X161238095Y-112054819D01*
X161238095Y-112054819D02*
X161190476Y-112531009D01*
X161190476Y-112531009D02*
X161238095Y-112483390D01*
X161238095Y-112483390D02*
X161333333Y-112435771D01*
X161333333Y-112435771D02*
X161571428Y-112435771D01*
X161571428Y-112435771D02*
X161666666Y-112483390D01*
X161666666Y-112483390D02*
X161714285Y-112531009D01*
X161714285Y-112531009D02*
X161761904Y-112626247D01*
X161761904Y-112626247D02*
X161761904Y-112864342D01*
X161761904Y-112864342D02*
X161714285Y-112959580D01*
X161714285Y-112959580D02*
X161666666Y-113007200D01*
X161666666Y-113007200D02*
X161571428Y-113054819D01*
X161571428Y-113054819D02*
X161333333Y-113054819D01*
X161333333Y-113054819D02*
X161238095Y-113007200D01*
X161238095Y-113007200D02*
X161190476Y-112959580D01*
X166033580Y-115742857D02*
X166081200Y-115790476D01*
X166081200Y-115790476D02*
X166128819Y-115933333D01*
X166128819Y-115933333D02*
X166128819Y-116028571D01*
X166128819Y-116028571D02*
X166081200Y-116171428D01*
X166081200Y-116171428D02*
X165985961Y-116266666D01*
X165985961Y-116266666D02*
X165890723Y-116314285D01*
X165890723Y-116314285D02*
X165700247Y-116361904D01*
X165700247Y-116361904D02*
X165557390Y-116361904D01*
X165557390Y-116361904D02*
X165366914Y-116314285D01*
X165366914Y-116314285D02*
X165271676Y-116266666D01*
X165271676Y-116266666D02*
X165176438Y-116171428D01*
X165176438Y-116171428D02*
X165128819Y-116028571D01*
X165128819Y-116028571D02*
X165128819Y-115933333D01*
X165128819Y-115933333D02*
X165176438Y-115790476D01*
X165176438Y-115790476D02*
X165224057Y-115742857D01*
X165128819Y-115409523D02*
X165128819Y-114790476D01*
X165128819Y-114790476D02*
X165509771Y-115123809D01*
X165509771Y-115123809D02*
X165509771Y-114980952D01*
X165509771Y-114980952D02*
X165557390Y-114885714D01*
X165557390Y-114885714D02*
X165605009Y-114838095D01*
X165605009Y-114838095D02*
X165700247Y-114790476D01*
X165700247Y-114790476D02*
X165938342Y-114790476D01*
X165938342Y-114790476D02*
X166033580Y-114838095D01*
X166033580Y-114838095D02*
X166081200Y-114885714D01*
X166081200Y-114885714D02*
X166128819Y-114980952D01*
X166128819Y-114980952D02*
X166128819Y-115266666D01*
X166128819Y-115266666D02*
X166081200Y-115361904D01*
X166081200Y-115361904D02*
X166033580Y-115409523D01*
X165462152Y-113933333D02*
X166128819Y-113933333D01*
X165081200Y-114171428D02*
X165795485Y-114409523D01*
X165795485Y-114409523D02*
X165795485Y-113790476D01*
X159857142Y-111459580D02*
X159809523Y-111507200D01*
X159809523Y-111507200D02*
X159666666Y-111554819D01*
X159666666Y-111554819D02*
X159571428Y-111554819D01*
X159571428Y-111554819D02*
X159428571Y-111507200D01*
X159428571Y-111507200D02*
X159333333Y-111411961D01*
X159333333Y-111411961D02*
X159285714Y-111316723D01*
X159285714Y-111316723D02*
X159238095Y-111126247D01*
X159238095Y-111126247D02*
X159238095Y-110983390D01*
X159238095Y-110983390D02*
X159285714Y-110792914D01*
X159285714Y-110792914D02*
X159333333Y-110697676D01*
X159333333Y-110697676D02*
X159428571Y-110602438D01*
X159428571Y-110602438D02*
X159571428Y-110554819D01*
X159571428Y-110554819D02*
X159666666Y-110554819D01*
X159666666Y-110554819D02*
X159809523Y-110602438D01*
X159809523Y-110602438D02*
X159857142Y-110650057D01*
X160190476Y-110554819D02*
X160809523Y-110554819D01*
X160809523Y-110554819D02*
X160476190Y-110935771D01*
X160476190Y-110935771D02*
X160619047Y-110935771D01*
X160619047Y-110935771D02*
X160714285Y-110983390D01*
X160714285Y-110983390D02*
X160761904Y-111031009D01*
X160761904Y-111031009D02*
X160809523Y-111126247D01*
X160809523Y-111126247D02*
X160809523Y-111364342D01*
X160809523Y-111364342D02*
X160761904Y-111459580D01*
X160761904Y-111459580D02*
X160714285Y-111507200D01*
X160714285Y-111507200D02*
X160619047Y-111554819D01*
X160619047Y-111554819D02*
X160333333Y-111554819D01*
X160333333Y-111554819D02*
X160238095Y-111507200D01*
X160238095Y-111507200D02*
X160190476Y-111459580D01*
X161142857Y-110554819D02*
X161761904Y-110554819D01*
X161761904Y-110554819D02*
X161428571Y-110935771D01*
X161428571Y-110935771D02*
X161571428Y-110935771D01*
X161571428Y-110935771D02*
X161666666Y-110983390D01*
X161666666Y-110983390D02*
X161714285Y-111031009D01*
X161714285Y-111031009D02*
X161761904Y-111126247D01*
X161761904Y-111126247D02*
X161761904Y-111364342D01*
X161761904Y-111364342D02*
X161714285Y-111459580D01*
X161714285Y-111459580D02*
X161666666Y-111507200D01*
X161666666Y-111507200D02*
X161571428Y-111554819D01*
X161571428Y-111554819D02*
X161285714Y-111554819D01*
X161285714Y-111554819D02*
X161190476Y-111507200D01*
X161190476Y-111507200D02*
X161142857Y-111459580D01*
X145359580Y-93742857D02*
X145407200Y-93790476D01*
X145407200Y-93790476D02*
X145454819Y-93933333D01*
X145454819Y-93933333D02*
X145454819Y-94028571D01*
X145454819Y-94028571D02*
X145407200Y-94171428D01*
X145407200Y-94171428D02*
X145311961Y-94266666D01*
X145311961Y-94266666D02*
X145216723Y-94314285D01*
X145216723Y-94314285D02*
X145026247Y-94361904D01*
X145026247Y-94361904D02*
X144883390Y-94361904D01*
X144883390Y-94361904D02*
X144692914Y-94314285D01*
X144692914Y-94314285D02*
X144597676Y-94266666D01*
X144597676Y-94266666D02*
X144502438Y-94171428D01*
X144502438Y-94171428D02*
X144454819Y-94028571D01*
X144454819Y-94028571D02*
X144454819Y-93933333D01*
X144454819Y-93933333D02*
X144502438Y-93790476D01*
X144502438Y-93790476D02*
X144550057Y-93742857D01*
X145454819Y-92790476D02*
X145454819Y-93361904D01*
X145454819Y-93076190D02*
X144454819Y-93076190D01*
X144454819Y-93076190D02*
X144597676Y-93171428D01*
X144597676Y-93171428D02*
X144692914Y-93266666D01*
X144692914Y-93266666D02*
X144740533Y-93361904D01*
X144454819Y-92457142D02*
X144454819Y-91790476D01*
X144454819Y-91790476D02*
X145454819Y-92219047D01*
X152859580Y-96766666D02*
X152907200Y-96814285D01*
X152907200Y-96814285D02*
X152954819Y-96957142D01*
X152954819Y-96957142D02*
X152954819Y-97052380D01*
X152954819Y-97052380D02*
X152907200Y-97195237D01*
X152907200Y-97195237D02*
X152811961Y-97290475D01*
X152811961Y-97290475D02*
X152716723Y-97338094D01*
X152716723Y-97338094D02*
X152526247Y-97385713D01*
X152526247Y-97385713D02*
X152383390Y-97385713D01*
X152383390Y-97385713D02*
X152192914Y-97338094D01*
X152192914Y-97338094D02*
X152097676Y-97290475D01*
X152097676Y-97290475D02*
X152002438Y-97195237D01*
X152002438Y-97195237D02*
X151954819Y-97052380D01*
X151954819Y-97052380D02*
X151954819Y-96957142D01*
X151954819Y-96957142D02*
X152002438Y-96814285D01*
X152002438Y-96814285D02*
X152050057Y-96766666D01*
X152383390Y-96195237D02*
X152335771Y-96290475D01*
X152335771Y-96290475D02*
X152288152Y-96338094D01*
X152288152Y-96338094D02*
X152192914Y-96385713D01*
X152192914Y-96385713D02*
X152145295Y-96385713D01*
X152145295Y-96385713D02*
X152050057Y-96338094D01*
X152050057Y-96338094D02*
X152002438Y-96290475D01*
X152002438Y-96290475D02*
X151954819Y-96195237D01*
X151954819Y-96195237D02*
X151954819Y-96004761D01*
X151954819Y-96004761D02*
X152002438Y-95909523D01*
X152002438Y-95909523D02*
X152050057Y-95861904D01*
X152050057Y-95861904D02*
X152145295Y-95814285D01*
X152145295Y-95814285D02*
X152192914Y-95814285D01*
X152192914Y-95814285D02*
X152288152Y-95861904D01*
X152288152Y-95861904D02*
X152335771Y-95909523D01*
X152335771Y-95909523D02*
X152383390Y-96004761D01*
X152383390Y-96004761D02*
X152383390Y-96195237D01*
X152383390Y-96195237D02*
X152431009Y-96290475D01*
X152431009Y-96290475D02*
X152478628Y-96338094D01*
X152478628Y-96338094D02*
X152573866Y-96385713D01*
X152573866Y-96385713D02*
X152764342Y-96385713D01*
X152764342Y-96385713D02*
X152859580Y-96338094D01*
X152859580Y-96338094D02*
X152907200Y-96290475D01*
X152907200Y-96290475D02*
X152954819Y-96195237D01*
X152954819Y-96195237D02*
X152954819Y-96004761D01*
X152954819Y-96004761D02*
X152907200Y-95909523D01*
X152907200Y-95909523D02*
X152859580Y-95861904D01*
X152859580Y-95861904D02*
X152764342Y-95814285D01*
X152764342Y-95814285D02*
X152573866Y-95814285D01*
X152573866Y-95814285D02*
X152478628Y-95861904D01*
X152478628Y-95861904D02*
X152431009Y-95909523D01*
X152431009Y-95909523D02*
X152383390Y-96004761D01*
X158359580Y-95266666D02*
X158407200Y-95314285D01*
X158407200Y-95314285D02*
X158454819Y-95457142D01*
X158454819Y-95457142D02*
X158454819Y-95552380D01*
X158454819Y-95552380D02*
X158407200Y-95695237D01*
X158407200Y-95695237D02*
X158311961Y-95790475D01*
X158311961Y-95790475D02*
X158216723Y-95838094D01*
X158216723Y-95838094D02*
X158026247Y-95885713D01*
X158026247Y-95885713D02*
X157883390Y-95885713D01*
X157883390Y-95885713D02*
X157692914Y-95838094D01*
X157692914Y-95838094D02*
X157597676Y-95790475D01*
X157597676Y-95790475D02*
X157502438Y-95695237D01*
X157502438Y-95695237D02*
X157454819Y-95552380D01*
X157454819Y-95552380D02*
X157454819Y-95457142D01*
X157454819Y-95457142D02*
X157502438Y-95314285D01*
X157502438Y-95314285D02*
X157550057Y-95266666D01*
X157454819Y-94361904D02*
X157454819Y-94838094D01*
X157454819Y-94838094D02*
X157931009Y-94885713D01*
X157931009Y-94885713D02*
X157883390Y-94838094D01*
X157883390Y-94838094D02*
X157835771Y-94742856D01*
X157835771Y-94742856D02*
X157835771Y-94504761D01*
X157835771Y-94504761D02*
X157883390Y-94409523D01*
X157883390Y-94409523D02*
X157931009Y-94361904D01*
X157931009Y-94361904D02*
X158026247Y-94314285D01*
X158026247Y-94314285D02*
X158264342Y-94314285D01*
X158264342Y-94314285D02*
X158359580Y-94361904D01*
X158359580Y-94361904D02*
X158407200Y-94409523D01*
X158407200Y-94409523D02*
X158454819Y-94504761D01*
X158454819Y-94504761D02*
X158454819Y-94742856D01*
X158454819Y-94742856D02*
X158407200Y-94838094D01*
X158407200Y-94838094D02*
X158359580Y-94885713D01*
D10*
X151304762Y-62655704D02*
X151780952Y-62655704D01*
X151209524Y-62941419D02*
X151542857Y-61941419D01*
X151542857Y-61941419D02*
X151876190Y-62941419D01*
X152161905Y-62655704D02*
X152638095Y-62655704D01*
X152066667Y-62941419D02*
X152400000Y-61941419D01*
X152400000Y-61941419D02*
X152733333Y-62941419D01*
X153019048Y-62655704D02*
X153495238Y-62655704D01*
X152923810Y-62941419D02*
X153257143Y-61941419D01*
X153257143Y-61941419D02*
X153590476Y-62941419D01*
D13*
X160359580Y-82242857D02*
X160407200Y-82290476D01*
X160407200Y-82290476D02*
X160454819Y-82433333D01*
X160454819Y-82433333D02*
X160454819Y-82528571D01*
X160454819Y-82528571D02*
X160407200Y-82671428D01*
X160407200Y-82671428D02*
X160311961Y-82766666D01*
X160311961Y-82766666D02*
X160216723Y-82814285D01*
X160216723Y-82814285D02*
X160026247Y-82861904D01*
X160026247Y-82861904D02*
X159883390Y-82861904D01*
X159883390Y-82861904D02*
X159692914Y-82814285D01*
X159692914Y-82814285D02*
X159597676Y-82766666D01*
X159597676Y-82766666D02*
X159502438Y-82671428D01*
X159502438Y-82671428D02*
X159454819Y-82528571D01*
X159454819Y-82528571D02*
X159454819Y-82433333D01*
X159454819Y-82433333D02*
X159502438Y-82290476D01*
X159502438Y-82290476D02*
X159550057Y-82242857D01*
X159454819Y-81909523D02*
X159454819Y-81290476D01*
X159454819Y-81290476D02*
X159835771Y-81623809D01*
X159835771Y-81623809D02*
X159835771Y-81480952D01*
X159835771Y-81480952D02*
X159883390Y-81385714D01*
X159883390Y-81385714D02*
X159931009Y-81338095D01*
X159931009Y-81338095D02*
X160026247Y-81290476D01*
X160026247Y-81290476D02*
X160264342Y-81290476D01*
X160264342Y-81290476D02*
X160359580Y-81338095D01*
X160359580Y-81338095D02*
X160407200Y-81385714D01*
X160407200Y-81385714D02*
X160454819Y-81480952D01*
X160454819Y-81480952D02*
X160454819Y-81766666D01*
X160454819Y-81766666D02*
X160407200Y-81861904D01*
X160407200Y-81861904D02*
X160359580Y-81909523D01*
X159883390Y-80719047D02*
X159835771Y-80814285D01*
X159835771Y-80814285D02*
X159788152Y-80861904D01*
X159788152Y-80861904D02*
X159692914Y-80909523D01*
X159692914Y-80909523D02*
X159645295Y-80909523D01*
X159645295Y-80909523D02*
X159550057Y-80861904D01*
X159550057Y-80861904D02*
X159502438Y-80814285D01*
X159502438Y-80814285D02*
X159454819Y-80719047D01*
X159454819Y-80719047D02*
X159454819Y-80528571D01*
X159454819Y-80528571D02*
X159502438Y-80433333D01*
X159502438Y-80433333D02*
X159550057Y-80385714D01*
X159550057Y-80385714D02*
X159645295Y-80338095D01*
X159645295Y-80338095D02*
X159692914Y-80338095D01*
X159692914Y-80338095D02*
X159788152Y-80385714D01*
X159788152Y-80385714D02*
X159835771Y-80433333D01*
X159835771Y-80433333D02*
X159883390Y-80528571D01*
X159883390Y-80528571D02*
X159883390Y-80719047D01*
X159883390Y-80719047D02*
X159931009Y-80814285D01*
X159931009Y-80814285D02*
X159978628Y-80861904D01*
X159978628Y-80861904D02*
X160073866Y-80909523D01*
X160073866Y-80909523D02*
X160264342Y-80909523D01*
X160264342Y-80909523D02*
X160359580Y-80861904D01*
X160359580Y-80861904D02*
X160407200Y-80814285D01*
X160407200Y-80814285D02*
X160454819Y-80719047D01*
X160454819Y-80719047D02*
X160454819Y-80528571D01*
X160454819Y-80528571D02*
X160407200Y-80433333D01*
X160407200Y-80433333D02*
X160359580Y-80385714D01*
X160359580Y-80385714D02*
X160264342Y-80338095D01*
X160264342Y-80338095D02*
X160073866Y-80338095D01*
X160073866Y-80338095D02*
X159978628Y-80385714D01*
X159978628Y-80385714D02*
X159931009Y-80433333D01*
X159931009Y-80433333D02*
X159883390Y-80528571D01*
X156859580Y-93766666D02*
X156907200Y-93814285D01*
X156907200Y-93814285D02*
X156954819Y-93957142D01*
X156954819Y-93957142D02*
X156954819Y-94052380D01*
X156954819Y-94052380D02*
X156907200Y-94195237D01*
X156907200Y-94195237D02*
X156811961Y-94290475D01*
X156811961Y-94290475D02*
X156716723Y-94338094D01*
X156716723Y-94338094D02*
X156526247Y-94385713D01*
X156526247Y-94385713D02*
X156383390Y-94385713D01*
X156383390Y-94385713D02*
X156192914Y-94338094D01*
X156192914Y-94338094D02*
X156097676Y-94290475D01*
X156097676Y-94290475D02*
X156002438Y-94195237D01*
X156002438Y-94195237D02*
X155954819Y-94052380D01*
X155954819Y-94052380D02*
X155954819Y-93957142D01*
X155954819Y-93957142D02*
X156002438Y-93814285D01*
X156002438Y-93814285D02*
X156050057Y-93766666D01*
X155954819Y-92909523D02*
X155954819Y-93099999D01*
X155954819Y-93099999D02*
X156002438Y-93195237D01*
X156002438Y-93195237D02*
X156050057Y-93242856D01*
X156050057Y-93242856D02*
X156192914Y-93338094D01*
X156192914Y-93338094D02*
X156383390Y-93385713D01*
X156383390Y-93385713D02*
X156764342Y-93385713D01*
X156764342Y-93385713D02*
X156859580Y-93338094D01*
X156859580Y-93338094D02*
X156907200Y-93290475D01*
X156907200Y-93290475D02*
X156954819Y-93195237D01*
X156954819Y-93195237D02*
X156954819Y-93004761D01*
X156954819Y-93004761D02*
X156907200Y-92909523D01*
X156907200Y-92909523D02*
X156859580Y-92861904D01*
X156859580Y-92861904D02*
X156764342Y-92814285D01*
X156764342Y-92814285D02*
X156526247Y-92814285D01*
X156526247Y-92814285D02*
X156431009Y-92861904D01*
X156431009Y-92861904D02*
X156383390Y-92909523D01*
X156383390Y-92909523D02*
X156335771Y-93004761D01*
X156335771Y-93004761D02*
X156335771Y-93195237D01*
X156335771Y-93195237D02*
X156383390Y-93290475D01*
X156383390Y-93290475D02*
X156431009Y-93338094D01*
X156431009Y-93338094D02*
X156526247Y-93385713D01*
X167861319Y-69655166D02*
X167385128Y-69988499D01*
X167861319Y-70226594D02*
X166861319Y-70226594D01*
X166861319Y-70226594D02*
X166861319Y-69845642D01*
X166861319Y-69845642D02*
X166908938Y-69750404D01*
X166908938Y-69750404D02*
X166956557Y-69702785D01*
X166956557Y-69702785D02*
X167051795Y-69655166D01*
X167051795Y-69655166D02*
X167194652Y-69655166D01*
X167194652Y-69655166D02*
X167289890Y-69702785D01*
X167289890Y-69702785D02*
X167337509Y-69750404D01*
X167337509Y-69750404D02*
X167385128Y-69845642D01*
X167385128Y-69845642D02*
X167385128Y-70226594D01*
X166861319Y-69321832D02*
X166861319Y-68702785D01*
X166861319Y-68702785D02*
X167242271Y-69036118D01*
X167242271Y-69036118D02*
X167242271Y-68893261D01*
X167242271Y-68893261D02*
X167289890Y-68798023D01*
X167289890Y-68798023D02*
X167337509Y-68750404D01*
X167337509Y-68750404D02*
X167432747Y-68702785D01*
X167432747Y-68702785D02*
X167670842Y-68702785D01*
X167670842Y-68702785D02*
X167766080Y-68750404D01*
X167766080Y-68750404D02*
X167813700Y-68798023D01*
X167813700Y-68798023D02*
X167861319Y-68893261D01*
X167861319Y-68893261D02*
X167861319Y-69178975D01*
X167861319Y-69178975D02*
X167813700Y-69274213D01*
X167813700Y-69274213D02*
X167766080Y-69321832D01*
D10*
X129231866Y-57441419D02*
X129231866Y-58155704D01*
X129231866Y-58155704D02*
X129184247Y-58298561D01*
X129184247Y-58298561D02*
X129089009Y-58393800D01*
X129089009Y-58393800D02*
X128946152Y-58441419D01*
X128946152Y-58441419D02*
X128850914Y-58441419D01*
X130231866Y-58441419D02*
X129660438Y-58441419D01*
X129946152Y-58441419D02*
X129946152Y-57441419D01*
X129946152Y-57441419D02*
X129850914Y-57584276D01*
X129850914Y-57584276D02*
X129755676Y-57679514D01*
X129755676Y-57679514D02*
X129660438Y-57727133D01*
D13*
X123647580Y-73766666D02*
X123695200Y-73814285D01*
X123695200Y-73814285D02*
X123742819Y-73957142D01*
X123742819Y-73957142D02*
X123742819Y-74052380D01*
X123742819Y-74052380D02*
X123695200Y-74195237D01*
X123695200Y-74195237D02*
X123599961Y-74290475D01*
X123599961Y-74290475D02*
X123504723Y-74338094D01*
X123504723Y-74338094D02*
X123314247Y-74385713D01*
X123314247Y-74385713D02*
X123171390Y-74385713D01*
X123171390Y-74385713D02*
X122980914Y-74338094D01*
X122980914Y-74338094D02*
X122885676Y-74290475D01*
X122885676Y-74290475D02*
X122790438Y-74195237D01*
X122790438Y-74195237D02*
X122742819Y-74052380D01*
X122742819Y-74052380D02*
X122742819Y-73957142D01*
X122742819Y-73957142D02*
X122790438Y-73814285D01*
X122790438Y-73814285D02*
X122838057Y-73766666D01*
X123742819Y-72814285D02*
X123742819Y-73385713D01*
X123742819Y-73099999D02*
X122742819Y-73099999D01*
X122742819Y-73099999D02*
X122885676Y-73195237D01*
X122885676Y-73195237D02*
X122980914Y-73290475D01*
X122980914Y-73290475D02*
X123028533Y-73385713D01*
X131238095Y-77054819D02*
X131809523Y-77054819D01*
X131523809Y-78054819D02*
X131523809Y-77054819D01*
X132142857Y-78054819D02*
X132142857Y-77054819D01*
X132142857Y-77054819D02*
X132523809Y-77054819D01*
X132523809Y-77054819D02*
X132619047Y-77102438D01*
X132619047Y-77102438D02*
X132666666Y-77150057D01*
X132666666Y-77150057D02*
X132714285Y-77245295D01*
X132714285Y-77245295D02*
X132714285Y-77388152D01*
X132714285Y-77388152D02*
X132666666Y-77483390D01*
X132666666Y-77483390D02*
X132619047Y-77531009D01*
X132619047Y-77531009D02*
X132523809Y-77578628D01*
X132523809Y-77578628D02*
X132142857Y-77578628D01*
X133666666Y-78054819D02*
X133095238Y-78054819D01*
X133380952Y-78054819D02*
X133380952Y-77054819D01*
X133380952Y-77054819D02*
X133285714Y-77197676D01*
X133285714Y-77197676D02*
X133190476Y-77292914D01*
X133190476Y-77292914D02*
X133095238Y-77340533D01*
D10*
X175568133Y-67526580D02*
X175568133Y-66812295D01*
X175568133Y-66812295D02*
X175615752Y-66669438D01*
X175615752Y-66669438D02*
X175710990Y-66574200D01*
X175710990Y-66574200D02*
X175853847Y-66526580D01*
X175853847Y-66526580D02*
X175949085Y-66526580D01*
X175139561Y-67431342D02*
X175091942Y-67478961D01*
X175091942Y-67478961D02*
X174996704Y-67526580D01*
X174996704Y-67526580D02*
X174758609Y-67526580D01*
X174758609Y-67526580D02*
X174663371Y-67478961D01*
X174663371Y-67478961D02*
X174615752Y-67431342D01*
X174615752Y-67431342D02*
X174568133Y-67336104D01*
X174568133Y-67336104D02*
X174568133Y-67240866D01*
X174568133Y-67240866D02*
X174615752Y-67098009D01*
X174615752Y-67098009D02*
X175187180Y-66526580D01*
X175187180Y-66526580D02*
X174568133Y-66526580D01*
D13*
X149238095Y-70608819D02*
X149809523Y-70608819D01*
X149523809Y-71608819D02*
X149523809Y-70608819D01*
X150142857Y-71608819D02*
X150142857Y-70608819D01*
X150142857Y-70608819D02*
X150523809Y-70608819D01*
X150523809Y-70608819D02*
X150619047Y-70656438D01*
X150619047Y-70656438D02*
X150666666Y-70704057D01*
X150666666Y-70704057D02*
X150714285Y-70799295D01*
X150714285Y-70799295D02*
X150714285Y-70942152D01*
X150714285Y-70942152D02*
X150666666Y-71037390D01*
X150666666Y-71037390D02*
X150619047Y-71085009D01*
X150619047Y-71085009D02*
X150523809Y-71132628D01*
X150523809Y-71132628D02*
X150142857Y-71132628D01*
X151571428Y-70942152D02*
X151571428Y-71608819D01*
X151333333Y-70561200D02*
X151095238Y-71275485D01*
X151095238Y-71275485D02*
X151714285Y-71275485D01*
X126738095Y-76054819D02*
X126738095Y-76864342D01*
X126738095Y-76864342D02*
X126785714Y-76959580D01*
X126785714Y-76959580D02*
X126833333Y-77007200D01*
X126833333Y-77007200D02*
X126928571Y-77054819D01*
X126928571Y-77054819D02*
X127119047Y-77054819D01*
X127119047Y-77054819D02*
X127214285Y-77007200D01*
X127214285Y-77007200D02*
X127261904Y-76959580D01*
X127261904Y-76959580D02*
X127309523Y-76864342D01*
X127309523Y-76864342D02*
X127309523Y-76054819D01*
X128309523Y-77054819D02*
X127738095Y-77054819D01*
X128023809Y-77054819D02*
X128023809Y-76054819D01*
X128023809Y-76054819D02*
X127928571Y-76197676D01*
X127928571Y-76197676D02*
X127833333Y-76292914D01*
X127833333Y-76292914D02*
X127738095Y-76340533D01*
X161861319Y-69655166D02*
X161385128Y-69988499D01*
X161861319Y-70226594D02*
X160861319Y-70226594D01*
X160861319Y-70226594D02*
X160861319Y-69845642D01*
X160861319Y-69845642D02*
X160908938Y-69750404D01*
X160908938Y-69750404D02*
X160956557Y-69702785D01*
X160956557Y-69702785D02*
X161051795Y-69655166D01*
X161051795Y-69655166D02*
X161194652Y-69655166D01*
X161194652Y-69655166D02*
X161289890Y-69702785D01*
X161289890Y-69702785D02*
X161337509Y-69750404D01*
X161337509Y-69750404D02*
X161385128Y-69845642D01*
X161385128Y-69845642D02*
X161385128Y-70226594D01*
X160861319Y-68750404D02*
X160861319Y-69226594D01*
X160861319Y-69226594D02*
X161337509Y-69274213D01*
X161337509Y-69274213D02*
X161289890Y-69226594D01*
X161289890Y-69226594D02*
X161242271Y-69131356D01*
X161242271Y-69131356D02*
X161242271Y-68893261D01*
X161242271Y-68893261D02*
X161289890Y-68798023D01*
X161289890Y-68798023D02*
X161337509Y-68750404D01*
X161337509Y-68750404D02*
X161432747Y-68702785D01*
X161432747Y-68702785D02*
X161670842Y-68702785D01*
X161670842Y-68702785D02*
X161766080Y-68750404D01*
X161766080Y-68750404D02*
X161813700Y-68798023D01*
X161813700Y-68798023D02*
X161861319Y-68893261D01*
X161861319Y-68893261D02*
X161861319Y-69131356D01*
X161861319Y-69131356D02*
X161813700Y-69226594D01*
X161813700Y-69226594D02*
X161766080Y-69274213D01*
X124238095Y-62556819D02*
X124809523Y-62556819D01*
X124523809Y-63556819D02*
X124523809Y-62556819D01*
X125142857Y-63556819D02*
X125142857Y-62556819D01*
X125142857Y-62556819D02*
X125523809Y-62556819D01*
X125523809Y-62556819D02*
X125619047Y-62604438D01*
X125619047Y-62604438D02*
X125666666Y-62652057D01*
X125666666Y-62652057D02*
X125714285Y-62747295D01*
X125714285Y-62747295D02*
X125714285Y-62890152D01*
X125714285Y-62890152D02*
X125666666Y-62985390D01*
X125666666Y-62985390D02*
X125619047Y-63033009D01*
X125619047Y-63033009D02*
X125523809Y-63080628D01*
X125523809Y-63080628D02*
X125142857Y-63080628D01*
X126619047Y-62556819D02*
X126142857Y-62556819D01*
X126142857Y-62556819D02*
X126095238Y-63033009D01*
X126095238Y-63033009D02*
X126142857Y-62985390D01*
X126142857Y-62985390D02*
X126238095Y-62937771D01*
X126238095Y-62937771D02*
X126476190Y-62937771D01*
X126476190Y-62937771D02*
X126571428Y-62985390D01*
X126571428Y-62985390D02*
X126619047Y-63033009D01*
X126619047Y-63033009D02*
X126666666Y-63128247D01*
X126666666Y-63128247D02*
X126666666Y-63366342D01*
X126666666Y-63366342D02*
X126619047Y-63461580D01*
X126619047Y-63461580D02*
X126571428Y-63509200D01*
X126571428Y-63509200D02*
X126476190Y-63556819D01*
X126476190Y-63556819D02*
X126238095Y-63556819D01*
X126238095Y-63556819D02*
X126142857Y-63509200D01*
X126142857Y-63509200D02*
X126095238Y-63461580D01*
X171357142Y-95639580D02*
X171309523Y-95687200D01*
X171309523Y-95687200D02*
X171166666Y-95734819D01*
X171166666Y-95734819D02*
X171071428Y-95734819D01*
X171071428Y-95734819D02*
X170928571Y-95687200D01*
X170928571Y-95687200D02*
X170833333Y-95591961D01*
X170833333Y-95591961D02*
X170785714Y-95496723D01*
X170785714Y-95496723D02*
X170738095Y-95306247D01*
X170738095Y-95306247D02*
X170738095Y-95163390D01*
X170738095Y-95163390D02*
X170785714Y-94972914D01*
X170785714Y-94972914D02*
X170833333Y-94877676D01*
X170833333Y-94877676D02*
X170928571Y-94782438D01*
X170928571Y-94782438D02*
X171071428Y-94734819D01*
X171071428Y-94734819D02*
X171166666Y-94734819D01*
X171166666Y-94734819D02*
X171309523Y-94782438D01*
X171309523Y-94782438D02*
X171357142Y-94830057D01*
X171690476Y-94734819D02*
X172309523Y-94734819D01*
X172309523Y-94734819D02*
X171976190Y-95115771D01*
X171976190Y-95115771D02*
X172119047Y-95115771D01*
X172119047Y-95115771D02*
X172214285Y-95163390D01*
X172214285Y-95163390D02*
X172261904Y-95211009D01*
X172261904Y-95211009D02*
X172309523Y-95306247D01*
X172309523Y-95306247D02*
X172309523Y-95544342D01*
X172309523Y-95544342D02*
X172261904Y-95639580D01*
X172261904Y-95639580D02*
X172214285Y-95687200D01*
X172214285Y-95687200D02*
X172119047Y-95734819D01*
X172119047Y-95734819D02*
X171833333Y-95734819D01*
X171833333Y-95734819D02*
X171738095Y-95687200D01*
X171738095Y-95687200D02*
X171690476Y-95639580D01*
X172690476Y-94830057D02*
X172738095Y-94782438D01*
X172738095Y-94782438D02*
X172833333Y-94734819D01*
X172833333Y-94734819D02*
X173071428Y-94734819D01*
X173071428Y-94734819D02*
X173166666Y-94782438D01*
X173166666Y-94782438D02*
X173214285Y-94830057D01*
X173214285Y-94830057D02*
X173261904Y-94925295D01*
X173261904Y-94925295D02*
X173261904Y-95020533D01*
X173261904Y-95020533D02*
X173214285Y-95163390D01*
X173214285Y-95163390D02*
X172642857Y-95734819D01*
X172642857Y-95734819D02*
X173261904Y-95734819D01*
X133866095Y-70608819D02*
X134437523Y-70608819D01*
X134151809Y-71608819D02*
X134151809Y-70608819D01*
X134770857Y-71608819D02*
X134770857Y-70608819D01*
X134770857Y-70608819D02*
X135151809Y-70608819D01*
X135151809Y-70608819D02*
X135247047Y-70656438D01*
X135247047Y-70656438D02*
X135294666Y-70704057D01*
X135294666Y-70704057D02*
X135342285Y-70799295D01*
X135342285Y-70799295D02*
X135342285Y-70942152D01*
X135342285Y-70942152D02*
X135294666Y-71037390D01*
X135294666Y-71037390D02*
X135247047Y-71085009D01*
X135247047Y-71085009D02*
X135151809Y-71132628D01*
X135151809Y-71132628D02*
X134770857Y-71132628D01*
X135675619Y-70608819D02*
X136294666Y-70608819D01*
X136294666Y-70608819D02*
X135961333Y-70989771D01*
X135961333Y-70989771D02*
X136104190Y-70989771D01*
X136104190Y-70989771D02*
X136199428Y-71037390D01*
X136199428Y-71037390D02*
X136247047Y-71085009D01*
X136247047Y-71085009D02*
X136294666Y-71180247D01*
X136294666Y-71180247D02*
X136294666Y-71418342D01*
X136294666Y-71418342D02*
X136247047Y-71513580D01*
X136247047Y-71513580D02*
X136199428Y-71561200D01*
X136199428Y-71561200D02*
X136104190Y-71608819D01*
X136104190Y-71608819D02*
X135818476Y-71608819D01*
X135818476Y-71608819D02*
X135723238Y-71561200D01*
X135723238Y-71561200D02*
X135675619Y-71513580D01*
X149039580Y-75266666D02*
X149087200Y-75314285D01*
X149087200Y-75314285D02*
X149134819Y-75457142D01*
X149134819Y-75457142D02*
X149134819Y-75552380D01*
X149134819Y-75552380D02*
X149087200Y-75695237D01*
X149087200Y-75695237D02*
X148991961Y-75790475D01*
X148991961Y-75790475D02*
X148896723Y-75838094D01*
X148896723Y-75838094D02*
X148706247Y-75885713D01*
X148706247Y-75885713D02*
X148563390Y-75885713D01*
X148563390Y-75885713D02*
X148372914Y-75838094D01*
X148372914Y-75838094D02*
X148277676Y-75790475D01*
X148277676Y-75790475D02*
X148182438Y-75695237D01*
X148182438Y-75695237D02*
X148134819Y-75552380D01*
X148134819Y-75552380D02*
X148134819Y-75457142D01*
X148134819Y-75457142D02*
X148182438Y-75314285D01*
X148182438Y-75314285D02*
X148230057Y-75266666D01*
X148468152Y-74409523D02*
X149134819Y-74409523D01*
X148087200Y-74647618D02*
X148801485Y-74885713D01*
X148801485Y-74885713D02*
X148801485Y-74266666D01*
X132359580Y-74334666D02*
X132407200Y-74382285D01*
X132407200Y-74382285D02*
X132454819Y-74525142D01*
X132454819Y-74525142D02*
X132454819Y-74620380D01*
X132454819Y-74620380D02*
X132407200Y-74763237D01*
X132407200Y-74763237D02*
X132311961Y-74858475D01*
X132311961Y-74858475D02*
X132216723Y-74906094D01*
X132216723Y-74906094D02*
X132026247Y-74953713D01*
X132026247Y-74953713D02*
X131883390Y-74953713D01*
X131883390Y-74953713D02*
X131692914Y-74906094D01*
X131692914Y-74906094D02*
X131597676Y-74858475D01*
X131597676Y-74858475D02*
X131502438Y-74763237D01*
X131502438Y-74763237D02*
X131454819Y-74620380D01*
X131454819Y-74620380D02*
X131454819Y-74525142D01*
X131454819Y-74525142D02*
X131502438Y-74382285D01*
X131502438Y-74382285D02*
X131550057Y-74334666D01*
X131550057Y-73953713D02*
X131502438Y-73906094D01*
X131502438Y-73906094D02*
X131454819Y-73810856D01*
X131454819Y-73810856D02*
X131454819Y-73572761D01*
X131454819Y-73572761D02*
X131502438Y-73477523D01*
X131502438Y-73477523D02*
X131550057Y-73429904D01*
X131550057Y-73429904D02*
X131645295Y-73382285D01*
X131645295Y-73382285D02*
X131740533Y-73382285D01*
X131740533Y-73382285D02*
X131883390Y-73429904D01*
X131883390Y-73429904D02*
X132454819Y-74001332D01*
X132454819Y-74001332D02*
X132454819Y-73382285D01*
X143857142Y-57459580D02*
X143809523Y-57507200D01*
X143809523Y-57507200D02*
X143666666Y-57554819D01*
X143666666Y-57554819D02*
X143571428Y-57554819D01*
X143571428Y-57554819D02*
X143428571Y-57507200D01*
X143428571Y-57507200D02*
X143333333Y-57411961D01*
X143333333Y-57411961D02*
X143285714Y-57316723D01*
X143285714Y-57316723D02*
X143238095Y-57126247D01*
X143238095Y-57126247D02*
X143238095Y-56983390D01*
X143238095Y-56983390D02*
X143285714Y-56792914D01*
X143285714Y-56792914D02*
X143333333Y-56697676D01*
X143333333Y-56697676D02*
X143428571Y-56602438D01*
X143428571Y-56602438D02*
X143571428Y-56554819D01*
X143571428Y-56554819D02*
X143666666Y-56554819D01*
X143666666Y-56554819D02*
X143809523Y-56602438D01*
X143809523Y-56602438D02*
X143857142Y-56650057D01*
X144190476Y-56554819D02*
X144809523Y-56554819D01*
X144809523Y-56554819D02*
X144476190Y-56935771D01*
X144476190Y-56935771D02*
X144619047Y-56935771D01*
X144619047Y-56935771D02*
X144714285Y-56983390D01*
X144714285Y-56983390D02*
X144761904Y-57031009D01*
X144761904Y-57031009D02*
X144809523Y-57126247D01*
X144809523Y-57126247D02*
X144809523Y-57364342D01*
X144809523Y-57364342D02*
X144761904Y-57459580D01*
X144761904Y-57459580D02*
X144714285Y-57507200D01*
X144714285Y-57507200D02*
X144619047Y-57554819D01*
X144619047Y-57554819D02*
X144333333Y-57554819D01*
X144333333Y-57554819D02*
X144238095Y-57507200D01*
X144238095Y-57507200D02*
X144190476Y-57459580D01*
X145428571Y-56554819D02*
X145523809Y-56554819D01*
X145523809Y-56554819D02*
X145619047Y-56602438D01*
X145619047Y-56602438D02*
X145666666Y-56650057D01*
X145666666Y-56650057D02*
X145714285Y-56745295D01*
X145714285Y-56745295D02*
X145761904Y-56935771D01*
X145761904Y-56935771D02*
X145761904Y-57173866D01*
X145761904Y-57173866D02*
X145714285Y-57364342D01*
X145714285Y-57364342D02*
X145666666Y-57459580D01*
X145666666Y-57459580D02*
X145619047Y-57507200D01*
X145619047Y-57507200D02*
X145523809Y-57554819D01*
X145523809Y-57554819D02*
X145428571Y-57554819D01*
X145428571Y-57554819D02*
X145333333Y-57507200D01*
X145333333Y-57507200D02*
X145285714Y-57459580D01*
X145285714Y-57459580D02*
X145238095Y-57364342D01*
X145238095Y-57364342D02*
X145190476Y-57173866D01*
X145190476Y-57173866D02*
X145190476Y-56935771D01*
X145190476Y-56935771D02*
X145238095Y-56745295D01*
X145238095Y-56745295D02*
X145285714Y-56650057D01*
X145285714Y-56650057D02*
X145333333Y-56602438D01*
X145333333Y-56602438D02*
X145428571Y-56554819D01*
X181857142Y-57459580D02*
X181809523Y-57507200D01*
X181809523Y-57507200D02*
X181666666Y-57554819D01*
X181666666Y-57554819D02*
X181571428Y-57554819D01*
X181571428Y-57554819D02*
X181428571Y-57507200D01*
X181428571Y-57507200D02*
X181333333Y-57411961D01*
X181333333Y-57411961D02*
X181285714Y-57316723D01*
X181285714Y-57316723D02*
X181238095Y-57126247D01*
X181238095Y-57126247D02*
X181238095Y-56983390D01*
X181238095Y-56983390D02*
X181285714Y-56792914D01*
X181285714Y-56792914D02*
X181333333Y-56697676D01*
X181333333Y-56697676D02*
X181428571Y-56602438D01*
X181428571Y-56602438D02*
X181571428Y-56554819D01*
X181571428Y-56554819D02*
X181666666Y-56554819D01*
X181666666Y-56554819D02*
X181809523Y-56602438D01*
X181809523Y-56602438D02*
X181857142Y-56650057D01*
X182238095Y-56650057D02*
X182285714Y-56602438D01*
X182285714Y-56602438D02*
X182380952Y-56554819D01*
X182380952Y-56554819D02*
X182619047Y-56554819D01*
X182619047Y-56554819D02*
X182714285Y-56602438D01*
X182714285Y-56602438D02*
X182761904Y-56650057D01*
X182761904Y-56650057D02*
X182809523Y-56745295D01*
X182809523Y-56745295D02*
X182809523Y-56840533D01*
X182809523Y-56840533D02*
X182761904Y-56983390D01*
X182761904Y-56983390D02*
X182190476Y-57554819D01*
X182190476Y-57554819D02*
X182809523Y-57554819D01*
X183142857Y-56554819D02*
X183809523Y-56554819D01*
X183809523Y-56554819D02*
X183380952Y-57554819D01*
X121857142Y-57459580D02*
X121809523Y-57507200D01*
X121809523Y-57507200D02*
X121666666Y-57554819D01*
X121666666Y-57554819D02*
X121571428Y-57554819D01*
X121571428Y-57554819D02*
X121428571Y-57507200D01*
X121428571Y-57507200D02*
X121333333Y-57411961D01*
X121333333Y-57411961D02*
X121285714Y-57316723D01*
X121285714Y-57316723D02*
X121238095Y-57126247D01*
X121238095Y-57126247D02*
X121238095Y-56983390D01*
X121238095Y-56983390D02*
X121285714Y-56792914D01*
X121285714Y-56792914D02*
X121333333Y-56697676D01*
X121333333Y-56697676D02*
X121428571Y-56602438D01*
X121428571Y-56602438D02*
X121571428Y-56554819D01*
X121571428Y-56554819D02*
X121666666Y-56554819D01*
X121666666Y-56554819D02*
X121809523Y-56602438D01*
X121809523Y-56602438D02*
X121857142Y-56650057D01*
X122190476Y-56554819D02*
X122809523Y-56554819D01*
X122809523Y-56554819D02*
X122476190Y-56935771D01*
X122476190Y-56935771D02*
X122619047Y-56935771D01*
X122619047Y-56935771D02*
X122714285Y-56983390D01*
X122714285Y-56983390D02*
X122761904Y-57031009D01*
X122761904Y-57031009D02*
X122809523Y-57126247D01*
X122809523Y-57126247D02*
X122809523Y-57364342D01*
X122809523Y-57364342D02*
X122761904Y-57459580D01*
X122761904Y-57459580D02*
X122714285Y-57507200D01*
X122714285Y-57507200D02*
X122619047Y-57554819D01*
X122619047Y-57554819D02*
X122333333Y-57554819D01*
X122333333Y-57554819D02*
X122238095Y-57507200D01*
X122238095Y-57507200D02*
X122190476Y-57459580D01*
X123761904Y-57554819D02*
X123190476Y-57554819D01*
X123476190Y-57554819D02*
X123476190Y-56554819D01*
X123476190Y-56554819D02*
X123380952Y-56697676D01*
X123380952Y-56697676D02*
X123285714Y-56792914D01*
X123285714Y-56792914D02*
X123190476Y-56840533D01*
X168857142Y-57459580D02*
X168809523Y-57507200D01*
X168809523Y-57507200D02*
X168666666Y-57554819D01*
X168666666Y-57554819D02*
X168571428Y-57554819D01*
X168571428Y-57554819D02*
X168428571Y-57507200D01*
X168428571Y-57507200D02*
X168333333Y-57411961D01*
X168333333Y-57411961D02*
X168285714Y-57316723D01*
X168285714Y-57316723D02*
X168238095Y-57126247D01*
X168238095Y-57126247D02*
X168238095Y-56983390D01*
X168238095Y-56983390D02*
X168285714Y-56792914D01*
X168285714Y-56792914D02*
X168333333Y-56697676D01*
X168333333Y-56697676D02*
X168428571Y-56602438D01*
X168428571Y-56602438D02*
X168571428Y-56554819D01*
X168571428Y-56554819D02*
X168666666Y-56554819D01*
X168666666Y-56554819D02*
X168809523Y-56602438D01*
X168809523Y-56602438D02*
X168857142Y-56650057D01*
X169238095Y-56650057D02*
X169285714Y-56602438D01*
X169285714Y-56602438D02*
X169380952Y-56554819D01*
X169380952Y-56554819D02*
X169619047Y-56554819D01*
X169619047Y-56554819D02*
X169714285Y-56602438D01*
X169714285Y-56602438D02*
X169761904Y-56650057D01*
X169761904Y-56650057D02*
X169809523Y-56745295D01*
X169809523Y-56745295D02*
X169809523Y-56840533D01*
X169809523Y-56840533D02*
X169761904Y-56983390D01*
X169761904Y-56983390D02*
X169190476Y-57554819D01*
X169190476Y-57554819D02*
X169809523Y-57554819D01*
X170380952Y-56983390D02*
X170285714Y-56935771D01*
X170285714Y-56935771D02*
X170238095Y-56888152D01*
X170238095Y-56888152D02*
X170190476Y-56792914D01*
X170190476Y-56792914D02*
X170190476Y-56745295D01*
X170190476Y-56745295D02*
X170238095Y-56650057D01*
X170238095Y-56650057D02*
X170285714Y-56602438D01*
X170285714Y-56602438D02*
X170380952Y-56554819D01*
X170380952Y-56554819D02*
X170571428Y-56554819D01*
X170571428Y-56554819D02*
X170666666Y-56602438D01*
X170666666Y-56602438D02*
X170714285Y-56650057D01*
X170714285Y-56650057D02*
X170761904Y-56745295D01*
X170761904Y-56745295D02*
X170761904Y-56792914D01*
X170761904Y-56792914D02*
X170714285Y-56888152D01*
X170714285Y-56888152D02*
X170666666Y-56935771D01*
X170666666Y-56935771D02*
X170571428Y-56983390D01*
X170571428Y-56983390D02*
X170380952Y-56983390D01*
X170380952Y-56983390D02*
X170285714Y-57031009D01*
X170285714Y-57031009D02*
X170238095Y-57078628D01*
X170238095Y-57078628D02*
X170190476Y-57173866D01*
X170190476Y-57173866D02*
X170190476Y-57364342D01*
X170190476Y-57364342D02*
X170238095Y-57459580D01*
X170238095Y-57459580D02*
X170285714Y-57507200D01*
X170285714Y-57507200D02*
X170380952Y-57554819D01*
X170380952Y-57554819D02*
X170571428Y-57554819D01*
X170571428Y-57554819D02*
X170666666Y-57507200D01*
X170666666Y-57507200D02*
X170714285Y-57459580D01*
X170714285Y-57459580D02*
X170761904Y-57364342D01*
X170761904Y-57364342D02*
X170761904Y-57173866D01*
X170761904Y-57173866D02*
X170714285Y-57078628D01*
X170714285Y-57078628D02*
X170666666Y-57031009D01*
X170666666Y-57031009D02*
X170571428Y-56983390D01*
X146357142Y-118459580D02*
X146309523Y-118507200D01*
X146309523Y-118507200D02*
X146166666Y-118554819D01*
X146166666Y-118554819D02*
X146071428Y-118554819D01*
X146071428Y-118554819D02*
X145928571Y-118507200D01*
X145928571Y-118507200D02*
X145833333Y-118411961D01*
X145833333Y-118411961D02*
X145785714Y-118316723D01*
X145785714Y-118316723D02*
X145738095Y-118126247D01*
X145738095Y-118126247D02*
X145738095Y-117983390D01*
X145738095Y-117983390D02*
X145785714Y-117792914D01*
X145785714Y-117792914D02*
X145833333Y-117697676D01*
X145833333Y-117697676D02*
X145928571Y-117602438D01*
X145928571Y-117602438D02*
X146071428Y-117554819D01*
X146071428Y-117554819D02*
X146166666Y-117554819D01*
X146166666Y-117554819D02*
X146309523Y-117602438D01*
X146309523Y-117602438D02*
X146357142Y-117650057D01*
X146738095Y-117650057D02*
X146785714Y-117602438D01*
X146785714Y-117602438D02*
X146880952Y-117554819D01*
X146880952Y-117554819D02*
X147119047Y-117554819D01*
X147119047Y-117554819D02*
X147214285Y-117602438D01*
X147214285Y-117602438D02*
X147261904Y-117650057D01*
X147261904Y-117650057D02*
X147309523Y-117745295D01*
X147309523Y-117745295D02*
X147309523Y-117840533D01*
X147309523Y-117840533D02*
X147261904Y-117983390D01*
X147261904Y-117983390D02*
X146690476Y-118554819D01*
X146690476Y-118554819D02*
X147309523Y-118554819D01*
X147928571Y-117554819D02*
X148023809Y-117554819D01*
X148023809Y-117554819D02*
X148119047Y-117602438D01*
X148119047Y-117602438D02*
X148166666Y-117650057D01*
X148166666Y-117650057D02*
X148214285Y-117745295D01*
X148214285Y-117745295D02*
X148261904Y-117935771D01*
X148261904Y-117935771D02*
X148261904Y-118173866D01*
X148261904Y-118173866D02*
X148214285Y-118364342D01*
X148214285Y-118364342D02*
X148166666Y-118459580D01*
X148166666Y-118459580D02*
X148119047Y-118507200D01*
X148119047Y-118507200D02*
X148023809Y-118554819D01*
X148023809Y-118554819D02*
X147928571Y-118554819D01*
X147928571Y-118554819D02*
X147833333Y-118507200D01*
X147833333Y-118507200D02*
X147785714Y-118459580D01*
X147785714Y-118459580D02*
X147738095Y-118364342D01*
X147738095Y-118364342D02*
X147690476Y-118173866D01*
X147690476Y-118173866D02*
X147690476Y-117935771D01*
X147690476Y-117935771D02*
X147738095Y-117745295D01*
X147738095Y-117745295D02*
X147785714Y-117650057D01*
X147785714Y-117650057D02*
X147833333Y-117602438D01*
X147833333Y-117602438D02*
X147928571Y-117554819D01*
X146109580Y-115992857D02*
X146157200Y-116040476D01*
X146157200Y-116040476D02*
X146204819Y-116183333D01*
X146204819Y-116183333D02*
X146204819Y-116278571D01*
X146204819Y-116278571D02*
X146157200Y-116421428D01*
X146157200Y-116421428D02*
X146061961Y-116516666D01*
X146061961Y-116516666D02*
X145966723Y-116564285D01*
X145966723Y-116564285D02*
X145776247Y-116611904D01*
X145776247Y-116611904D02*
X145633390Y-116611904D01*
X145633390Y-116611904D02*
X145442914Y-116564285D01*
X145442914Y-116564285D02*
X145347676Y-116516666D01*
X145347676Y-116516666D02*
X145252438Y-116421428D01*
X145252438Y-116421428D02*
X145204819Y-116278571D01*
X145204819Y-116278571D02*
X145204819Y-116183333D01*
X145204819Y-116183333D02*
X145252438Y-116040476D01*
X145252438Y-116040476D02*
X145300057Y-115992857D01*
X145300057Y-115611904D02*
X145252438Y-115564285D01*
X145252438Y-115564285D02*
X145204819Y-115469047D01*
X145204819Y-115469047D02*
X145204819Y-115230952D01*
X145204819Y-115230952D02*
X145252438Y-115135714D01*
X145252438Y-115135714D02*
X145300057Y-115088095D01*
X145300057Y-115088095D02*
X145395295Y-115040476D01*
X145395295Y-115040476D02*
X145490533Y-115040476D01*
X145490533Y-115040476D02*
X145633390Y-115088095D01*
X145633390Y-115088095D02*
X146204819Y-115659523D01*
X146204819Y-115659523D02*
X146204819Y-115040476D01*
X146204819Y-114088095D02*
X146204819Y-114659523D01*
X146204819Y-114373809D02*
X145204819Y-114373809D01*
X145204819Y-114373809D02*
X145347676Y-114469047D01*
X145347676Y-114469047D02*
X145442914Y-114564285D01*
X145442914Y-114564285D02*
X145490533Y-114659523D01*
X146807142Y-112959580D02*
X146759523Y-113007200D01*
X146759523Y-113007200D02*
X146616666Y-113054819D01*
X146616666Y-113054819D02*
X146521428Y-113054819D01*
X146521428Y-113054819D02*
X146378571Y-113007200D01*
X146378571Y-113007200D02*
X146283333Y-112911961D01*
X146283333Y-112911961D02*
X146235714Y-112816723D01*
X146235714Y-112816723D02*
X146188095Y-112626247D01*
X146188095Y-112626247D02*
X146188095Y-112483390D01*
X146188095Y-112483390D02*
X146235714Y-112292914D01*
X146235714Y-112292914D02*
X146283333Y-112197676D01*
X146283333Y-112197676D02*
X146378571Y-112102438D01*
X146378571Y-112102438D02*
X146521428Y-112054819D01*
X146521428Y-112054819D02*
X146616666Y-112054819D01*
X146616666Y-112054819D02*
X146759523Y-112102438D01*
X146759523Y-112102438D02*
X146807142Y-112150057D01*
X147188095Y-112150057D02*
X147235714Y-112102438D01*
X147235714Y-112102438D02*
X147330952Y-112054819D01*
X147330952Y-112054819D02*
X147569047Y-112054819D01*
X147569047Y-112054819D02*
X147664285Y-112102438D01*
X147664285Y-112102438D02*
X147711904Y-112150057D01*
X147711904Y-112150057D02*
X147759523Y-112245295D01*
X147759523Y-112245295D02*
X147759523Y-112340533D01*
X147759523Y-112340533D02*
X147711904Y-112483390D01*
X147711904Y-112483390D02*
X147140476Y-113054819D01*
X147140476Y-113054819D02*
X147759523Y-113054819D01*
X148140476Y-112150057D02*
X148188095Y-112102438D01*
X148188095Y-112102438D02*
X148283333Y-112054819D01*
X148283333Y-112054819D02*
X148521428Y-112054819D01*
X148521428Y-112054819D02*
X148616666Y-112102438D01*
X148616666Y-112102438D02*
X148664285Y-112150057D01*
X148664285Y-112150057D02*
X148711904Y-112245295D01*
X148711904Y-112245295D02*
X148711904Y-112340533D01*
X148711904Y-112340533D02*
X148664285Y-112483390D01*
X148664285Y-112483390D02*
X148092857Y-113054819D01*
X148092857Y-113054819D02*
X148711904Y-113054819D01*
D14*
%TO.C,L1*%
X126000000Y-72200000D02*
X129000000Y-72200000D01*
X126000000Y-69000000D02*
X129000000Y-69000000D01*
%TO.C,U5*%
X148390000Y-86257000D02*
X148390000Y-86022000D01*
X148390000Y-91002000D02*
X148390000Y-90527000D01*
X148865000Y-85782000D02*
X148690000Y-85782000D01*
X148865000Y-91002000D02*
X148390000Y-91002000D01*
X153135000Y-85782000D02*
X153610000Y-85782000D01*
X153135000Y-91002000D02*
X153610000Y-91002000D01*
X153610000Y-85782000D02*
X153610000Y-86257000D01*
X153610000Y-91002000D02*
X153610000Y-90527000D01*
X148390000Y-85782000D02*
X148150000Y-85452000D01*
X148630000Y-85452000D01*
X148390000Y-85782000D01*
G36*
X148390000Y-85782000D02*
G01*
X148150000Y-85452000D01*
X148630000Y-85452000D01*
X148390000Y-85782000D01*
G37*
%TO.C,U4*%
X152390000Y-99465000D02*
X152390000Y-99230000D01*
X152390000Y-104210000D02*
X152390000Y-103735000D01*
X152865000Y-98990000D02*
X152690000Y-98990000D01*
X152865000Y-104210000D02*
X152390000Y-104210000D01*
X157135000Y-98990000D02*
X157610000Y-98990000D01*
X157135000Y-104210000D02*
X157610000Y-104210000D01*
X157610000Y-98990000D02*
X157610000Y-99465000D01*
X157610000Y-104210000D02*
X157610000Y-103735000D01*
X152390000Y-98990000D02*
X152150000Y-98660000D01*
X152630000Y-98660000D01*
X152390000Y-98990000D01*
G36*
X152390000Y-98990000D02*
G01*
X152150000Y-98660000D01*
X152630000Y-98660000D01*
X152390000Y-98990000D01*
G37*
%TO.C,C18*%
X158490000Y-98740580D02*
X158490000Y-98459420D01*
X159510000Y-98740580D02*
X159510000Y-98459420D01*
%TO.C,C19*%
X159990000Y-98740580D02*
X159990000Y-98459420D01*
X161010000Y-98740580D02*
X161010000Y-98459420D01*
%TO.C,TP2*%
X168950000Y-86350000D02*
G75*
G02*
X166550000Y-86350000I-1200000J0D01*
G01*
X166550000Y-86350000D02*
G75*
G02*
X168950000Y-86350000I1200000J0D01*
G01*
%TO.C,TP7*%
X169200000Y-110350000D02*
G75*
G02*
X166800000Y-110350000I-1200000J0D01*
G01*
X166800000Y-110350000D02*
G75*
G02*
X169200000Y-110350000I1200000J0D01*
G01*
%TO.C,TP6*%
X171700000Y-81100000D02*
G75*
G02*
X169300000Y-81100000I-1200000J0D01*
G01*
X169300000Y-81100000D02*
G75*
G02*
X171700000Y-81100000I1200000J0D01*
G01*
%TO.C,C29*%
X152661252Y-56365000D02*
X152138748Y-56365000D01*
X152661252Y-57835000D02*
X152138748Y-57835000D01*
%TO.C,C3*%
X140943000Y-73906748D02*
X140943000Y-74429252D01*
X139473000Y-73906748D02*
X139473000Y-74429252D01*
%TO.C,C7*%
X160485000Y-90111252D02*
X160485000Y-89588748D01*
X159015000Y-90111252D02*
X159015000Y-89588748D01*
%TO.C,C40*%
X155990000Y-85740580D02*
X155990000Y-85459420D01*
X157010000Y-85740580D02*
X157010000Y-85459420D01*
%TO.C,C39*%
X157490000Y-85740580D02*
X157490000Y-85459420D01*
X158510000Y-85740580D02*
X158510000Y-85459420D01*
%TO.C,R1*%
X142735000Y-82576936D02*
X142735000Y-83031064D01*
X141265000Y-82576936D02*
X141265000Y-83031064D01*
%TO.C,U2*%
X143500000Y-75660000D02*
X144300000Y-75660000D01*
X143500000Y-75660000D02*
X142700000Y-75660000D01*
X143500000Y-72540000D02*
X144300000Y-72540000D01*
X143500000Y-72540000D02*
X142700000Y-72540000D01*
X145040000Y-75940000D02*
X144560000Y-75940000D01*
X144800000Y-75610000D01*
X145040000Y-75940000D01*
G36*
X145040000Y-75940000D02*
G01*
X144560000Y-75940000D01*
X144800000Y-75610000D01*
X145040000Y-75940000D01*
G37*
%TO.C,C15*%
X140084420Y-103860000D02*
X140365580Y-103860000D01*
X140084420Y-102840000D02*
X140365580Y-102840000D01*
%TO.C,C12*%
X147740000Y-107959420D02*
X147740000Y-108240580D01*
X148760000Y-107959420D02*
X148760000Y-108240580D01*
%TO.C,C11*%
X144260000Y-107459420D02*
X144260000Y-107740580D01*
X143240000Y-107459420D02*
X143240000Y-107740580D01*
%TO.C,L2*%
X152570555Y-107301404D02*
X152005404Y-107866555D01*
X151778596Y-106509445D02*
X151213445Y-107074596D01*
%TO.C,C10*%
X144740000Y-107459420D02*
X144740000Y-107740580D01*
X145760000Y-107459420D02*
X145760000Y-107740580D01*
%TO.C,C14*%
X140365580Y-105360000D02*
X140084420Y-105360000D01*
X140365580Y-104340000D02*
X140084420Y-104340000D01*
%TO.C,C13*%
X146240000Y-108240580D02*
X146240000Y-107959420D01*
X147260000Y-108240580D02*
X147260000Y-107959420D01*
%TO.C,C25*%
X151261252Y-109365000D02*
X150738748Y-109365000D01*
X151261252Y-110835000D02*
X150738748Y-110835000D01*
%TO.C,Y1*%
X143500000Y-99450000D02*
X143500000Y-102750000D01*
X143500000Y-102750000D02*
X147500000Y-102750000D01*
%TO.C,C16*%
X145990000Y-97240580D02*
X145990000Y-96959420D01*
X147010000Y-97240580D02*
X147010000Y-96959420D01*
%TO.C,C23*%
X149010000Y-100959420D02*
X149010000Y-101240580D01*
X147990000Y-100959420D02*
X147990000Y-101240580D01*
%TO.C,C24*%
X141998000Y-101232580D02*
X141998000Y-100951420D01*
X143018000Y-101232580D02*
X143018000Y-100951420D01*
%TO.C,C9*%
X151510000Y-97240580D02*
X151510000Y-96959420D01*
X150490000Y-97240580D02*
X150490000Y-96959420D01*
%TO.C,C26*%
X148765000Y-114838748D02*
X148765000Y-115361252D01*
X150235000Y-114838748D02*
X150235000Y-115361252D01*
%TO.C,R8*%
X161235000Y-114872936D02*
X161235000Y-115327064D01*
X159765000Y-114872936D02*
X159765000Y-115327064D01*
%TO.C,R7*%
X146765000Y-114872936D02*
X146765000Y-115327064D01*
X148235000Y-114872936D02*
X148235000Y-115327064D01*
%TO.C,R6*%
X162747500Y-71845436D02*
X162747500Y-72299564D01*
X164217500Y-71845436D02*
X164217500Y-72299564D01*
%TO.C,R4*%
X168843500Y-71845436D02*
X168843500Y-72299564D01*
X170313500Y-71845436D02*
X170313500Y-72299564D01*
%TO.C,R2*%
X138457000Y-82576936D02*
X138457000Y-83031064D01*
X139927000Y-82576936D02*
X139927000Y-83031064D01*
%TO.C,Q2*%
X161304000Y-74626500D02*
X161064000Y-74296500D01*
X161544000Y-74296500D01*
X161304000Y-74626500D01*
G36*
X161304000Y-74626500D02*
G01*
X161064000Y-74296500D01*
X161544000Y-74296500D01*
X161304000Y-74626500D01*
G37*
X162466500Y-77696500D02*
X163116500Y-77696500D01*
X162466500Y-77696500D02*
X161816500Y-77696500D01*
X162466500Y-74576500D02*
X163116500Y-74576500D01*
X162466500Y-74576500D02*
X161816500Y-74576500D01*
%TO.C,Q1*%
X167400000Y-74626500D02*
X167160000Y-74296500D01*
X167640000Y-74296500D01*
X167400000Y-74626500D01*
G36*
X167400000Y-74626500D02*
G01*
X167160000Y-74296500D01*
X167640000Y-74296500D01*
X167400000Y-74626500D01*
G37*
X168562500Y-77696500D02*
X169212500Y-77696500D01*
X168562500Y-77696500D02*
X167912500Y-77696500D01*
X168562500Y-74576500D02*
X169212500Y-74576500D01*
X168562500Y-74576500D02*
X167912500Y-74576500D01*
%TO.C,L3*%
X156364705Y-106509445D02*
X156929856Y-107074596D01*
X155572746Y-107301404D02*
X156137897Y-107866555D01*
%TO.C,J3*%
X134070000Y-85222000D02*
X135395000Y-85222000D01*
X135395000Y-85157000D02*
X135395000Y-85222000D01*
X135395000Y-85157000D02*
X138925000Y-85157000D01*
X135395000Y-91562000D02*
X135395000Y-91627000D01*
X135395000Y-91627000D02*
X138925000Y-91627000D01*
X138925000Y-85157000D02*
X138925000Y-85222000D01*
X138925000Y-91562000D02*
X138925000Y-91627000D01*
%TO.C,C37*%
X156488748Y-118835000D02*
X157011252Y-118835000D01*
X156488748Y-117365000D02*
X157011252Y-117365000D01*
%TO.C,C36*%
X157185000Y-114838748D02*
X157185000Y-115361252D01*
X155715000Y-114838748D02*
X155715000Y-115361252D01*
%TO.C,C35*%
X156788748Y-112835000D02*
X157311252Y-112835000D01*
X156788748Y-111365000D02*
X157311252Y-111365000D01*
%TO.C,C34*%
X157765000Y-115361252D02*
X157765000Y-114838748D01*
X159235000Y-115361252D02*
X159235000Y-114838748D01*
%TO.C,C33*%
X157311252Y-109365000D02*
X156788748Y-109365000D01*
X157311252Y-110835000D02*
X156788748Y-110835000D01*
%TO.C,C17*%
X145510000Y-96959420D02*
X145510000Y-97240580D01*
X144490000Y-96959420D02*
X144490000Y-97240580D01*
%TO.C,C8*%
X150010000Y-97240580D02*
X150010000Y-96959420D01*
X148990000Y-97240580D02*
X148990000Y-96959420D01*
D13*
%TO.C,AE1*%
X178535000Y-151644000D02*
X127535000Y-151644000D01*
X178535000Y-120644000D02*
X178535000Y-151644000D01*
X127535000Y-151644000D02*
X127535000Y-120644000D01*
X127535000Y-120644000D02*
X178535000Y-120644000D01*
D14*
%TO.C,C5*%
X157458000Y-89459420D02*
X157458000Y-89740580D01*
X158478000Y-89459420D02*
X158478000Y-89740580D01*
D10*
%TO.C,REF\u002A\u002A*%
X145900000Y-61984000D02*
X145900000Y-62984000D01*
X145900000Y-62984000D02*
X146400000Y-62984000D01*
X146400000Y-61984000D02*
X145900000Y-61984000D01*
X146900000Y-62484000D02*
X147900000Y-62484000D01*
X147400000Y-61984000D02*
X147400000Y-62984000D01*
X156900000Y-62484000D02*
X157900000Y-62484000D01*
X146400000Y-61484000D02*
X158400000Y-61484000D01*
X158400000Y-63484000D01*
X146400000Y-63484000D01*
X146400000Y-61484000D01*
X132815000Y-62484000D02*
G75*
G02*
X129315000Y-62484000I-1750000J0D01*
G01*
X129315000Y-62484000D02*
G75*
G02*
X132815000Y-62484000I1750000J0D01*
G01*
X140435000Y-62484000D02*
G75*
G02*
X136935000Y-62484000I-1750000J0D01*
G01*
X136935000Y-62484000D02*
G75*
G02*
X140435000Y-62484000I1750000J0D01*
G01*
X167865000Y-62484000D02*
G75*
G02*
X164365000Y-62484000I-1750000J0D01*
G01*
X164365000Y-62484000D02*
G75*
G02*
X167865000Y-62484000I1750000J0D01*
G01*
X175485000Y-62484000D02*
G75*
G02*
X171985000Y-62484000I-1750000J0D01*
G01*
X171985000Y-62484000D02*
G75*
G02*
X175485000Y-62484000I1750000J0D01*
G01*
D14*
%TO.C,C38*%
X159015000Y-85088748D02*
X159015000Y-85611252D01*
X160485000Y-85088748D02*
X160485000Y-85611252D01*
%TO.C,C6*%
X155934000Y-89459420D02*
X155934000Y-89740580D01*
X156954000Y-89459420D02*
X156954000Y-89740580D01*
%TO.C,R3*%
X166811500Y-71845436D02*
X166811500Y-72299564D01*
X168281500Y-71845436D02*
X168281500Y-72299564D01*
D10*
%TO.C,J1*%
X127565200Y-58984000D02*
X127565200Y-65984000D01*
X127565200Y-60984000D02*
X128065200Y-61484000D01*
X127565200Y-65984000D02*
X141065200Y-65984000D01*
X128065200Y-61484000D02*
X128065200Y-63484000D01*
X128065200Y-63484000D02*
X127565200Y-63984000D01*
X141065200Y-58984000D02*
X127565200Y-58984000D01*
D14*
%TO.C,C1*%
X124233000Y-74429252D02*
X124233000Y-73906748D01*
X125703000Y-74429252D02*
X125703000Y-73906748D01*
%TO.C,TP1*%
X136328000Y-77216000D02*
G75*
G02*
X133928000Y-77216000I-1200000J0D01*
G01*
X133928000Y-77216000D02*
G75*
G02*
X136328000Y-77216000I1200000J0D01*
G01*
D10*
%TO.C,J2*%
X163734800Y-65984000D02*
X177234800Y-65984000D01*
X176734800Y-61484000D02*
X177234800Y-60984000D01*
X176734800Y-63484000D02*
X176734800Y-61484000D01*
X177234800Y-58984000D02*
X163734800Y-58984000D01*
X177234800Y-63984000D02*
X176734800Y-63484000D01*
X177234800Y-65984000D02*
X177234800Y-58984000D01*
D14*
%TO.C,TP4*%
X151700000Y-73152000D02*
G75*
G02*
X149300000Y-73152000I-1200000J0D01*
G01*
X149300000Y-73152000D02*
G75*
G02*
X151700000Y-73152000I1200000J0D01*
G01*
%TO.C,U1*%
X126348000Y-74868000D02*
X126348000Y-73468000D01*
X128668000Y-74868000D02*
X128668000Y-73468000D01*
X126398000Y-75288000D02*
X126068000Y-75528000D01*
X126068000Y-75048000D01*
X126398000Y-75288000D01*
G36*
X126398000Y-75288000D02*
G01*
X126068000Y-75528000D01*
X126068000Y-75048000D01*
X126398000Y-75288000D01*
G37*
%TO.C,R5*%
X160715500Y-71845436D02*
X160715500Y-72299564D01*
X162185500Y-71845436D02*
X162185500Y-72299564D01*
%TO.C,TP5*%
X126700000Y-65100000D02*
G75*
G02*
X124300000Y-65100000I-1200000J0D01*
G01*
X124300000Y-65100000D02*
G75*
G02*
X126700000Y-65100000I1200000J0D01*
G01*
%TO.C,C32*%
X172261252Y-92865000D02*
X171738748Y-92865000D01*
X172261252Y-94335000D02*
X171738748Y-94335000D01*
%TO.C,TP3*%
X136328000Y-73152000D02*
G75*
G02*
X133928000Y-73152000I-1200000J0D01*
G01*
X133928000Y-73152000D02*
G75*
G02*
X136328000Y-73152000I1200000J0D01*
G01*
%TO.C,C4*%
X146265000Y-73906748D02*
X146265000Y-74429252D01*
X147735000Y-73906748D02*
X147735000Y-74429252D01*
%TO.C,C2*%
X129313000Y-74429252D02*
X129313000Y-73906748D01*
X130783000Y-74429252D02*
X130783000Y-73906748D01*
%TO.C,C30*%
X139961252Y-57835000D02*
X139438748Y-57835000D01*
X139961252Y-56365000D02*
X139438748Y-56365000D01*
%TO.C,C27*%
X178061252Y-57835000D02*
X177538748Y-57835000D01*
X178061252Y-56365000D02*
X177538748Y-56365000D01*
%TO.C,C31*%
X127261252Y-57835000D02*
X126738748Y-57835000D01*
X127261252Y-56365000D02*
X126738748Y-56365000D01*
%TO.C,C28*%
X165361252Y-57835000D02*
X164838748Y-57835000D01*
X165361252Y-56365000D02*
X164838748Y-56365000D01*
%TO.C,C20*%
X150988748Y-117365000D02*
X151511252Y-117365000D01*
X150988748Y-118835000D02*
X151511252Y-118835000D01*
%TO.C,C21*%
X150765000Y-115361252D02*
X150765000Y-114838748D01*
X152235000Y-115361252D02*
X152235000Y-114838748D01*
%TO.C,C22*%
X151261252Y-112835000D02*
X150738748Y-112835000D01*
X151261252Y-111365000D02*
X150738748Y-111365000D01*
%TD*%
M02*
