M48
; DRILL file {KiCad 9.0.0} date 2025-05-24T00:25:59-0400
; FORMAT={-:-/ absolute / metric / decimal}
; #@! TF.CreationDate,2025-05-24T00:25:59-04:00
; #@! TF.GenerationSoftware,Kicad,Pcbnew,9.0.0
; #@! TF.FileFunction,MixedPlating,1,2
FMAT,2
METRIC
; #@! TA.AperFunction,Plated,PTH,ViaDrill
T1C0.300
; #@! TA.AperFunction,Plated,PTH,ComponentDrill
T2C1.820
; #@! TA.AperFunction,NonPlated,NPTH,ComponentDrill
T3C1.153
%
G90
G05
T1
X120.5Y-53.056
X120.5Y-48.1
X120.5Y-58.1
X120.5Y-63.1
X120.5Y-68.1
X120.5Y-73.1
X120.5Y-78.1
X120.5Y-83.1
X120.5Y-88.1
X120.5Y-93.1
X120.5Y-98.1
X120.5Y-103.1
X120.5Y-108.1
X120.5Y-113.1
X120.5Y-118.1
X124.5Y-57.1
X124.968Y-76.2
X125.5Y-48.1
X125.5Y-83.1
X125.5Y-88.1
X125.5Y-93.1
X125.5Y-98.1
X125.5Y-108.1
X125.5Y-113.1
X125.5Y-118.1
X128.524Y-76.1
X129.0Y-74.218
X129.5Y-57.1
X130.048Y-76.2
X130.5Y-48.1
X130.5Y-68.1
X130.5Y-98.1
X130.5Y-103.1
X130.5Y-108.1
X130.5Y-113.1
X130.5Y-118.1
X133.096Y-87.1
X133.096Y-88.392
X133.096Y-90.932
X135.5Y-48.1
X135.5Y-68.1
X135.5Y-83.1
X135.5Y-98.1
X135.5Y-108.1
X135.5Y-113.1
X135.5Y-118.1
X137.0Y-57.1
X138.0Y-103.6
X138.0Y-105.1
X140.0Y-76.6
X140.454Y-98.1
X140.5Y-48.1
X140.5Y-68.1
X140.5Y-108.1
X140.5Y-113.1
X140.513Y-118.054
X141.5Y-87.1
X142.5Y-57.1
X142.5Y-88.1
X142.5Y-99.1
X143.0Y-75.1
X143.5Y-81.6
X143.5Y-109.6
X144.0Y-99.1
X144.0Y-103.85
X144.0Y-105.6
X145.0Y-95.1
X145.0Y-109.6
X145.5Y-63.1
X145.5Y-68.1
X145.5Y-99.1
X145.5Y-103.85
X146.0Y-76.6
X146.0Y-87.1
X146.5Y-95.1
X146.5Y-110.1
X147.0Y-88.1
X147.0Y-99.1
X147.0Y-103.85
X148.0Y-110.1
X148.5Y-83.6
X148.5Y-92.1
X149.0Y-95.1
X149.0Y-104.6
X149.0Y-118.1
X149.5Y-101.892
X150.0Y-57.1
X150.0Y-87.1
X150.0Y-88.392
X150.0Y-89.6
X150.5Y-68.1
X150.5Y-95.1
X150.964Y-102.887
X151.0Y-87.1
X151.0Y-88.392
X151.0Y-89.6
X152.0Y-87.1
X152.0Y-88.392
X152.0Y-89.6
X152.0Y-93.6
X153.0Y-110.1
X153.0Y-112.1
X153.0Y-114.1
X153.5Y-118.1
X154.0Y-94.6
X154.0Y-100.6
X154.0Y-101.6
X154.0Y-102.6
X154.5Y-118.1
X154.94Y-66.6
X154.94Y-74.422
X155.0Y-57.1
X155.0Y-76.1
X155.0Y-78.1
X155.0Y-80.1
X155.0Y-84.6
X155.0Y-90.1
X155.0Y-100.6
X155.0Y-101.6
X155.0Y-102.6
X155.0Y-110.1
X155.0Y-112.1
X155.0Y-114.1
X155.25Y-105.1
X156.0Y-100.6
X156.0Y-101.6
X156.0Y-102.6
X156.5Y-83.6
X156.5Y-92.1
X156.729Y-98.079
X157.0Y-73.154
X158.0Y-83.6
X158.0Y-92.1
X158.0Y-93.6
X158.5Y-102.1
X159.0Y-96.6
X159.5Y-76.1
X159.5Y-78.1
X159.5Y-92.1
X159.5Y-110.1
X159.5Y-118.1
X160.5Y-63.1
X160.5Y-68.1
X160.5Y-96.6
X160.5Y-103.1
X160.5Y-108.1
X160.5Y-117.856
X160.5Y-126.238
X161.5Y-84.1
X161.5Y-86.1
X161.5Y-89.1
X161.5Y-90.6
X162.369Y-114.745
X162.5Y-57.1
X163.0Y-115.422
X164.5Y-80.1
X165.5Y-48.1
X165.5Y-68.1
X165.5Y-103.1
X165.5Y-108.1
X165.5Y-113.1
X165.5Y-118.1
X166.0Y-77.1
X166.0Y-92.1
X167.5Y-57.1
X170.5Y-48.1
X170.5Y-63.1
X170.5Y-68.1
X170.5Y-78.1
X170.5Y-98.1
X170.5Y-99.6
X170.5Y-103.1
X170.5Y-108.1
X170.5Y-113.1
X170.5Y-118.1
X173.0Y-79.1
X173.0Y-83.6
X173.0Y-98.85
X173.0Y-114.1
X175.5Y-48.1
X175.5Y-57.1
X175.5Y-78.1
X175.5Y-83.6
X175.5Y-88.1
X175.5Y-93.1
X175.5Y-98.1
X175.5Y-103.1
X175.5Y-108.1
X175.5Y-113.1
X175.5Y-118.1
X178.5Y-83.1
X178.5Y-115.6
X180.5Y-48.1
X180.5Y-57.1
X180.5Y-63.1
X182.0Y-53.848
X183.388Y-52.324
X185.5Y-48.1
X185.5Y-53.1
X185.5Y-58.1
X185.5Y-63.1
X185.5Y-68.1
T2
X131.065Y-62.484
X138.685Y-62.484
X166.115Y-62.484
X173.735Y-62.484
T3
X120.5Y-43.1
X120.5Y-138.1
X185.5Y-43.1
X185.5Y-138.1
M30
