%TF.GenerationSoftware,KiCad,Pcbnew,9.0.0*%
%TF.CreationDate,2025-05-23T12:22:20-04:00*%
%TF.ProjectId,lmc_media_blitz,6c6d635f-6d65-4646-9961-5f626c69747a,rev?*%
%TF.SameCoordinates,Original*%
%TF.FileFunction,Copper,L2,Bot*%
%TF.FilePolarity,Positive*%
%FSLAX46Y46*%
G04 Gerber Fmt 4.6, Leading zero omitted, Abs format (unit mm)*
G04 Created by KiCad (PCBNEW 9.0.0) date 2025-05-23 12:22:20*
%MOMM*%
%LPD*%
G01*
G04 APERTURE LIST*
G04 Aperture macros list*
%AMRoundRect*
0 Rectangle with rounded corners*
0 $1 Rounding radius*
0 $2 $3 $4 $5 $6 $7 $8 $9 X,Y pos of 4 corners*
0 Add a 4 corners polygon primitive as box body*
4,1,4,$2,$3,$4,$5,$6,$7,$8,$9,$2,$3,0*
0 Add four circle primitives for the rounded corners*
1,1,$1+$1,$2,$3*
1,1,$1+$1,$4,$5*
1,1,$1+$1,$6,$7*
1,1,$1+$1,$8,$9*
0 Add four rect primitives between the rounded corners*
20,1,$1+$1,$2,$3,$4,$5,0*
20,1,$1+$1,$4,$5,$6,$7,0*
20,1,$1+$1,$6,$7,$8,$9,0*
20,1,$1+$1,$8,$9,$2,$3,0*%
%AMFreePoly0*
4,1,104,0.065263,0.495722,0.191342,0.461940,0.304381,0.396677,0.396677,0.304381,0.461940,0.191342,0.495722,0.065263,0.495722,-0.065263,0.461940,-0.191342,0.396677,-0.304381,0.304381,-0.396677,0.191342,-0.461940,0.065263,-0.495722,0.000000,-0.500000,-5.500000,-0.500000,-5.500000,-8.500000,-4.500000,-8.500000,-4.500000,-2.000000,-4.495722,-1.934737,-4.461940,-1.808658,-4.396677,-1.695619,
-4.304381,-1.603323,-4.191342,-1.538060,-4.065263,-1.504278,-3.934737,-1.504278,-3.808658,-1.538060,-3.695619,-1.603323,-3.603323,-1.695619,-3.538060,-1.808658,-3.504278,-1.934737,-3.500000,-2.000000,-3.500000,-8.500000,-2.500000,-8.500000,-2.500000,-2.000000,-2.495722,-1.934737,-2.461940,-1.808658,-2.396677,-1.695619,-2.304381,-1.603323,-2.191342,-1.538060,-2.065263,-1.504278,-1.934737,-1.504278,
-1.808658,-1.538060,-1.695619,-1.603323,-1.603323,-1.695619,-1.538060,-1.808658,-1.504278,-1.934737,-1.500000,-2.000000,-1.500000,-8.500000,-0.500000,-8.500000,-0.500000,-2.000000,-0.495722,-1.934737,-0.461940,-1.808658,-0.396677,-1.695619,-0.304381,-1.603323,-0.191342,-1.538060,-0.065263,-1.504278,0.065263,-1.504278,0.191342,-1.538060,0.304381,-1.603323,0.396677,-1.695619,0.461940,-1.808658,
0.495722,-1.934737,0.500000,-2.000000,0.500000,-8.500000,1.500000,-8.500000,1.500000,-2.000000,1.504278,-1.934737,1.538060,-1.808658,1.603323,-1.695619,1.695619,-1.603323,1.808658,-1.538060,1.934737,-1.504278,2.065263,-1.504278,2.191342,-1.538060,2.304381,-1.603323,2.396677,-1.695619,2.461940,-1.808658,2.495722,-1.934737,2.500000,-2.000000,2.500000,-9.000000,2.495722,-9.065263,
2.461940,-9.191342,2.396677,-9.304381,2.304381,-9.396677,2.191342,-9.461940,2.065263,-9.495722,2.000000,-9.500000,-6.000000,-9.500000,-6.065263,-9.495722,-6.191342,-9.461940,-6.304381,-9.396677,-6.396677,-9.304381,-6.461940,-9.191342,-6.495722,-9.065263,-6.500000,-9.000000,-6.500000,0.000000,-6.495722,0.065263,-6.461940,0.191342,-6.396677,0.304381,-6.304381,0.396677,-6.191342,0.461940,
-6.065263,0.495722,-6.000000,0.500000,0.000000,0.500000,0.065263,0.495722,0.065263,0.495722,$1*%
%AMFreePoly1*
4,1,53,0.138893,0.207867,0.207867,0.138893,0.245196,0.048773,0.245196,-0.048773,0.207867,-0.138893,0.138893,-0.207867,0.048773,-0.245196,-0.048773,-0.245196,-0.117665,-0.216659,-0.930000,-1.028994,-0.930000,-8.000000,-0.935328,-8.026788,-0.973212,-8.064672,-1.026788,-8.064672,-1.064672,-8.026788,-1.070000,-8.000000,-1.070000,-1.070000,-2.930000,-1.070000,-2.930000,-8.000000,-2.935328,-8.026788,
-2.973212,-8.064672,-3.026788,-8.064672,-3.064672,-8.026788,-3.070000,-8.000000,-3.070000,-1.070000,-4.930000,-1.070000,-4.930000,-8.000000,-4.935328,-8.026788,-4.973212,-8.064672,-5.026788,-8.064672,-5.064672,-8.026788,-5.070000,-8.000000,-5.070000,-1.070000,-6.930000,-1.070000,-6.930000,-8.000000,-6.935328,-8.026788,-6.973212,-8.064672,-7.026788,-8.064672,-7.064672,-8.026788,-7.070000,-8.000000,
-7.070000,-1.000000,-7.064672,-0.973212,-7.026788,-0.935328,-7.000000,-0.930000,-1.028994,-0.930000,-0.216659,-0.117665,-0.245196,-0.048773,-0.245196,0.048773,-0.207867,0.138893,-0.138893,0.207867,-0.048773,0.245196,0.048773,0.245196,0.138893,0.207867,0.138893,0.207867,$1*%
G04 Aperture macros list end*
%TA.AperFunction,SMDPad,CuDef*%
%ADD10RoundRect,0.300000X-0.600000X-0.300000X0.600000X-0.300000X0.600000X0.300000X-0.600000X0.300000X0*%
%TD*%
%TA.AperFunction,ComponentPad*%
%ADD11C,3.000000*%
%TD*%
%TA.AperFunction,SMDPad,CuDef*%
%ADD12FreePoly0,180.000000*%
%TD*%
%TA.AperFunction,SMDPad,CuDef*%
%ADD13FreePoly1,180.000000*%
%TD*%
%TA.AperFunction,ViaPad*%
%ADD14C,0.700000*%
%TD*%
%TA.AperFunction,Conductor*%
%ADD15C,0.254000*%
%TD*%
%TA.AperFunction,Conductor*%
%ADD16C,0.600000*%
%TD*%
%TA.AperFunction,Conductor*%
%ADD17C,1.000000*%
%TD*%
%TA.AperFunction,Conductor*%
%ADD18C,0.400000*%
%TD*%
G04 APERTURE END LIST*
D10*
%TO.P,U14,3,GND*%
%TO.N,GND*%
X129600000Y-55448000D03*
%TO.P,U14,1,SDI*%
%TO.N,/LEDs/LED5_SDI*%
X129600000Y-52248000D03*
%TO.P,U14,2,CKI*%
%TO.N,/LEDs/LED5_CKI*%
X129600000Y-53848000D03*
%TO.P,U14,4,VCC*%
%TO.N,+5V*%
X124400000Y-55448000D03*
%TO.P,U14,5,CKO*%
%TO.N,unconnected-(U14-CKO-Pad5)*%
X124400000Y-53848000D03*
%TO.P,U14,6,SDO*%
%TO.N,unconnected-(U14-SDO-Pad6)*%
X124400000Y-52248000D03*
%TD*%
%TO.P,U13,3,GND*%
%TO.N,GND*%
X142300000Y-55448000D03*
%TO.P,U13,1,SDI*%
%TO.N,/LEDs/LED4_SDI*%
X142300000Y-52248000D03*
%TO.P,U13,2,CKI*%
%TO.N,/LEDs/LED4_CKI*%
X142300000Y-53848000D03*
%TO.P,U13,4,VCC*%
%TO.N,+5V*%
X137100000Y-55448000D03*
%TO.P,U13,5,CKO*%
%TO.N,/LEDs/LED5_CKI*%
X137100000Y-53848000D03*
%TO.P,U13,6,SDO*%
%TO.N,/LEDs/LED5_SDI*%
X137100000Y-52248000D03*
%TD*%
%TO.P,U12,3,GND*%
%TO.N,GND*%
X155000000Y-55448000D03*
%TO.P,U12,1,SDI*%
%TO.N,/LEDs/LED3_SDI*%
X155000000Y-52248000D03*
%TO.P,U12,2,CKI*%
%TO.N,/LEDs/LED3_CKI*%
X155000000Y-53848000D03*
%TO.P,U12,4,VCC*%
%TO.N,+5V*%
X149800000Y-55448000D03*
%TO.P,U12,5,CKO*%
%TO.N,/LEDs/LED4_CKI*%
X149800000Y-53848000D03*
%TO.P,U12,6,SDO*%
%TO.N,/LEDs/LED4_SDI*%
X149800000Y-52248000D03*
%TD*%
%TO.P,U11,3,GND*%
%TO.N,GND*%
X167700000Y-55448000D03*
%TO.P,U11,1,SDI*%
%TO.N,/LEDs/LED2_SDI*%
X167700000Y-52248000D03*
%TO.P,U11,2,CKI*%
%TO.N,/LEDs/LED2_CKI*%
X167700000Y-53848000D03*
%TO.P,U11,4,VCC*%
%TO.N,+5V*%
X162500000Y-55448000D03*
%TO.P,U11,5,CKO*%
%TO.N,/LEDs/LED3_CKI*%
X162500000Y-53848000D03*
%TO.P,U11,6,SDO*%
%TO.N,/LEDs/LED3_SDI*%
X162500000Y-52248000D03*
%TD*%
%TO.P,U10,3,GND*%
%TO.N,GND*%
X180400000Y-55448000D03*
%TO.P,U10,1,SDI*%
%TO.N,/LEDs/SDI*%
X180400000Y-52248000D03*
%TO.P,U10,2,CKI*%
%TO.N,/LEDs/CKI*%
X180400000Y-53848000D03*
%TO.P,U10,4,VCC*%
%TO.N,+5V*%
X175200000Y-55448000D03*
%TO.P,U10,5,CKO*%
%TO.N,/LEDs/LED2_CKI*%
X175200000Y-53848000D03*
%TO.P,U10,6,SDO*%
%TO.N,/LEDs/LED2_SDI*%
X175200000Y-52248000D03*
%TD*%
D11*
%TO.P,J1,1*%
%TO.N,+BATT*%
X131065200Y-62484000D03*
%TO.P,J1,2*%
X138685200Y-62484000D03*
%TD*%
%TO.P,J2,2*%
%TO.N,GND*%
X166114800Y-62484000D03*
%TO.P,J2,1*%
X173734800Y-62484000D03*
%TD*%
D12*
%TO.P,S3,1*%
%TO.N,/CAPT_X2*%
X179231000Y-114611000D03*
D13*
%TO.P,S3,2*%
%TO.N,/CAPT_YH*%
X177231000Y-114611000D03*
%TD*%
D12*
%TO.P,S2,1*%
%TO.N,/CAPT_X1*%
X179231000Y-98863000D03*
D13*
%TO.P,S2,2*%
%TO.N,/CAPT_YH*%
X177231000Y-98863000D03*
%TD*%
D12*
%TO.P,S1,1*%
%TO.N,/CAPT_X0*%
X179231000Y-82099000D03*
D13*
%TO.P,S1,2*%
%TO.N,/CAPT_YH*%
X177231000Y-82099000D03*
%TD*%
D14*
%TO.N,GND*%
X142500000Y-99100000D03*
X154000000Y-102600000D03*
X154000000Y-100600000D03*
X154000000Y-101600000D03*
X156000000Y-102600000D03*
X155000000Y-102600000D03*
X156000000Y-100600000D03*
X155000000Y-100600000D03*
X156000000Y-101600000D03*
X155000000Y-101600000D03*
X152000000Y-89600000D03*
X150000000Y-89600000D03*
X150000000Y-87100000D03*
X152000000Y-87100000D03*
X150000000Y-88392000D03*
X152000000Y-88392000D03*
X151000000Y-89600000D03*
X151000000Y-87100000D03*
X151000000Y-88392000D03*
X155000000Y-80100000D03*
X164500000Y-80100000D03*
X159500000Y-78100000D03*
X155000000Y-78100000D03*
X165500000Y-118100000D03*
X175500000Y-118100000D03*
X170500000Y-118100000D03*
%TO.N,/NFC/ANT_DAMP2*%
X160500000Y-117856000D03*
%TO.N,GND*%
X140500000Y-108100000D03*
X135500000Y-108100000D03*
X130500000Y-108100000D03*
X165500000Y-103100000D03*
X160500000Y-103100000D03*
X156728712Y-98078712D03*
X165500000Y-113100000D03*
X160500000Y-108100000D03*
X159000000Y-96600000D03*
X158500000Y-102100000D03*
X165500000Y-108100000D03*
X160500000Y-96600000D03*
X125500000Y-108100000D03*
X145500000Y-63100000D03*
X160500000Y-68100000D03*
X140500000Y-48100000D03*
X130500000Y-68100000D03*
X185500000Y-58100000D03*
X185500000Y-53100000D03*
X130500000Y-48100000D03*
X155000000Y-57100000D03*
X180500000Y-63100000D03*
X140500000Y-68100000D03*
X180500000Y-48100000D03*
X150500000Y-68100000D03*
X120499999Y-53055915D03*
X185500000Y-63100000D03*
X180500000Y-57100000D03*
X185500000Y-48100000D03*
X170500000Y-68100000D03*
X145500000Y-68100000D03*
X160500000Y-63100000D03*
X167500000Y-57100000D03*
X135500000Y-68100000D03*
X170500000Y-63100000D03*
X175500000Y-48100000D03*
X125500000Y-48100000D03*
X120500000Y-58100000D03*
X135500000Y-48100000D03*
X120500000Y-63100000D03*
X142500000Y-57100000D03*
X170500000Y-48100000D03*
X165500000Y-48100000D03*
X185500000Y-68100000D03*
X165500000Y-68100000D03*
X120500000Y-48100000D03*
X155250000Y-105100000D03*
X146500000Y-110100000D03*
X143500000Y-109600000D03*
X145000000Y-109600000D03*
X155000000Y-114100000D03*
X153000000Y-112100000D03*
X153000000Y-110100000D03*
X155000000Y-112100000D03*
X159500000Y-110100000D03*
X159500000Y-118100000D03*
X153000000Y-114100000D03*
X155000000Y-110100000D03*
X148000000Y-110100000D03*
X124968000Y-76200000D03*
X128524000Y-76100000D03*
X130048000Y-76200000D03*
X120500000Y-93100000D03*
X120500000Y-113100000D03*
X135500000Y-118100000D03*
X120500000Y-78100000D03*
X120500000Y-108100000D03*
X130500000Y-113100000D03*
X120500000Y-98100000D03*
X140500000Y-113100000D03*
X120500000Y-68100000D03*
X120500000Y-118100000D03*
X120500000Y-103100000D03*
X135500000Y-113100000D03*
X130500000Y-118100000D03*
X129500000Y-57100000D03*
X125500000Y-113100000D03*
X140512637Y-118054083D03*
X120500000Y-88100000D03*
X125500000Y-118100000D03*
X120500000Y-83100000D03*
X120500000Y-73100000D03*
X155000000Y-90100000D03*
X161500000Y-90600000D03*
X159500000Y-92100000D03*
X158000000Y-92100000D03*
X135500000Y-83100000D03*
X149500000Y-101891717D03*
X175500000Y-103100000D03*
X175500000Y-93100000D03*
X175500000Y-98100000D03*
X175500000Y-113100000D03*
X175500000Y-108100000D03*
X175500000Y-78100000D03*
X175500000Y-88100000D03*
X146000000Y-87100000D03*
X170500000Y-98100000D03*
X170500000Y-78100000D03*
X142000000Y-88100000D03*
X144000000Y-105600000D03*
X144000000Y-103850000D03*
X145500000Y-103850000D03*
X138000000Y-103600000D03*
X147000000Y-103850000D03*
X150964207Y-102887207D03*
X138000000Y-105100000D03*
X149000000Y-104600000D03*
X145500000Y-99100000D03*
X147000000Y-99100000D03*
X149000000Y-118100000D03*
X144000000Y-99100000D03*
X133096000Y-90932000D03*
X133096000Y-87376000D03*
X129000000Y-74218000D03*
X175500000Y-83600000D03*
X133096000Y-88392000D03*
X146500000Y-95100000D03*
X150500000Y-95100000D03*
X154000000Y-94600000D03*
X145000000Y-95100000D03*
X149000000Y-95100000D03*
X170500000Y-113100000D03*
X135500000Y-98100000D03*
X130500000Y-98100000D03*
X130500000Y-103100000D03*
X170500000Y-108100000D03*
X148500000Y-83600000D03*
X125500000Y-83100000D03*
X140454083Y-98099999D03*
X170500000Y-103100000D03*
X125500000Y-98100000D03*
X125500000Y-88100000D03*
X125500000Y-93100000D03*
X155000000Y-84600000D03*
X145000000Y-76600000D03*
X140000000Y-76600000D03*
X156500000Y-83600000D03*
X158000000Y-83600000D03*
X161500000Y-84100000D03*
X143500000Y-82100000D03*
X147000000Y-76600000D03*
%TO.N,/NFC/RFI2*%
X163000000Y-115422000D03*
%TO.N,/NFC/RFI1*%
X162369492Y-114745000D03*
X153500000Y-118100000D03*
%TO.N,/NFC/RFI2*%
X154500000Y-118100000D03*
%TO.N,+5V*%
X175500000Y-57100000D03*
X162500000Y-57100000D03*
X150000000Y-57100000D03*
X137000000Y-57100000D03*
%TO.N,+3V3*%
X157000000Y-73154500D03*
%TO.N,/SPI0_MOSI*%
X158000000Y-93600000D03*
X152000000Y-93600000D03*
X166000000Y-92100000D03*
X166000000Y-77100000D03*
%TO.N,/CAPT_YH*%
X173000000Y-83600000D03*
%TO.N,+5V*%
X124500000Y-57100000D03*
%TO.N,+3V3*%
X161500000Y-89100000D03*
X161500000Y-86100000D03*
%TO.N,/CAPT_YH*%
X173000000Y-79100000D03*
%TO.N,/NFC_IRQ*%
X156500000Y-92100000D03*
X148500000Y-92100000D03*
%TO.N,/nRESET*%
X143000000Y-88100000D03*
X147000000Y-88100000D03*
%TO.N,/LEDs/CKI*%
X182000000Y-53848000D03*
%TO.N,/LEDs/SDI*%
X183388000Y-52324000D03*
%TO.N,+BATT*%
X154940000Y-74422000D03*
X154940000Y-66600000D03*
%TO.N,/CAPT_X0*%
X178500000Y-83100000D03*
%TO.N,/CAPT_X2*%
X178500000Y-115600000D03*
%TO.N,/CAPT_X1*%
X170500000Y-99600000D03*
%TO.N,/CAPT_YH*%
X173000000Y-98850000D03*
X173000000Y-114600000D03*
%TO.N,/NFC/ANT_DAMP2*%
X160500000Y-126238000D03*
%TD*%
D15*
%TO.N,/CAPT_YH*%
X173097000Y-98850000D02*
X173110000Y-98863000D01*
X173000000Y-98850000D02*
X173097000Y-98850000D01*
X173110000Y-98863000D02*
X177231000Y-98863000D01*
%TO.N,/CAPT_X1*%
X170500000Y-99600000D02*
X178494000Y-99600000D01*
X178494000Y-99600000D02*
X179231000Y-98863000D01*
D16*
%TO.N,/NFC/ANT_DAMP2*%
X160500000Y-126238000D02*
X160500000Y-117856000D01*
D15*
%TO.N,/NFC/RFI2*%
X163000000Y-115422000D02*
X163178000Y-115422000D01*
X154000000Y-117600000D02*
X154500000Y-118100000D01*
X154428000Y-115422000D02*
X154000000Y-115850000D01*
X154000000Y-115850000D02*
X154000000Y-117600000D01*
X163000000Y-115422000D02*
X154428000Y-115422000D01*
%TO.N,/NFC/RFI1*%
X154133000Y-114967000D02*
X153500000Y-115600000D01*
X162369492Y-114745000D02*
X162147492Y-114967000D01*
X162147492Y-114967000D02*
X154133000Y-114967000D01*
X153500000Y-115600000D02*
X153500000Y-118100000D01*
D17*
%TO.N,+5V*%
X149800000Y-56900000D02*
X150000000Y-57100000D01*
X149800000Y-55448000D02*
X149800000Y-56900000D01*
X162500000Y-55448000D02*
X162500000Y-57100000D01*
X175200000Y-56800000D02*
X175500000Y-57100000D01*
X175200000Y-55448000D02*
X175200000Y-56800000D01*
X137100000Y-57000000D02*
X137000000Y-57100000D01*
X137100000Y-55448000D02*
X137100000Y-57000000D01*
D18*
%TO.N,+BATT*%
X154940000Y-74422000D02*
X154940000Y-66600000D01*
D17*
%TO.N,+3V3*%
X162500000Y-86100000D02*
X161500000Y-86100000D01*
X162000000Y-80100000D02*
X163500000Y-81600000D01*
X159000000Y-80100000D02*
X162000000Y-80100000D01*
X157000000Y-78100000D02*
X159000000Y-80100000D01*
X163500000Y-81600000D02*
X163500000Y-85100000D01*
X157000000Y-73154500D02*
X157000000Y-78100000D01*
X163500000Y-85100000D02*
X162500000Y-86100000D01*
D15*
%TO.N,/LEDs/CKI*%
X182000000Y-53848000D02*
X180400000Y-53848000D01*
D17*
%TO.N,+3V3*%
X161500000Y-86100000D02*
X161500000Y-89100000D01*
D15*
%TO.N,/SPI0_MOSI*%
X152000000Y-93600000D02*
X158000000Y-93600000D01*
X166000000Y-77100000D02*
X166000000Y-92100000D01*
%TO.N,/CAPT_YH*%
X175500000Y-81600000D02*
X175999000Y-82099000D01*
X175999000Y-82099000D02*
X177231000Y-82099000D01*
X175500000Y-80100000D02*
X175500000Y-81600000D01*
X174500000Y-79100000D02*
X175500000Y-80100000D01*
X173000000Y-79100000D02*
X174500000Y-79100000D01*
X173000000Y-83600000D02*
X173000000Y-79100000D01*
D17*
%TO.N,+5V*%
X124400000Y-57000000D02*
X124400000Y-55448000D01*
X124500000Y-57100000D02*
X124400000Y-57000000D01*
D15*
%TO.N,/NFC_IRQ*%
X156500000Y-92100000D02*
X148500000Y-92100000D01*
%TO.N,/nRESET*%
X147000000Y-88100000D02*
X143000000Y-88100000D01*
%TO.N,/LEDs/LED5_CKI*%
X129600000Y-53848000D02*
X137100000Y-53848000D01*
%TO.N,/LEDs/LED5_SDI*%
X137100000Y-52248000D02*
X129600000Y-52248000D01*
%TO.N,/LEDs/LED4_SDI*%
X149800000Y-52248000D02*
X142300000Y-52248000D01*
%TO.N,/LEDs/LED4_CKI*%
X142300000Y-53848000D02*
X149800000Y-53848000D01*
%TO.N,/LEDs/LED3_CKI*%
X162500000Y-53848000D02*
X155000000Y-53848000D01*
%TO.N,/LEDs/LED3_SDI*%
X162500000Y-52248000D02*
X155000000Y-52248000D01*
%TO.N,/LEDs/LED2_SDI*%
X175200000Y-52248000D02*
X167700000Y-52248000D01*
%TO.N,/LEDs/LED2_CKI*%
X167700000Y-53848000D02*
X175200000Y-53848000D01*
%TO.N,/LEDs/SDI*%
X183312000Y-52248000D02*
X180400000Y-52248000D01*
X183388000Y-52324000D02*
X183312000Y-52248000D01*
%TO.N,/CAPT_X0*%
X178500000Y-83100000D02*
X178500000Y-82830000D01*
X178500000Y-82830000D02*
X179231000Y-82099000D01*
%TO.N,/CAPT_X2*%
X178500000Y-115342000D02*
X179231000Y-114611000D01*
X178500000Y-115600000D02*
X178500000Y-115342000D01*
%TO.N,/CAPT_YH*%
X173000000Y-114600000D02*
X173011000Y-114611000D01*
X173011000Y-114611000D02*
X177231000Y-114611000D01*
%TD*%
%TA.AperFunction,Conductor*%
%TO.N,GND*%
G36*
X188411039Y-40151685D02*
G01*
X188456794Y-40204489D01*
X188468000Y-40256000D01*
X188468000Y-71476000D01*
X188448315Y-71543039D01*
X188395511Y-71588794D01*
X188344000Y-71600000D01*
X176000000Y-71600000D01*
X176000000Y-79848251D01*
X175980315Y-79915290D01*
X175927511Y-79961045D01*
X175858353Y-79970989D01*
X175794797Y-79941964D01*
X175768613Y-79910250D01*
X175762069Y-79898916D01*
X175762063Y-79898908D01*
X174701091Y-78837936D01*
X174701090Y-78837935D01*
X174626410Y-78794819D01*
X174626411Y-78794819D01*
X174598645Y-78787379D01*
X174543116Y-78772500D01*
X174543114Y-78772500D01*
X173502387Y-78772500D01*
X173435348Y-78752815D01*
X173414706Y-78736182D01*
X173338015Y-78659491D01*
X173338012Y-78659489D01*
X173338011Y-78659488D01*
X173212488Y-78587017D01*
X173212489Y-78587017D01*
X173201006Y-78583940D01*
X173072475Y-78549500D01*
X172927525Y-78549500D01*
X172798993Y-78583940D01*
X172787511Y-78587017D01*
X172661988Y-78659488D01*
X172661982Y-78659493D01*
X172559493Y-78761982D01*
X172559488Y-78761988D01*
X172487017Y-78887511D01*
X172487016Y-78887515D01*
X172449500Y-79027525D01*
X172449500Y-79172475D01*
X172487016Y-79312485D01*
X172487017Y-79312488D01*
X172559488Y-79438011D01*
X172559493Y-79438017D01*
X172636181Y-79514705D01*
X172669666Y-79576028D01*
X172672500Y-79602386D01*
X172672500Y-83097613D01*
X172652815Y-83164652D01*
X172636182Y-83185294D01*
X172559488Y-83261988D01*
X172487017Y-83387511D01*
X172487016Y-83387515D01*
X172449500Y-83527525D01*
X172449500Y-83672475D01*
X172487016Y-83812485D01*
X172487017Y-83812488D01*
X172559488Y-83938011D01*
X172559490Y-83938013D01*
X172559491Y-83938015D01*
X172661985Y-84040509D01*
X172661986Y-84040510D01*
X172661988Y-84040511D01*
X172787511Y-84112982D01*
X172787512Y-84112982D01*
X172787515Y-84112984D01*
X172927525Y-84150500D01*
X172927528Y-84150500D01*
X173072472Y-84150500D01*
X173072475Y-84150500D01*
X173212485Y-84112984D01*
X173338015Y-84040509D01*
X173440509Y-83938015D01*
X173512984Y-83812485D01*
X173550500Y-83672475D01*
X173550500Y-83527525D01*
X173512984Y-83387515D01*
X173469665Y-83312485D01*
X173440511Y-83261988D01*
X173440510Y-83261987D01*
X173440509Y-83261985D01*
X173363818Y-83185294D01*
X173330334Y-83123970D01*
X173327500Y-83097613D01*
X173327500Y-79602386D01*
X173336144Y-79572948D01*
X173342668Y-79542958D01*
X173346422Y-79537942D01*
X173347185Y-79535347D01*
X173363820Y-79514704D01*
X173414707Y-79463818D01*
X173476030Y-79430334D01*
X173502387Y-79427500D01*
X174312983Y-79427500D01*
X174380022Y-79447185D01*
X174400664Y-79463819D01*
X175136181Y-80199336D01*
X175169666Y-80260659D01*
X175172500Y-80287017D01*
X175172500Y-81556884D01*
X175172500Y-81643116D01*
X175194819Y-81726410D01*
X175237935Y-81801090D01*
X175736935Y-82300090D01*
X175797910Y-82361065D01*
X175872590Y-82404181D01*
X175908094Y-82413694D01*
X175967753Y-82450057D01*
X175998283Y-82512903D01*
X176000000Y-82533468D01*
X176000000Y-98411500D01*
X175980315Y-98478539D01*
X175927511Y-98524294D01*
X175876000Y-98535500D01*
X173515386Y-98535500D01*
X173448347Y-98515815D01*
X173427705Y-98499181D01*
X173338017Y-98409493D01*
X173338011Y-98409488D01*
X173212488Y-98337017D01*
X173212489Y-98337017D01*
X173201006Y-98333940D01*
X173072475Y-98299500D01*
X172927525Y-98299500D01*
X172798993Y-98333940D01*
X172787511Y-98337017D01*
X172661988Y-98409488D01*
X172661982Y-98409493D01*
X172559493Y-98511982D01*
X172559488Y-98511988D01*
X172487017Y-98637511D01*
X172487016Y-98637515D01*
X172449500Y-98777525D01*
X172449500Y-98922475D01*
X172483537Y-99049500D01*
X172487017Y-99062489D01*
X172487018Y-99062490D01*
X172500880Y-99086499D01*
X172517354Y-99154399D01*
X172494502Y-99220426D01*
X172439582Y-99263617D01*
X172393494Y-99272500D01*
X171002387Y-99272500D01*
X170935348Y-99252815D01*
X170914706Y-99236182D01*
X170898774Y-99220250D01*
X170838015Y-99159491D01*
X170838012Y-99159489D01*
X170838011Y-99159488D01*
X170712488Y-99087017D01*
X170712489Y-99087017D01*
X170698449Y-99083255D01*
X170572475Y-99049500D01*
X170427525Y-99049500D01*
X170301551Y-99083255D01*
X170287511Y-99087017D01*
X170161988Y-99159488D01*
X170161982Y-99159493D01*
X170059493Y-99261982D01*
X170059488Y-99261988D01*
X169987017Y-99387511D01*
X169987016Y-99387515D01*
X169949500Y-99527525D01*
X169949500Y-99672475D01*
X169987016Y-99812485D01*
X169987017Y-99812488D01*
X170059488Y-99938011D01*
X170059490Y-99938013D01*
X170059491Y-99938015D01*
X170161985Y-100040509D01*
X170161986Y-100040510D01*
X170161988Y-100040511D01*
X170287511Y-100112982D01*
X170287512Y-100112982D01*
X170287515Y-100112984D01*
X170427525Y-100150500D01*
X170427528Y-100150500D01*
X170572472Y-100150500D01*
X170572475Y-100150500D01*
X170712485Y-100112984D01*
X170838015Y-100040509D01*
X170914706Y-99963818D01*
X170976030Y-99930334D01*
X171002387Y-99927500D01*
X175876000Y-99927500D01*
X175943039Y-99947185D01*
X175988794Y-99999989D01*
X176000000Y-100051500D01*
X176000000Y-114159500D01*
X175980315Y-114226539D01*
X175927511Y-114272294D01*
X175876000Y-114283500D01*
X173513387Y-114283500D01*
X173446348Y-114263815D01*
X173425706Y-114247182D01*
X173387726Y-114209202D01*
X173338015Y-114159491D01*
X173338012Y-114159489D01*
X173338011Y-114159488D01*
X173212488Y-114087017D01*
X173212489Y-114087017D01*
X173201006Y-114083940D01*
X173072475Y-114049500D01*
X172927525Y-114049500D01*
X172798993Y-114083940D01*
X172787511Y-114087017D01*
X172661988Y-114159488D01*
X172661982Y-114159493D01*
X172559493Y-114261982D01*
X172559488Y-114261988D01*
X172487017Y-114387511D01*
X172487016Y-114387515D01*
X172449500Y-114527525D01*
X172449500Y-114672475D01*
X172483406Y-114799011D01*
X172487017Y-114812488D01*
X172559488Y-114938011D01*
X172559490Y-114938013D01*
X172559491Y-114938015D01*
X172661985Y-115040509D01*
X172661986Y-115040510D01*
X172661988Y-115040511D01*
X172787511Y-115112982D01*
X172787512Y-115112982D01*
X172787515Y-115112984D01*
X172927525Y-115150500D01*
X172927528Y-115150500D01*
X173072472Y-115150500D01*
X173072475Y-115150500D01*
X173212485Y-115112984D01*
X173338015Y-115040509D01*
X173403705Y-114974819D01*
X173465028Y-114941334D01*
X173491386Y-114938500D01*
X175876000Y-114938500D01*
X175943039Y-114958185D01*
X175988794Y-115010989D01*
X176000000Y-115062500D01*
X176000000Y-119764000D01*
X175980315Y-119831039D01*
X175927511Y-119876794D01*
X175876000Y-119888000D01*
X161124500Y-119888000D01*
X161057461Y-119868315D01*
X161011706Y-119815511D01*
X161000500Y-119764000D01*
X161000500Y-118123288D01*
X161009941Y-118075831D01*
X161012982Y-118068488D01*
X161012981Y-118068488D01*
X161012984Y-118068485D01*
X161050500Y-117928475D01*
X161050500Y-117783525D01*
X161012984Y-117643515D01*
X160986482Y-117597613D01*
X160940511Y-117517988D01*
X160940506Y-117517982D01*
X160838017Y-117415493D01*
X160838011Y-117415488D01*
X160712488Y-117343017D01*
X160712489Y-117343017D01*
X160701006Y-117339940D01*
X160572475Y-117305500D01*
X160427525Y-117305500D01*
X160298993Y-117339940D01*
X160287511Y-117343017D01*
X160161988Y-117415488D01*
X160161982Y-117415493D01*
X160059493Y-117517982D01*
X160059488Y-117517988D01*
X159987017Y-117643511D01*
X159987016Y-117643515D01*
X159949500Y-117783525D01*
X159949500Y-117928475D01*
X159987016Y-118068485D01*
X159987017Y-118068488D01*
X159990059Y-118075831D01*
X159999500Y-118123288D01*
X159999500Y-119764000D01*
X159979815Y-119831039D01*
X159927011Y-119876794D01*
X159875500Y-119888000D01*
X116456000Y-119888000D01*
X116388961Y-119868315D01*
X116343206Y-119815511D01*
X116332000Y-119764000D01*
X116332000Y-118027525D01*
X152949500Y-118027525D01*
X152949500Y-118172475D01*
X152987016Y-118312485D01*
X152987017Y-118312488D01*
X153059488Y-118438011D01*
X153059490Y-118438013D01*
X153059491Y-118438015D01*
X153161985Y-118540509D01*
X153161986Y-118540510D01*
X153161988Y-118540511D01*
X153287511Y-118612982D01*
X153287512Y-118612982D01*
X153287515Y-118612984D01*
X153427525Y-118650500D01*
X153427528Y-118650500D01*
X153572472Y-118650500D01*
X153572475Y-118650500D01*
X153712485Y-118612984D01*
X153838015Y-118540509D01*
X153912319Y-118466205D01*
X153973642Y-118432720D01*
X154043334Y-118437704D01*
X154087681Y-118466205D01*
X154161985Y-118540509D01*
X154161986Y-118540510D01*
X154161988Y-118540511D01*
X154287511Y-118612982D01*
X154287512Y-118612982D01*
X154287515Y-118612984D01*
X154427525Y-118650500D01*
X154427528Y-118650500D01*
X154572472Y-118650500D01*
X154572475Y-118650500D01*
X154712485Y-118612984D01*
X154838015Y-118540509D01*
X154940509Y-118438015D01*
X155012984Y-118312485D01*
X155050500Y-118172475D01*
X155050500Y-118027525D01*
X155012984Y-117887515D01*
X154952946Y-117783527D01*
X154940511Y-117761988D01*
X154940506Y-117761982D01*
X154838017Y-117659493D01*
X154838011Y-117659488D01*
X154712488Y-117587017D01*
X154712489Y-117587017D01*
X154701006Y-117583940D01*
X154572475Y-117549500D01*
X154464017Y-117549500D01*
X154434576Y-117540855D01*
X154404590Y-117534332D01*
X154399574Y-117530577D01*
X154396978Y-117529815D01*
X154376336Y-117513181D01*
X154363819Y-117500664D01*
X154330334Y-117439341D01*
X154327500Y-117412983D01*
X154327500Y-116037017D01*
X154347185Y-115969978D01*
X154363819Y-115949336D01*
X154527336Y-115785819D01*
X154588659Y-115752334D01*
X154615017Y-115749500D01*
X162497613Y-115749500D01*
X162564652Y-115769185D01*
X162585294Y-115785818D01*
X162661985Y-115862509D01*
X162661987Y-115862510D01*
X162661988Y-115862511D01*
X162787511Y-115934982D01*
X162787512Y-115934982D01*
X162787515Y-115934984D01*
X162927525Y-115972500D01*
X162927528Y-115972500D01*
X163072472Y-115972500D01*
X163072475Y-115972500D01*
X163212485Y-115934984D01*
X163338015Y-115862509D01*
X163440509Y-115760015D01*
X163512984Y-115634485D01*
X163550500Y-115494475D01*
X163550500Y-115349525D01*
X163512984Y-115209515D01*
X163501178Y-115189067D01*
X163440511Y-115083988D01*
X163440506Y-115083982D01*
X163338017Y-114981493D01*
X163338011Y-114981488D01*
X163212488Y-114909017D01*
X163212489Y-114909017D01*
X163201006Y-114905940D01*
X163072475Y-114871500D01*
X163043992Y-114871500D01*
X162976953Y-114851815D01*
X162931198Y-114799011D01*
X162919992Y-114747500D01*
X162919992Y-114672527D01*
X162919992Y-114672525D01*
X162882476Y-114532515D01*
X162859076Y-114491986D01*
X162810003Y-114406988D01*
X162809998Y-114406982D01*
X162707509Y-114304493D01*
X162707503Y-114304488D01*
X162581980Y-114232017D01*
X162581981Y-114232017D01*
X162561537Y-114226539D01*
X162441967Y-114194500D01*
X162297017Y-114194500D01*
X162177447Y-114226539D01*
X162157003Y-114232017D01*
X162031480Y-114304488D01*
X162031474Y-114304493D01*
X161928985Y-114406982D01*
X161928980Y-114406988D01*
X161856509Y-114532510D01*
X161856508Y-114532515D01*
X161852466Y-114547597D01*
X161816102Y-114607255D01*
X161753255Y-114637783D01*
X161732693Y-114639500D01*
X154176116Y-114639500D01*
X154089884Y-114639500D01*
X154034354Y-114654379D01*
X154006589Y-114661819D01*
X153931911Y-114704934D01*
X153931908Y-114704936D01*
X153237936Y-115398908D01*
X153237934Y-115398911D01*
X153194819Y-115473589D01*
X153172500Y-115556885D01*
X153172500Y-117597613D01*
X153152815Y-117664652D01*
X153136182Y-117685294D01*
X153059488Y-117761988D01*
X152987017Y-117887511D01*
X152987016Y-117887515D01*
X152949500Y-118027525D01*
X116332000Y-118027525D01*
X116332000Y-93527525D01*
X151449500Y-93527525D01*
X151449500Y-93672475D01*
X151487016Y-93812485D01*
X151487017Y-93812488D01*
X151559488Y-93938011D01*
X151559490Y-93938013D01*
X151559491Y-93938015D01*
X151661985Y-94040509D01*
X151661986Y-94040510D01*
X151661988Y-94040511D01*
X151787511Y-94112982D01*
X151787512Y-94112982D01*
X151787515Y-94112984D01*
X151927525Y-94150500D01*
X151927528Y-94150500D01*
X152072472Y-94150500D01*
X152072475Y-94150500D01*
X152212485Y-94112984D01*
X152338015Y-94040509D01*
X152414706Y-93963818D01*
X152476030Y-93930334D01*
X152502387Y-93927500D01*
X157497613Y-93927500D01*
X157564652Y-93947185D01*
X157585294Y-93963818D01*
X157661985Y-94040509D01*
X157661987Y-94040510D01*
X157661988Y-94040511D01*
X157787511Y-94112982D01*
X157787512Y-94112982D01*
X157787515Y-94112984D01*
X157927525Y-94150500D01*
X157927528Y-94150500D01*
X158072472Y-94150500D01*
X158072475Y-94150500D01*
X158212485Y-94112984D01*
X158338015Y-94040509D01*
X158440509Y-93938015D01*
X158512984Y-93812485D01*
X158550500Y-93672475D01*
X158550500Y-93527525D01*
X158512984Y-93387515D01*
X158440509Y-93261985D01*
X158338015Y-93159491D01*
X158338013Y-93159490D01*
X158338011Y-93159488D01*
X158212488Y-93087017D01*
X158212489Y-93087017D01*
X158201006Y-93083940D01*
X158072475Y-93049500D01*
X157927525Y-93049500D01*
X157798993Y-93083940D01*
X157787511Y-93087017D01*
X157661988Y-93159488D01*
X157585294Y-93236182D01*
X157523970Y-93269666D01*
X157497613Y-93272500D01*
X152502387Y-93272500D01*
X152435348Y-93252815D01*
X152414706Y-93236182D01*
X152338015Y-93159491D01*
X152338012Y-93159489D01*
X152338011Y-93159488D01*
X152212488Y-93087017D01*
X152212489Y-93087017D01*
X152201006Y-93083940D01*
X152072475Y-93049500D01*
X151927525Y-93049500D01*
X151798993Y-93083940D01*
X151787511Y-93087017D01*
X151661988Y-93159488D01*
X151661982Y-93159493D01*
X151559493Y-93261982D01*
X151559488Y-93261988D01*
X151487017Y-93387511D01*
X151487016Y-93387515D01*
X151449500Y-93527525D01*
X116332000Y-93527525D01*
X116332000Y-92027525D01*
X147949500Y-92027525D01*
X147949500Y-92172475D01*
X147987016Y-92312485D01*
X147987017Y-92312488D01*
X148059488Y-92438011D01*
X148059490Y-92438013D01*
X148059491Y-92438015D01*
X148161985Y-92540509D01*
X148161986Y-92540510D01*
X148161988Y-92540511D01*
X148287511Y-92612982D01*
X148287512Y-92612982D01*
X148287515Y-92612984D01*
X148427525Y-92650500D01*
X148427528Y-92650500D01*
X148572472Y-92650500D01*
X148572475Y-92650500D01*
X148712485Y-92612984D01*
X148838015Y-92540509D01*
X148914706Y-92463818D01*
X148976030Y-92430334D01*
X149002387Y-92427500D01*
X155997613Y-92427500D01*
X156064652Y-92447185D01*
X156085294Y-92463818D01*
X156161985Y-92540509D01*
X156161987Y-92540510D01*
X156161988Y-92540511D01*
X156287511Y-92612982D01*
X156287512Y-92612982D01*
X156287515Y-92612984D01*
X156427525Y-92650500D01*
X156427528Y-92650500D01*
X156572472Y-92650500D01*
X156572475Y-92650500D01*
X156712485Y-92612984D01*
X156838015Y-92540509D01*
X156940509Y-92438015D01*
X157012984Y-92312485D01*
X157050500Y-92172475D01*
X157050500Y-92027525D01*
X157012984Y-91887515D01*
X156940509Y-91761985D01*
X156838015Y-91659491D01*
X156838013Y-91659490D01*
X156838011Y-91659488D01*
X156712488Y-91587017D01*
X156712489Y-91587017D01*
X156701006Y-91583940D01*
X156572475Y-91549500D01*
X156427525Y-91549500D01*
X156298993Y-91583940D01*
X156287511Y-91587017D01*
X156161988Y-91659488D01*
X156085294Y-91736182D01*
X156023970Y-91769666D01*
X155997613Y-91772500D01*
X149002387Y-91772500D01*
X148935348Y-91752815D01*
X148914706Y-91736182D01*
X148838015Y-91659491D01*
X148838012Y-91659489D01*
X148838011Y-91659488D01*
X148712488Y-91587017D01*
X148712489Y-91587017D01*
X148701006Y-91583940D01*
X148572475Y-91549500D01*
X148427525Y-91549500D01*
X148298993Y-91583940D01*
X148287511Y-91587017D01*
X148161988Y-91659488D01*
X148161982Y-91659493D01*
X148059493Y-91761982D01*
X148059488Y-91761988D01*
X147987017Y-91887511D01*
X147987016Y-91887515D01*
X147949500Y-92027525D01*
X116332000Y-92027525D01*
X116332000Y-88027525D01*
X142449500Y-88027525D01*
X142449500Y-88172475D01*
X142487016Y-88312485D01*
X142487017Y-88312488D01*
X142559488Y-88438011D01*
X142559490Y-88438013D01*
X142559491Y-88438015D01*
X142661985Y-88540509D01*
X142661986Y-88540510D01*
X142661988Y-88540511D01*
X142787511Y-88612982D01*
X142787512Y-88612982D01*
X142787515Y-88612984D01*
X142927525Y-88650500D01*
X142927528Y-88650500D01*
X143072472Y-88650500D01*
X143072475Y-88650500D01*
X143212485Y-88612984D01*
X143338015Y-88540509D01*
X143414706Y-88463818D01*
X143476030Y-88430334D01*
X143502387Y-88427500D01*
X146497613Y-88427500D01*
X146564652Y-88447185D01*
X146585294Y-88463818D01*
X146661985Y-88540509D01*
X146661987Y-88540510D01*
X146661988Y-88540511D01*
X146787511Y-88612982D01*
X146787512Y-88612982D01*
X146787515Y-88612984D01*
X146927525Y-88650500D01*
X146927528Y-88650500D01*
X147072472Y-88650500D01*
X147072475Y-88650500D01*
X147212485Y-88612984D01*
X147338015Y-88540509D01*
X147440509Y-88438015D01*
X147512984Y-88312485D01*
X147550500Y-88172475D01*
X147550500Y-88027525D01*
X147512984Y-87887515D01*
X147440509Y-87761985D01*
X147338015Y-87659491D01*
X147338013Y-87659490D01*
X147338011Y-87659488D01*
X147212488Y-87587017D01*
X147212489Y-87587017D01*
X147201006Y-87583940D01*
X147072475Y-87549500D01*
X146927525Y-87549500D01*
X146798993Y-87583940D01*
X146787511Y-87587017D01*
X146661988Y-87659488D01*
X146585294Y-87736182D01*
X146523970Y-87769666D01*
X146497613Y-87772500D01*
X143502387Y-87772500D01*
X143435348Y-87752815D01*
X143414706Y-87736182D01*
X143338015Y-87659491D01*
X143338012Y-87659489D01*
X143338011Y-87659488D01*
X143212488Y-87587017D01*
X143212489Y-87587017D01*
X143201006Y-87583940D01*
X143072475Y-87549500D01*
X142927525Y-87549500D01*
X142798993Y-87583940D01*
X142787511Y-87587017D01*
X142661988Y-87659488D01*
X142661982Y-87659493D01*
X142559493Y-87761982D01*
X142559488Y-87761988D01*
X142487017Y-87887511D01*
X142487016Y-87887515D01*
X142449500Y-88027525D01*
X116332000Y-88027525D01*
X116332000Y-78168996D01*
X156299499Y-78168996D01*
X156326418Y-78304322D01*
X156326421Y-78304332D01*
X156379222Y-78431807D01*
X156455887Y-78546545D01*
X158553454Y-80644112D01*
X158668192Y-80720777D01*
X158771148Y-80763422D01*
X158795672Y-80773580D01*
X158795676Y-80773580D01*
X158795677Y-80773581D01*
X158931004Y-80800500D01*
X158931007Y-80800500D01*
X161658481Y-80800500D01*
X161725520Y-80820185D01*
X161746162Y-80836819D01*
X162763181Y-81853837D01*
X162796666Y-81915160D01*
X162799500Y-81941518D01*
X162799500Y-84758481D01*
X162779815Y-84825520D01*
X162763181Y-84846162D01*
X162246162Y-85363181D01*
X162184839Y-85396666D01*
X162158481Y-85399500D01*
X161431005Y-85399500D01*
X161295677Y-85426418D01*
X161295667Y-85426421D01*
X161168195Y-85479221D01*
X161168182Y-85479228D01*
X161053458Y-85555885D01*
X161053454Y-85555888D01*
X160955888Y-85653454D01*
X160955885Y-85653458D01*
X160879228Y-85768182D01*
X160879221Y-85768195D01*
X160826421Y-85895667D01*
X160826418Y-85895677D01*
X160799500Y-86031004D01*
X160799500Y-86031007D01*
X160799500Y-89168993D01*
X160799500Y-89168995D01*
X160799499Y-89168995D01*
X160826418Y-89304322D01*
X160826421Y-89304332D01*
X160879221Y-89431804D01*
X160879228Y-89431817D01*
X160955885Y-89546541D01*
X160955888Y-89546545D01*
X161053454Y-89644111D01*
X161053458Y-89644114D01*
X161168182Y-89720771D01*
X161168195Y-89720778D01*
X161295667Y-89773578D01*
X161295672Y-89773580D01*
X161295676Y-89773580D01*
X161295677Y-89773581D01*
X161431004Y-89800500D01*
X161431007Y-89800500D01*
X161568995Y-89800500D01*
X161660041Y-89782389D01*
X161704328Y-89773580D01*
X161831811Y-89720775D01*
X161946542Y-89644114D01*
X162044114Y-89546542D01*
X162120775Y-89431811D01*
X162129527Y-89410683D01*
X162173578Y-89304332D01*
X162173580Y-89304328D01*
X162200500Y-89168993D01*
X162200500Y-86924500D01*
X162220185Y-86857461D01*
X162272989Y-86811706D01*
X162324500Y-86800500D01*
X162568996Y-86800500D01*
X162660040Y-86782389D01*
X162704328Y-86773580D01*
X162768069Y-86747177D01*
X162831807Y-86720777D01*
X162831808Y-86720776D01*
X162831811Y-86720775D01*
X162946543Y-86644114D01*
X164044114Y-85546543D01*
X164120775Y-85431811D01*
X164135333Y-85396666D01*
X164173578Y-85304332D01*
X164173580Y-85304328D01*
X164200500Y-85168994D01*
X164200500Y-85031006D01*
X164200500Y-81531007D01*
X164200500Y-81531004D01*
X164173580Y-81395674D01*
X164173580Y-81395672D01*
X164172680Y-81393500D01*
X164122894Y-81273305D01*
X164120775Y-81268189D01*
X164044114Y-81153458D01*
X163946542Y-81055886D01*
X163611431Y-80720775D01*
X162446546Y-79555888D01*
X162446545Y-79555887D01*
X162331807Y-79479222D01*
X162204332Y-79426421D01*
X162204322Y-79426418D01*
X162068996Y-79399500D01*
X162068994Y-79399500D01*
X162068993Y-79399500D01*
X159341519Y-79399500D01*
X159274480Y-79379815D01*
X159253838Y-79363181D01*
X157736819Y-77846162D01*
X157703334Y-77784839D01*
X157700500Y-77758481D01*
X157700500Y-77027525D01*
X165449500Y-77027525D01*
X165449500Y-77172475D01*
X165487016Y-77312485D01*
X165487017Y-77312488D01*
X165559488Y-77438011D01*
X165559493Y-77438017D01*
X165636181Y-77514705D01*
X165669666Y-77576028D01*
X165672500Y-77602386D01*
X165672500Y-91597613D01*
X165652815Y-91664652D01*
X165636182Y-91685294D01*
X165559488Y-91761988D01*
X165487017Y-91887511D01*
X165487016Y-91887515D01*
X165449500Y-92027525D01*
X165449500Y-92172475D01*
X165487016Y-92312485D01*
X165487017Y-92312488D01*
X165559488Y-92438011D01*
X165559490Y-92438013D01*
X165559491Y-92438015D01*
X165661985Y-92540509D01*
X165661986Y-92540510D01*
X165661988Y-92540511D01*
X165787511Y-92612982D01*
X165787512Y-92612982D01*
X165787515Y-92612984D01*
X165927525Y-92650500D01*
X165927528Y-92650500D01*
X166072472Y-92650500D01*
X166072475Y-92650500D01*
X166212485Y-92612984D01*
X166338015Y-92540509D01*
X166440509Y-92438015D01*
X166512984Y-92312485D01*
X166550500Y-92172475D01*
X166550500Y-92027525D01*
X166512984Y-91887515D01*
X166440509Y-91761985D01*
X166363818Y-91685294D01*
X166330334Y-91623970D01*
X166327500Y-91597613D01*
X166327500Y-77602386D01*
X166347185Y-77535347D01*
X166363819Y-77514705D01*
X166440509Y-77438015D01*
X166512984Y-77312485D01*
X166550500Y-77172475D01*
X166550500Y-77027525D01*
X166512984Y-76887515D01*
X166440509Y-76761985D01*
X166338015Y-76659491D01*
X166338013Y-76659490D01*
X166338011Y-76659488D01*
X166212488Y-76587017D01*
X166212489Y-76587017D01*
X166201006Y-76583940D01*
X166072475Y-76549500D01*
X165927525Y-76549500D01*
X165798993Y-76583940D01*
X165787511Y-76587017D01*
X165661988Y-76659488D01*
X165661982Y-76659493D01*
X165559493Y-76761982D01*
X165559488Y-76761988D01*
X165487017Y-76887511D01*
X165487016Y-76887515D01*
X165449500Y-77027525D01*
X157700500Y-77027525D01*
X157700500Y-73085504D01*
X157673581Y-72950177D01*
X157673580Y-72950176D01*
X157673580Y-72950172D01*
X157673578Y-72950167D01*
X157620778Y-72822695D01*
X157620771Y-72822682D01*
X157544114Y-72707958D01*
X157544111Y-72707954D01*
X157446545Y-72610388D01*
X157446541Y-72610385D01*
X157331817Y-72533728D01*
X157331804Y-72533721D01*
X157204332Y-72480921D01*
X157204322Y-72480918D01*
X157068995Y-72454000D01*
X157068993Y-72454000D01*
X156931007Y-72454000D01*
X156931005Y-72454000D01*
X156795677Y-72480918D01*
X156795667Y-72480921D01*
X156668195Y-72533721D01*
X156668182Y-72533728D01*
X156553458Y-72610385D01*
X156553454Y-72610388D01*
X156455888Y-72707954D01*
X156455885Y-72707958D01*
X156379228Y-72822682D01*
X156379221Y-72822695D01*
X156326421Y-72950167D01*
X156326418Y-72950177D01*
X156299500Y-73085504D01*
X156299500Y-73085507D01*
X156299500Y-78031006D01*
X156299500Y-78168994D01*
X156299500Y-78168996D01*
X156299499Y-78168996D01*
X116332000Y-78168996D01*
X116332000Y-66527525D01*
X154389500Y-66527525D01*
X154389500Y-66672475D01*
X154427016Y-66812485D01*
X154427017Y-66812488D01*
X154499488Y-66938011D01*
X154499493Y-66938017D01*
X154503181Y-66941705D01*
X154536666Y-67003028D01*
X154539500Y-67029386D01*
X154539500Y-73992614D01*
X154519815Y-74059653D01*
X154503181Y-74080295D01*
X154499493Y-74083982D01*
X154499488Y-74083988D01*
X154427017Y-74209511D01*
X154427016Y-74209515D01*
X154389500Y-74349525D01*
X154389500Y-74494475D01*
X154427016Y-74634485D01*
X154427017Y-74634488D01*
X154499488Y-74760011D01*
X154499490Y-74760013D01*
X154499491Y-74760015D01*
X154601985Y-74862509D01*
X154601986Y-74862510D01*
X154601988Y-74862511D01*
X154727511Y-74934982D01*
X154727512Y-74934982D01*
X154727515Y-74934984D01*
X154867525Y-74972500D01*
X154867528Y-74972500D01*
X155012472Y-74972500D01*
X155012475Y-74972500D01*
X155152485Y-74934984D01*
X155278015Y-74862509D01*
X155380509Y-74760015D01*
X155452984Y-74634485D01*
X155490500Y-74494475D01*
X155490500Y-74349525D01*
X155452984Y-74209515D01*
X155380509Y-74083985D01*
X155376819Y-74080295D01*
X155343334Y-74018972D01*
X155340500Y-73992614D01*
X155340500Y-67029386D01*
X155360185Y-66962347D01*
X155376819Y-66941705D01*
X155380509Y-66938015D01*
X155452984Y-66812485D01*
X155490500Y-66672475D01*
X155490500Y-66527525D01*
X155452984Y-66387515D01*
X155380509Y-66261985D01*
X155278015Y-66159491D01*
X155278013Y-66159490D01*
X155278011Y-66159488D01*
X155152488Y-66087017D01*
X155152489Y-66087017D01*
X155141006Y-66083940D01*
X155012475Y-66049500D01*
X154867525Y-66049500D01*
X154738993Y-66083940D01*
X154727511Y-66087017D01*
X154601988Y-66159488D01*
X154601982Y-66159493D01*
X154499493Y-66261982D01*
X154499488Y-66261988D01*
X154427017Y-66387511D01*
X154427016Y-66387515D01*
X154389500Y-66527525D01*
X116332000Y-66527525D01*
X116332000Y-62372549D01*
X129364700Y-62372549D01*
X129364700Y-62595450D01*
X129364701Y-62595466D01*
X129393794Y-62816452D01*
X129393795Y-62816457D01*
X129393796Y-62816463D01*
X129451490Y-63031780D01*
X129451493Y-63031790D01*
X129464873Y-63064091D01*
X129536795Y-63237726D01*
X129648252Y-63430774D01*
X129648257Y-63430780D01*
X129648258Y-63430782D01*
X129783951Y-63607622D01*
X129783957Y-63607629D01*
X129941570Y-63765242D01*
X129941577Y-63765248D01*
X129954220Y-63774949D01*
X130118426Y-63900948D01*
X130311474Y-64012405D01*
X130517419Y-64097710D01*
X130732737Y-64155404D01*
X130953743Y-64184500D01*
X130953750Y-64184500D01*
X131176650Y-64184500D01*
X131176657Y-64184500D01*
X131397663Y-64155404D01*
X131612981Y-64097710D01*
X131818926Y-64012405D01*
X132011974Y-63900948D01*
X132188824Y-63765247D01*
X132346447Y-63607624D01*
X132482148Y-63430774D01*
X132593605Y-63237726D01*
X132678910Y-63031781D01*
X132736604Y-62816463D01*
X132765700Y-62595457D01*
X132765700Y-62372549D01*
X136984700Y-62372549D01*
X136984700Y-62595450D01*
X136984701Y-62595466D01*
X137013794Y-62816452D01*
X137013795Y-62816457D01*
X137013796Y-62816463D01*
X137071490Y-63031780D01*
X137071493Y-63031790D01*
X137084873Y-63064091D01*
X137156795Y-63237726D01*
X137268252Y-63430774D01*
X137268257Y-63430780D01*
X137268258Y-63430782D01*
X137403951Y-63607622D01*
X137403957Y-63607629D01*
X137561570Y-63765242D01*
X137561577Y-63765248D01*
X137574220Y-63774949D01*
X137738426Y-63900948D01*
X137931474Y-64012405D01*
X138137419Y-64097710D01*
X138352737Y-64155404D01*
X138573743Y-64184500D01*
X138573750Y-64184500D01*
X138796650Y-64184500D01*
X138796657Y-64184500D01*
X139017663Y-64155404D01*
X139232981Y-64097710D01*
X139438926Y-64012405D01*
X139631974Y-63900948D01*
X139650495Y-63886735D01*
X139796181Y-63774949D01*
X139796181Y-63774948D01*
X139808824Y-63765247D01*
X139966447Y-63607624D01*
X140102148Y-63430774D01*
X140213605Y-63237726D01*
X140298910Y-63031781D01*
X140356604Y-62816463D01*
X140385700Y-62595457D01*
X140385700Y-62372543D01*
X140384842Y-62366028D01*
X140384840Y-62366014D01*
X164314800Y-62366014D01*
X164314800Y-62601985D01*
X164345599Y-62835914D01*
X164406670Y-63063837D01*
X164496960Y-63281819D01*
X164496965Y-63281828D01*
X164614944Y-63486171D01*
X164614945Y-63486172D01*
X164677521Y-63567723D01*
X165317112Y-62928132D01*
X165407957Y-63064091D01*
X165534709Y-63190843D01*
X165670666Y-63281686D01*
X165031075Y-63921277D01*
X165112627Y-63983854D01*
X165112628Y-63983855D01*
X165316971Y-64101834D01*
X165316980Y-64101839D01*
X165534963Y-64192129D01*
X165534961Y-64192129D01*
X165762885Y-64253200D01*
X165996814Y-64283999D01*
X165996829Y-64284000D01*
X166232771Y-64284000D01*
X166232785Y-64283999D01*
X166466714Y-64253200D01*
X166694637Y-64192129D01*
X166912619Y-64101839D01*
X166912628Y-64101834D01*
X167116981Y-63983850D01*
X167198523Y-63921279D01*
X167198523Y-63921276D01*
X166558933Y-63281686D01*
X166694891Y-63190843D01*
X166821643Y-63064091D01*
X166912486Y-62928133D01*
X167552076Y-63567723D01*
X167552079Y-63567723D01*
X167614650Y-63486181D01*
X167732634Y-63281828D01*
X167732639Y-63281819D01*
X167822929Y-63063837D01*
X167884000Y-62835914D01*
X167914799Y-62601985D01*
X167914800Y-62601971D01*
X167914800Y-62366028D01*
X167914799Y-62366014D01*
X171934800Y-62366014D01*
X171934800Y-62601985D01*
X171965599Y-62835914D01*
X172026670Y-63063837D01*
X172116960Y-63281819D01*
X172116965Y-63281828D01*
X172234944Y-63486171D01*
X172234945Y-63486172D01*
X172297521Y-63567723D01*
X172937112Y-62928132D01*
X173027957Y-63064091D01*
X173154709Y-63190843D01*
X173290666Y-63281686D01*
X172651075Y-63921277D01*
X172732627Y-63983854D01*
X172732628Y-63983855D01*
X172936971Y-64101834D01*
X172936980Y-64101839D01*
X173154963Y-64192129D01*
X173154961Y-64192129D01*
X173382885Y-64253200D01*
X173616814Y-64283999D01*
X173616829Y-64284000D01*
X173852771Y-64284000D01*
X173852785Y-64283999D01*
X174086714Y-64253200D01*
X174314637Y-64192129D01*
X174532619Y-64101839D01*
X174532628Y-64101834D01*
X174736981Y-63983850D01*
X174818523Y-63921279D01*
X174818523Y-63921276D01*
X174178933Y-63281686D01*
X174314891Y-63190843D01*
X174441643Y-63064091D01*
X174532486Y-62928133D01*
X175172076Y-63567723D01*
X175172079Y-63567723D01*
X175234650Y-63486181D01*
X175352634Y-63281828D01*
X175352639Y-63281819D01*
X175442929Y-63063837D01*
X175504000Y-62835914D01*
X175534799Y-62601985D01*
X175534800Y-62601971D01*
X175534800Y-62366028D01*
X175534799Y-62366014D01*
X175504000Y-62132085D01*
X175442929Y-61904162D01*
X175352639Y-61686180D01*
X175352634Y-61686171D01*
X175234655Y-61481828D01*
X175234654Y-61481827D01*
X175172077Y-61400275D01*
X174532486Y-62039866D01*
X174441643Y-61903909D01*
X174314891Y-61777157D01*
X174178932Y-61686312D01*
X174818523Y-61046721D01*
X174736972Y-60984145D01*
X174736971Y-60984144D01*
X174532628Y-60866165D01*
X174532619Y-60866160D01*
X174314636Y-60775870D01*
X174314638Y-60775870D01*
X174086714Y-60714799D01*
X173852785Y-60684000D01*
X173616814Y-60684000D01*
X173382885Y-60714799D01*
X173154962Y-60775870D01*
X172936980Y-60866160D01*
X172936971Y-60866165D01*
X172732628Y-60984144D01*
X172732618Y-60984150D01*
X172651075Y-61046720D01*
X172651075Y-61046721D01*
X173290666Y-61686312D01*
X173154709Y-61777157D01*
X173027957Y-61903909D01*
X172937112Y-62039866D01*
X172297521Y-61400275D01*
X172297520Y-61400275D01*
X172234950Y-61481818D01*
X172234944Y-61481828D01*
X172116965Y-61686171D01*
X172116960Y-61686180D01*
X172026670Y-61904162D01*
X171965599Y-62132085D01*
X171934800Y-62366014D01*
X167914799Y-62366014D01*
X167884000Y-62132085D01*
X167822929Y-61904162D01*
X167732639Y-61686180D01*
X167732634Y-61686171D01*
X167614655Y-61481828D01*
X167614654Y-61481827D01*
X167552077Y-61400275D01*
X166912486Y-62039866D01*
X166821643Y-61903909D01*
X166694891Y-61777157D01*
X166558932Y-61686312D01*
X167198523Y-61046721D01*
X167116972Y-60984145D01*
X167116971Y-60984144D01*
X166912628Y-60866165D01*
X166912619Y-60866160D01*
X166694636Y-60775870D01*
X166694638Y-60775870D01*
X166466714Y-60714799D01*
X166232785Y-60684000D01*
X165996814Y-60684000D01*
X165762885Y-60714799D01*
X165534962Y-60775870D01*
X165316980Y-60866160D01*
X165316971Y-60866165D01*
X165112628Y-60984144D01*
X165112618Y-60984150D01*
X165031075Y-61046720D01*
X165031075Y-61046721D01*
X165670666Y-61686312D01*
X165534709Y-61777157D01*
X165407957Y-61903909D01*
X165317113Y-62039866D01*
X164677521Y-61400275D01*
X164677520Y-61400275D01*
X164614950Y-61481818D01*
X164614944Y-61481828D01*
X164496965Y-61686171D01*
X164496960Y-61686180D01*
X164406670Y-61904162D01*
X164345599Y-62132085D01*
X164314800Y-62366014D01*
X140384840Y-62366014D01*
X140356605Y-62151547D01*
X140356604Y-62151537D01*
X140298910Y-61936219D01*
X140213605Y-61730274D01*
X140102148Y-61537226D01*
X140059632Y-61481818D01*
X139966448Y-61360377D01*
X139966442Y-61360370D01*
X139808825Y-61202753D01*
X139796180Y-61193051D01*
X139796179Y-61193050D01*
X139631982Y-61067058D01*
X139631980Y-61067057D01*
X139631974Y-61067052D01*
X139438926Y-60955595D01*
X139438922Y-60955593D01*
X139232990Y-60870293D01*
X139232983Y-60870291D01*
X139232981Y-60870290D01*
X139017663Y-60812596D01*
X139017657Y-60812595D01*
X139017652Y-60812594D01*
X138796666Y-60783501D01*
X138796663Y-60783500D01*
X138796657Y-60783500D01*
X138573743Y-60783500D01*
X138573737Y-60783500D01*
X138573733Y-60783501D01*
X138352747Y-60812594D01*
X138352740Y-60812595D01*
X138352737Y-60812596D01*
X138152832Y-60866160D01*
X138137419Y-60870290D01*
X138137409Y-60870293D01*
X137931477Y-60955593D01*
X137931473Y-60955595D01*
X137738426Y-61067052D01*
X137738417Y-61067058D01*
X137561577Y-61202751D01*
X137561570Y-61202757D01*
X137403957Y-61360370D01*
X137403951Y-61360377D01*
X137268258Y-61537217D01*
X137268252Y-61537226D01*
X137156795Y-61730273D01*
X137156793Y-61730277D01*
X137071493Y-61936209D01*
X137071490Y-61936219D01*
X137013797Y-62151534D01*
X137013794Y-62151547D01*
X136984701Y-62372533D01*
X136984700Y-62372549D01*
X132765700Y-62372549D01*
X132765700Y-62372543D01*
X132736604Y-62151537D01*
X132678910Y-61936219D01*
X132593605Y-61730274D01*
X132482148Y-61537226D01*
X132439632Y-61481818D01*
X132346448Y-61360377D01*
X132346442Y-61360370D01*
X132188829Y-61202757D01*
X132188822Y-61202751D01*
X132011982Y-61067058D01*
X132011980Y-61067057D01*
X132011974Y-61067052D01*
X131818926Y-60955595D01*
X131818922Y-60955593D01*
X131612990Y-60870293D01*
X131612983Y-60870291D01*
X131612981Y-60870290D01*
X131397663Y-60812596D01*
X131397657Y-60812595D01*
X131397652Y-60812594D01*
X131176666Y-60783501D01*
X131176663Y-60783500D01*
X131176657Y-60783500D01*
X130953743Y-60783500D01*
X130953737Y-60783500D01*
X130953733Y-60783501D01*
X130732747Y-60812594D01*
X130732740Y-60812595D01*
X130732737Y-60812596D01*
X130532832Y-60866160D01*
X130517419Y-60870290D01*
X130517409Y-60870293D01*
X130311477Y-60955593D01*
X130311473Y-60955595D01*
X130118426Y-61067052D01*
X130118417Y-61067058D01*
X129941577Y-61202751D01*
X129941570Y-61202757D01*
X129783957Y-61360370D01*
X129783951Y-61360377D01*
X129648258Y-61537217D01*
X129648252Y-61537226D01*
X129536795Y-61730273D01*
X129536793Y-61730277D01*
X129451493Y-61936209D01*
X129451490Y-61936219D01*
X129393797Y-62151534D01*
X129393794Y-62151547D01*
X129364701Y-62372533D01*
X129364700Y-62372549D01*
X116332000Y-62372549D01*
X116332000Y-51900127D01*
X123299500Y-51900127D01*
X123299500Y-51900134D01*
X123299500Y-51900135D01*
X123299500Y-52595870D01*
X123299501Y-52595876D01*
X123305908Y-52655483D01*
X123356202Y-52790328D01*
X123356206Y-52790335D01*
X123442452Y-52905544D01*
X123442453Y-52905544D01*
X123442454Y-52905546D01*
X123471615Y-52927376D01*
X123500145Y-52948734D01*
X123542015Y-53004668D01*
X123546999Y-53074360D01*
X123513513Y-53135683D01*
X123500145Y-53147266D01*
X123442452Y-53190455D01*
X123356206Y-53305664D01*
X123356202Y-53305671D01*
X123307661Y-53435819D01*
X123305909Y-53440517D01*
X123299500Y-53500127D01*
X123299500Y-53500134D01*
X123299500Y-53500135D01*
X123299500Y-54195870D01*
X123299501Y-54195876D01*
X123305908Y-54255483D01*
X123356202Y-54390328D01*
X123356206Y-54390335D01*
X123442452Y-54505544D01*
X123442453Y-54505544D01*
X123442454Y-54505546D01*
X123467053Y-54523961D01*
X123500145Y-54548734D01*
X123542015Y-54604668D01*
X123546999Y-54674360D01*
X123513513Y-54735683D01*
X123500145Y-54747266D01*
X123442452Y-54790455D01*
X123356206Y-54905664D01*
X123356202Y-54905671D01*
X123305910Y-55040513D01*
X123305909Y-55040517D01*
X123299500Y-55100127D01*
X123299500Y-55100134D01*
X123299500Y-55100135D01*
X123299500Y-55795870D01*
X123299501Y-55795876D01*
X123305908Y-55855483D01*
X123356202Y-55990328D01*
X123356206Y-55990335D01*
X123442452Y-56105544D01*
X123442455Y-56105547D01*
X123557664Y-56191793D01*
X123557669Y-56191796D01*
X123618833Y-56214608D01*
X123674766Y-56256478D01*
X123699184Y-56321942D01*
X123699500Y-56330790D01*
X123699500Y-56931006D01*
X123699500Y-57068994D01*
X123699500Y-57068996D01*
X123699499Y-57068996D01*
X123726418Y-57204322D01*
X123726421Y-57204332D01*
X123779222Y-57331807D01*
X123855887Y-57446545D01*
X123855888Y-57446546D01*
X124053453Y-57644110D01*
X124053456Y-57644112D01*
X124053457Y-57644113D01*
X124168188Y-57720774D01*
X124295671Y-57773580D01*
X124431006Y-57800499D01*
X124431008Y-57800499D01*
X124568995Y-57800499D01*
X124568996Y-57800498D01*
X124704328Y-57773580D01*
X124831811Y-57720774D01*
X124946543Y-57644113D01*
X125044113Y-57546543D01*
X125120774Y-57431811D01*
X125173580Y-57304328D01*
X125200499Y-57168994D01*
X125200499Y-57031006D01*
X125173580Y-56895671D01*
X125120774Y-56768188D01*
X125120773Y-56768186D01*
X125117904Y-56762818D01*
X125119203Y-56762123D01*
X125100520Y-56702431D01*
X125100500Y-56700230D01*
X125100500Y-56347998D01*
X129053551Y-56347998D01*
X129053552Y-56347999D01*
X130146447Y-56347999D01*
X130146447Y-56347998D01*
X129600001Y-55801552D01*
X129600000Y-55801552D01*
X129053551Y-56347998D01*
X125100500Y-56347998D01*
X125100500Y-56330790D01*
X125106738Y-56309543D01*
X125108319Y-56287455D01*
X125116390Y-56276672D01*
X125120185Y-56263751D01*
X125136918Y-56249250D01*
X125150191Y-56231522D01*
X125169625Y-56220910D01*
X125172989Y-56217996D01*
X125181160Y-56214611D01*
X125242331Y-56191796D01*
X125357546Y-56105546D01*
X125443796Y-55990331D01*
X125494091Y-55855483D01*
X125500500Y-55795873D01*
X125500499Y-55108669D01*
X128400000Y-55108669D01*
X128400000Y-55787324D01*
X128415442Y-55904628D01*
X128415444Y-55904633D01*
X128475899Y-56050587D01*
X128475901Y-56050590D01*
X128548823Y-56145622D01*
X128548824Y-56145622D01*
X129246448Y-55448000D01*
X129246447Y-55447999D01*
X129953552Y-55447999D01*
X129953552Y-55448000D01*
X130651173Y-56145622D01*
X130651174Y-56145622D01*
X130724100Y-56050586D01*
X130784554Y-55904634D01*
X130784555Y-55904630D01*
X130799999Y-55787330D01*
X130799999Y-55108675D01*
X130784557Y-54991371D01*
X130784555Y-54991366D01*
X130724100Y-54845412D01*
X130724098Y-54845409D01*
X130651175Y-54750376D01*
X130651172Y-54750376D01*
X129953552Y-55447999D01*
X129246447Y-55447999D01*
X128548824Y-54750376D01*
X128475899Y-54845413D01*
X128415445Y-54991365D01*
X128415444Y-54991369D01*
X128400000Y-55108669D01*
X125500499Y-55108669D01*
X125500499Y-55100128D01*
X125494091Y-55040517D01*
X125443796Y-54905669D01*
X125443795Y-54905668D01*
X125443793Y-54905664D01*
X125357547Y-54790456D01*
X125357548Y-54790456D01*
X125357546Y-54790454D01*
X125299854Y-54747265D01*
X125257984Y-54691333D01*
X125253000Y-54621641D01*
X125286485Y-54560318D01*
X125299854Y-54548734D01*
X125357546Y-54505546D01*
X125443796Y-54390331D01*
X125494091Y-54255483D01*
X125500500Y-54195873D01*
X125500499Y-53500128D01*
X125494091Y-53440517D01*
X125483618Y-53412438D01*
X125443797Y-53305671D01*
X125443793Y-53305664D01*
X125357547Y-53190456D01*
X125357548Y-53190456D01*
X125357546Y-53190454D01*
X125299854Y-53147265D01*
X125257984Y-53091333D01*
X125253000Y-53021641D01*
X125286485Y-52960318D01*
X125299854Y-52948734D01*
X125357546Y-52905546D01*
X125443796Y-52790331D01*
X125494091Y-52655483D01*
X125500500Y-52595873D01*
X125500499Y-51900128D01*
X125500499Y-51900127D01*
X128499500Y-51900127D01*
X128499500Y-51900134D01*
X128499500Y-51900135D01*
X128499500Y-52595870D01*
X128499501Y-52595876D01*
X128505908Y-52655483D01*
X128556202Y-52790328D01*
X128556206Y-52790335D01*
X128642452Y-52905544D01*
X128642453Y-52905544D01*
X128642454Y-52905546D01*
X128671615Y-52927376D01*
X128700145Y-52948734D01*
X128742015Y-53004668D01*
X128746999Y-53074360D01*
X128713513Y-53135683D01*
X128700145Y-53147266D01*
X128642452Y-53190455D01*
X128556206Y-53305664D01*
X128556202Y-53305671D01*
X128507661Y-53435819D01*
X128505909Y-53440517D01*
X128499500Y-53500127D01*
X128499500Y-53500134D01*
X128499500Y-53500135D01*
X128499500Y-54195870D01*
X128499501Y-54195876D01*
X128505908Y-54255483D01*
X128556202Y-54390328D01*
X128556206Y-54390335D01*
X128642452Y-54505544D01*
X128642454Y-54505546D01*
X128700146Y-54548734D01*
X128757668Y-54591795D01*
X128757671Y-54591797D01*
X128802618Y-54608561D01*
X128892517Y-54642091D01*
X128952127Y-54648500D01*
X129102691Y-54648499D01*
X129169728Y-54668183D01*
X129190370Y-54684818D01*
X129600000Y-55094448D01*
X129600001Y-55094448D01*
X130009629Y-54684818D01*
X130070952Y-54651333D01*
X130097308Y-54648499D01*
X130247872Y-54648499D01*
X130307483Y-54642091D01*
X130442331Y-54591796D01*
X130557546Y-54505546D01*
X130643796Y-54390331D01*
X130693836Y-54256167D01*
X130735707Y-54200233D01*
X130801171Y-54175816D01*
X130810018Y-54175500D01*
X135889982Y-54175500D01*
X135957021Y-54195185D01*
X136002776Y-54247989D01*
X136006164Y-54256167D01*
X136056202Y-54390328D01*
X136056206Y-54390335D01*
X136142452Y-54505544D01*
X136142453Y-54505544D01*
X136142454Y-54505546D01*
X136167053Y-54523961D01*
X136200145Y-54548734D01*
X136242015Y-54604668D01*
X136246999Y-54674360D01*
X136213513Y-54735683D01*
X136200145Y-54747266D01*
X136142452Y-54790455D01*
X136056206Y-54905664D01*
X136056202Y-54905671D01*
X136005910Y-55040513D01*
X136005909Y-55040517D01*
X135999500Y-55100127D01*
X135999500Y-55100134D01*
X135999500Y-55100135D01*
X135999500Y-55795870D01*
X135999501Y-55795876D01*
X136005908Y-55855483D01*
X136056202Y-55990328D01*
X136056206Y-55990335D01*
X136142452Y-56105544D01*
X136142455Y-56105547D01*
X136257664Y-56191793D01*
X136257669Y-56191796D01*
X136318833Y-56214608D01*
X136374766Y-56256478D01*
X136399184Y-56321942D01*
X136399500Y-56330790D01*
X136399500Y-56700230D01*
X136381253Y-56762369D01*
X136382095Y-56762819D01*
X136379935Y-56766859D01*
X136379815Y-56767269D01*
X136379278Y-56768087D01*
X136379223Y-56768190D01*
X136326421Y-56895667D01*
X136326418Y-56895677D01*
X136299500Y-57031003D01*
X136299500Y-57031006D01*
X136299500Y-57168994D01*
X136299500Y-57168996D01*
X136299499Y-57168996D01*
X136326418Y-57304322D01*
X136326421Y-57304332D01*
X136379222Y-57431807D01*
X136455887Y-57546545D01*
X136553454Y-57644112D01*
X136668192Y-57720777D01*
X136795667Y-57773578D01*
X136795672Y-57773580D01*
X136795676Y-57773580D01*
X136795677Y-57773581D01*
X136931003Y-57800500D01*
X136931006Y-57800500D01*
X137068996Y-57800500D01*
X137160040Y-57782389D01*
X137204328Y-57773580D01*
X137268069Y-57747177D01*
X137331807Y-57720777D01*
X137331808Y-57720776D01*
X137331811Y-57720775D01*
X137446543Y-57644114D01*
X137644113Y-57446543D01*
X137649812Y-57438015D01*
X137720775Y-57331811D01*
X137738434Y-57289177D01*
X137756094Y-57246544D01*
X137773578Y-57204333D01*
X137773580Y-57204329D01*
X137783844Y-57152727D01*
X137793471Y-57104332D01*
X137800500Y-57068995D01*
X137800500Y-56347998D01*
X141753551Y-56347998D01*
X141753552Y-56347999D01*
X142846447Y-56347999D01*
X142846447Y-56347998D01*
X142300001Y-55801552D01*
X142300000Y-55801552D01*
X141753551Y-56347998D01*
X137800500Y-56347998D01*
X137800500Y-56330790D01*
X137806738Y-56309543D01*
X137808319Y-56287455D01*
X137816390Y-56276672D01*
X137820185Y-56263751D01*
X137836918Y-56249250D01*
X137850191Y-56231522D01*
X137869625Y-56220910D01*
X137872989Y-56217996D01*
X137881160Y-56214611D01*
X137942331Y-56191796D01*
X138057546Y-56105546D01*
X138143796Y-55990331D01*
X138194091Y-55855483D01*
X138200500Y-55795873D01*
X138200499Y-55108669D01*
X141100000Y-55108669D01*
X141100000Y-55787324D01*
X141115442Y-55904628D01*
X141115444Y-55904633D01*
X141175899Y-56050587D01*
X141175901Y-56050590D01*
X141248823Y-56145622D01*
X141248824Y-56145622D01*
X141946448Y-55448000D01*
X141946447Y-55447999D01*
X142653552Y-55447999D01*
X142653552Y-55448001D01*
X143351173Y-56145622D01*
X143351174Y-56145622D01*
X143424100Y-56050586D01*
X143484554Y-55904634D01*
X143484555Y-55904630D01*
X143499999Y-55787330D01*
X143499999Y-55108675D01*
X143484557Y-54991371D01*
X143484555Y-54991366D01*
X143424100Y-54845412D01*
X143424098Y-54845409D01*
X143351175Y-54750376D01*
X143351172Y-54750376D01*
X142653552Y-55447999D01*
X141946447Y-55447999D01*
X141248824Y-54750376D01*
X141175899Y-54845413D01*
X141115445Y-54991365D01*
X141115444Y-54991369D01*
X141100000Y-55108669D01*
X138200499Y-55108669D01*
X138200499Y-55100128D01*
X138194091Y-55040517D01*
X138143796Y-54905669D01*
X138143795Y-54905668D01*
X138143793Y-54905664D01*
X138057547Y-54790456D01*
X138057548Y-54790456D01*
X138057546Y-54790454D01*
X137999854Y-54747265D01*
X137957984Y-54691333D01*
X137953000Y-54621641D01*
X137986485Y-54560318D01*
X137999854Y-54548734D01*
X138057546Y-54505546D01*
X138143796Y-54390331D01*
X138194091Y-54255483D01*
X138200500Y-54195873D01*
X138200499Y-53500128D01*
X138194091Y-53440517D01*
X138183618Y-53412438D01*
X138143797Y-53305671D01*
X138143793Y-53305664D01*
X138057547Y-53190456D01*
X138057548Y-53190456D01*
X138057546Y-53190454D01*
X137999854Y-53147265D01*
X137957984Y-53091333D01*
X137953000Y-53021641D01*
X137986485Y-52960318D01*
X137999854Y-52948734D01*
X138057546Y-52905546D01*
X138143796Y-52790331D01*
X138194091Y-52655483D01*
X138200500Y-52595873D01*
X138200499Y-51900128D01*
X138200499Y-51900127D01*
X141199500Y-51900127D01*
X141199500Y-51900134D01*
X141199500Y-51900135D01*
X141199500Y-52595870D01*
X141199501Y-52595876D01*
X141205908Y-52655483D01*
X141256202Y-52790328D01*
X141256206Y-52790335D01*
X141342452Y-52905544D01*
X141342453Y-52905544D01*
X141342454Y-52905546D01*
X141371615Y-52927376D01*
X141400145Y-52948734D01*
X141442015Y-53004668D01*
X141446999Y-53074360D01*
X141413513Y-53135683D01*
X141400145Y-53147266D01*
X141342452Y-53190455D01*
X141256206Y-53305664D01*
X141256202Y-53305671D01*
X141207661Y-53435819D01*
X141205909Y-53440517D01*
X141199500Y-53500127D01*
X141199500Y-53500134D01*
X141199500Y-53500135D01*
X141199500Y-54195870D01*
X141199501Y-54195876D01*
X141205908Y-54255483D01*
X141256202Y-54390328D01*
X141256206Y-54390335D01*
X141342452Y-54505544D01*
X141342454Y-54505546D01*
X141400146Y-54548734D01*
X141457668Y-54591795D01*
X141457671Y-54591797D01*
X141502618Y-54608561D01*
X141592517Y-54642091D01*
X141652127Y-54648500D01*
X141802691Y-54648499D01*
X141869728Y-54668183D01*
X141890370Y-54684818D01*
X142300000Y-55094448D01*
X142300001Y-55094448D01*
X142709629Y-54684818D01*
X142770952Y-54651333D01*
X142797308Y-54648499D01*
X142947872Y-54648499D01*
X143007483Y-54642091D01*
X143142331Y-54591796D01*
X143257546Y-54505546D01*
X143343796Y-54390331D01*
X143393836Y-54256167D01*
X143435707Y-54200233D01*
X143501171Y-54175816D01*
X143510018Y-54175500D01*
X148589982Y-54175500D01*
X148657021Y-54195185D01*
X148702776Y-54247989D01*
X148706164Y-54256167D01*
X148756202Y-54390328D01*
X148756206Y-54390335D01*
X148842452Y-54505544D01*
X148842453Y-54505544D01*
X148842454Y-54505546D01*
X148867053Y-54523961D01*
X148900145Y-54548734D01*
X148942015Y-54604668D01*
X148946999Y-54674360D01*
X148913513Y-54735683D01*
X148900145Y-54747266D01*
X148842452Y-54790455D01*
X148756206Y-54905664D01*
X148756202Y-54905671D01*
X148705910Y-55040513D01*
X148705909Y-55040517D01*
X148699500Y-55100127D01*
X148699500Y-55100134D01*
X148699500Y-55100135D01*
X148699500Y-55795870D01*
X148699501Y-55795876D01*
X148705908Y-55855483D01*
X148756202Y-55990328D01*
X148756206Y-55990335D01*
X148842452Y-56105544D01*
X148842455Y-56105547D01*
X148957664Y-56191793D01*
X148957669Y-56191796D01*
X149018833Y-56214608D01*
X149074766Y-56256478D01*
X149099184Y-56321942D01*
X149099500Y-56330790D01*
X149099500Y-56831006D01*
X149099500Y-56968994D01*
X149099500Y-56968996D01*
X149099499Y-56968996D01*
X149126418Y-57104322D01*
X149126421Y-57104332D01*
X149179222Y-57231807D01*
X149255887Y-57346545D01*
X149553454Y-57644112D01*
X149668192Y-57720777D01*
X149795667Y-57773578D01*
X149795672Y-57773580D01*
X149795676Y-57773580D01*
X149795677Y-57773581D01*
X149931003Y-57800500D01*
X149931006Y-57800500D01*
X150068996Y-57800500D01*
X150160042Y-57782389D01*
X150204329Y-57773580D01*
X150331811Y-57720775D01*
X150446543Y-57644114D01*
X150544114Y-57546543D01*
X150620775Y-57431811D01*
X150673580Y-57304329D01*
X150693471Y-57204332D01*
X150700500Y-57168996D01*
X150700500Y-57031003D01*
X150673581Y-56895677D01*
X150673580Y-56895676D01*
X150673580Y-56895672D01*
X150673578Y-56895667D01*
X150620777Y-56768192D01*
X150544112Y-56653454D01*
X150536819Y-56646161D01*
X150522115Y-56619233D01*
X150505523Y-56593415D01*
X150504631Y-56587214D01*
X150503334Y-56584838D01*
X150500500Y-56558480D01*
X150500500Y-56347998D01*
X154453551Y-56347998D01*
X154453552Y-56347999D01*
X155546447Y-56347999D01*
X155546447Y-56347998D01*
X155000001Y-55801552D01*
X155000000Y-55801552D01*
X154453551Y-56347998D01*
X150500500Y-56347998D01*
X150500500Y-56330790D01*
X150520185Y-56263751D01*
X150572989Y-56217996D01*
X150581160Y-56214611D01*
X150642331Y-56191796D01*
X150757546Y-56105546D01*
X150843796Y-55990331D01*
X150894091Y-55855483D01*
X150900500Y-55795873D01*
X150900499Y-55108669D01*
X153800000Y-55108669D01*
X153800000Y-55787324D01*
X153815442Y-55904628D01*
X153815444Y-55904633D01*
X153875899Y-56050587D01*
X153875901Y-56050590D01*
X153948823Y-56145622D01*
X153948824Y-56145622D01*
X154646448Y-55448000D01*
X154646447Y-55447999D01*
X155353552Y-55447999D01*
X155353552Y-55448000D01*
X156051173Y-56145622D01*
X156051174Y-56145622D01*
X156124100Y-56050586D01*
X156184554Y-55904634D01*
X156184555Y-55904630D01*
X156199999Y-55787330D01*
X156199999Y-55108675D01*
X156184557Y-54991371D01*
X156184555Y-54991366D01*
X156124100Y-54845412D01*
X156124098Y-54845409D01*
X156051175Y-54750376D01*
X156051172Y-54750376D01*
X155353552Y-55447999D01*
X154646447Y-55447999D01*
X153948824Y-54750376D01*
X153875899Y-54845413D01*
X153815445Y-54991365D01*
X153815444Y-54991369D01*
X153800000Y-55108669D01*
X150900499Y-55108669D01*
X150900499Y-55100128D01*
X150894091Y-55040517D01*
X150843796Y-54905669D01*
X150843795Y-54905668D01*
X150843793Y-54905664D01*
X150757547Y-54790456D01*
X150757548Y-54790456D01*
X150757546Y-54790454D01*
X150699854Y-54747265D01*
X150657984Y-54691333D01*
X150653000Y-54621641D01*
X150686485Y-54560318D01*
X150699854Y-54548734D01*
X150757546Y-54505546D01*
X150843796Y-54390331D01*
X150894091Y-54255483D01*
X150900500Y-54195873D01*
X150900499Y-53500128D01*
X150894091Y-53440517D01*
X150883618Y-53412438D01*
X150843797Y-53305671D01*
X150843793Y-53305664D01*
X150757547Y-53190456D01*
X150757548Y-53190456D01*
X150757546Y-53190454D01*
X150699854Y-53147265D01*
X150657984Y-53091333D01*
X150653000Y-53021641D01*
X150686485Y-52960318D01*
X150699854Y-52948734D01*
X150757546Y-52905546D01*
X150843796Y-52790331D01*
X150894091Y-52655483D01*
X150900500Y-52595873D01*
X150900499Y-51900128D01*
X150900499Y-51900127D01*
X153899500Y-51900127D01*
X153899500Y-51900134D01*
X153899500Y-51900135D01*
X153899500Y-52595870D01*
X153899501Y-52595876D01*
X153905908Y-52655483D01*
X153956202Y-52790328D01*
X153956206Y-52790335D01*
X154042452Y-52905544D01*
X154042453Y-52905544D01*
X154042454Y-52905546D01*
X154071615Y-52927376D01*
X154100145Y-52948734D01*
X154142015Y-53004668D01*
X154146999Y-53074360D01*
X154113513Y-53135683D01*
X154100145Y-53147266D01*
X154042452Y-53190455D01*
X153956206Y-53305664D01*
X153956202Y-53305671D01*
X153907661Y-53435819D01*
X153905909Y-53440517D01*
X153899500Y-53500127D01*
X153899500Y-53500134D01*
X153899500Y-53500135D01*
X153899500Y-54195870D01*
X153899501Y-54195876D01*
X153905908Y-54255483D01*
X153956202Y-54390328D01*
X153956206Y-54390335D01*
X154042452Y-54505544D01*
X154042454Y-54505546D01*
X154100146Y-54548734D01*
X154157668Y-54591795D01*
X154157671Y-54591797D01*
X154202618Y-54608561D01*
X154292517Y-54642091D01*
X154352127Y-54648500D01*
X154502691Y-54648499D01*
X154569728Y-54668183D01*
X154590370Y-54684818D01*
X155000000Y-55094448D01*
X155000001Y-55094448D01*
X155409629Y-54684818D01*
X155470952Y-54651333D01*
X155497308Y-54648499D01*
X155647872Y-54648499D01*
X155707483Y-54642091D01*
X155842331Y-54591796D01*
X155957546Y-54505546D01*
X156043796Y-54390331D01*
X156093836Y-54256167D01*
X156135707Y-54200233D01*
X156201171Y-54175816D01*
X156210018Y-54175500D01*
X161289982Y-54175500D01*
X161357021Y-54195185D01*
X161402776Y-54247989D01*
X161406164Y-54256167D01*
X161456202Y-54390328D01*
X161456206Y-54390335D01*
X161542452Y-54505544D01*
X161542453Y-54505544D01*
X161542454Y-54505546D01*
X161567053Y-54523961D01*
X161600145Y-54548734D01*
X161642015Y-54604668D01*
X161646999Y-54674360D01*
X161613513Y-54735683D01*
X161600145Y-54747266D01*
X161542452Y-54790455D01*
X161456206Y-54905664D01*
X161456202Y-54905671D01*
X161405910Y-55040513D01*
X161405909Y-55040517D01*
X161399500Y-55100127D01*
X161399500Y-55100134D01*
X161399500Y-55100135D01*
X161399500Y-55795870D01*
X161399501Y-55795876D01*
X161405908Y-55855483D01*
X161456202Y-55990328D01*
X161456206Y-55990335D01*
X161542452Y-56105544D01*
X161542455Y-56105547D01*
X161657664Y-56191793D01*
X161657669Y-56191796D01*
X161718833Y-56214608D01*
X161774766Y-56256478D01*
X161799184Y-56321942D01*
X161799500Y-56330790D01*
X161799500Y-57168993D01*
X161799500Y-57168995D01*
X161799499Y-57168995D01*
X161826418Y-57304322D01*
X161826421Y-57304332D01*
X161879221Y-57431804D01*
X161879228Y-57431817D01*
X161955885Y-57546541D01*
X161955888Y-57546545D01*
X162053454Y-57644111D01*
X162053458Y-57644114D01*
X162168182Y-57720771D01*
X162168195Y-57720778D01*
X162295667Y-57773578D01*
X162295672Y-57773580D01*
X162295676Y-57773580D01*
X162295677Y-57773581D01*
X162431004Y-57800500D01*
X162431007Y-57800500D01*
X162568995Y-57800500D01*
X162660041Y-57782389D01*
X162704328Y-57773580D01*
X162831811Y-57720775D01*
X162946542Y-57644114D01*
X163044114Y-57546542D01*
X163120775Y-57431811D01*
X163173580Y-57304328D01*
X163188005Y-57231811D01*
X163200500Y-57168995D01*
X163200500Y-56347998D01*
X167153551Y-56347998D01*
X167153552Y-56347999D01*
X168246447Y-56347999D01*
X168246447Y-56347998D01*
X167700001Y-55801552D01*
X167700000Y-55801552D01*
X167153551Y-56347998D01*
X163200500Y-56347998D01*
X163200500Y-56330790D01*
X163206738Y-56309543D01*
X163208319Y-56287455D01*
X163216390Y-56276672D01*
X163220185Y-56263751D01*
X163236918Y-56249250D01*
X163250191Y-56231522D01*
X163269625Y-56220910D01*
X163272989Y-56217996D01*
X163281160Y-56214611D01*
X163342331Y-56191796D01*
X163457546Y-56105546D01*
X163543796Y-55990331D01*
X163594091Y-55855483D01*
X163600500Y-55795873D01*
X163600499Y-55108669D01*
X166500000Y-55108669D01*
X166500000Y-55787324D01*
X166515442Y-55904628D01*
X166515444Y-55904633D01*
X166575899Y-56050587D01*
X166575901Y-56050590D01*
X166648823Y-56145622D01*
X166648824Y-56145622D01*
X167346448Y-55448000D01*
X167346447Y-55447999D01*
X168053552Y-55447999D01*
X168053552Y-55448000D01*
X168751173Y-56145622D01*
X168751174Y-56145622D01*
X168824100Y-56050586D01*
X168884554Y-55904634D01*
X168884555Y-55904630D01*
X168899999Y-55787330D01*
X168899999Y-55108675D01*
X168884557Y-54991371D01*
X168884555Y-54991366D01*
X168824100Y-54845412D01*
X168824098Y-54845409D01*
X168751175Y-54750376D01*
X168751172Y-54750376D01*
X168053552Y-55447999D01*
X167346447Y-55447999D01*
X166648824Y-54750376D01*
X166575899Y-54845413D01*
X166515445Y-54991365D01*
X166515444Y-54991369D01*
X166500000Y-55108669D01*
X163600499Y-55108669D01*
X163600499Y-55100128D01*
X163594091Y-55040517D01*
X163543796Y-54905669D01*
X163543795Y-54905668D01*
X163543793Y-54905664D01*
X163457547Y-54790456D01*
X163457548Y-54790456D01*
X163457546Y-54790454D01*
X163399854Y-54747265D01*
X163357984Y-54691333D01*
X163353000Y-54621641D01*
X163386485Y-54560318D01*
X163399854Y-54548734D01*
X163457546Y-54505546D01*
X163543796Y-54390331D01*
X163594091Y-54255483D01*
X163600500Y-54195873D01*
X163600499Y-53500128D01*
X163594091Y-53440517D01*
X163583618Y-53412438D01*
X163543797Y-53305671D01*
X163543793Y-53305664D01*
X163457547Y-53190456D01*
X163457548Y-53190456D01*
X163457546Y-53190454D01*
X163399854Y-53147265D01*
X163357984Y-53091333D01*
X163353000Y-53021641D01*
X163386485Y-52960318D01*
X163399854Y-52948734D01*
X163457546Y-52905546D01*
X163543796Y-52790331D01*
X163594091Y-52655483D01*
X163600500Y-52595873D01*
X163600499Y-51900128D01*
X163600499Y-51900127D01*
X166599500Y-51900127D01*
X166599500Y-51900134D01*
X166599500Y-51900135D01*
X166599500Y-52595870D01*
X166599501Y-52595876D01*
X166605908Y-52655483D01*
X166656202Y-52790328D01*
X166656206Y-52790335D01*
X166742452Y-52905544D01*
X166742453Y-52905544D01*
X166742454Y-52905546D01*
X166771615Y-52927376D01*
X166800145Y-52948734D01*
X166842015Y-53004668D01*
X166846999Y-53074360D01*
X166813513Y-53135683D01*
X166800145Y-53147266D01*
X166742452Y-53190455D01*
X166656206Y-53305664D01*
X166656202Y-53305671D01*
X166607661Y-53435819D01*
X166605909Y-53440517D01*
X166599500Y-53500127D01*
X166599500Y-53500134D01*
X166599500Y-53500135D01*
X166599500Y-54195870D01*
X166599501Y-54195876D01*
X166605908Y-54255483D01*
X166656202Y-54390328D01*
X166656206Y-54390335D01*
X166742452Y-54505544D01*
X166742454Y-54505546D01*
X166800146Y-54548734D01*
X166857668Y-54591795D01*
X166857671Y-54591797D01*
X166902618Y-54608561D01*
X166992517Y-54642091D01*
X167052127Y-54648500D01*
X167202691Y-54648499D01*
X167269728Y-54668183D01*
X167290370Y-54684818D01*
X167700000Y-55094448D01*
X167700001Y-55094448D01*
X168109629Y-54684818D01*
X168170952Y-54651333D01*
X168197308Y-54648499D01*
X168347872Y-54648499D01*
X168407483Y-54642091D01*
X168542331Y-54591796D01*
X168657546Y-54505546D01*
X168743796Y-54390331D01*
X168793836Y-54256167D01*
X168835707Y-54200233D01*
X168901171Y-54175816D01*
X168910018Y-54175500D01*
X173989982Y-54175500D01*
X174057021Y-54195185D01*
X174102776Y-54247989D01*
X174106164Y-54256167D01*
X174156202Y-54390328D01*
X174156206Y-54390335D01*
X174242452Y-54505544D01*
X174242453Y-54505544D01*
X174242454Y-54505546D01*
X174267053Y-54523961D01*
X174300145Y-54548734D01*
X174342015Y-54604668D01*
X174346999Y-54674360D01*
X174313513Y-54735683D01*
X174300145Y-54747266D01*
X174242452Y-54790455D01*
X174156206Y-54905664D01*
X174156202Y-54905671D01*
X174105910Y-55040513D01*
X174105909Y-55040517D01*
X174099500Y-55100127D01*
X174099500Y-55100134D01*
X174099500Y-55100135D01*
X174099500Y-55795870D01*
X174099501Y-55795876D01*
X174105908Y-55855483D01*
X174156202Y-55990328D01*
X174156206Y-55990335D01*
X174242452Y-56105544D01*
X174242455Y-56105547D01*
X174357664Y-56191793D01*
X174357669Y-56191796D01*
X174418833Y-56214608D01*
X174474766Y-56256478D01*
X174499184Y-56321942D01*
X174499500Y-56330790D01*
X174499500Y-56731006D01*
X174499500Y-56868994D01*
X174499500Y-56868996D01*
X174499499Y-56868996D01*
X174526418Y-57004322D01*
X174526421Y-57004332D01*
X174579222Y-57131807D01*
X174593202Y-57152729D01*
X174646042Y-57231811D01*
X174655887Y-57246544D01*
X174655887Y-57246545D01*
X175053454Y-57644112D01*
X175168192Y-57720777D01*
X175295667Y-57773578D01*
X175295672Y-57773580D01*
X175295676Y-57773580D01*
X175295677Y-57773581D01*
X175431003Y-57800500D01*
X175431006Y-57800500D01*
X175568996Y-57800500D01*
X175660040Y-57782389D01*
X175704328Y-57773580D01*
X175768069Y-57747177D01*
X175831807Y-57720777D01*
X175831808Y-57720776D01*
X175831811Y-57720775D01*
X175946543Y-57644114D01*
X176044114Y-57546543D01*
X176120775Y-57431811D01*
X176173580Y-57304328D01*
X176193471Y-57204332D01*
X176200500Y-57168996D01*
X176200500Y-57031003D01*
X176173581Y-56895677D01*
X176173580Y-56895676D01*
X176173580Y-56895672D01*
X176173578Y-56895667D01*
X176120777Y-56768192D01*
X176044112Y-56653454D01*
X175936819Y-56546161D01*
X175922115Y-56519233D01*
X175905523Y-56493415D01*
X175904631Y-56487214D01*
X175903334Y-56484838D01*
X175900500Y-56458480D01*
X175900500Y-56347998D01*
X179853551Y-56347998D01*
X179853552Y-56347999D01*
X180946447Y-56347999D01*
X180946447Y-56347998D01*
X180400001Y-55801552D01*
X180400000Y-55801552D01*
X179853551Y-56347998D01*
X175900500Y-56347998D01*
X175900500Y-56330790D01*
X175920185Y-56263751D01*
X175972989Y-56217996D01*
X175981160Y-56214611D01*
X176042331Y-56191796D01*
X176157546Y-56105546D01*
X176243796Y-55990331D01*
X176294091Y-55855483D01*
X176300500Y-55795873D01*
X176300499Y-55108669D01*
X179200000Y-55108669D01*
X179200000Y-55787324D01*
X179215442Y-55904628D01*
X179215444Y-55904633D01*
X179275899Y-56050587D01*
X179275901Y-56050590D01*
X179348823Y-56145622D01*
X179348824Y-56145622D01*
X180046448Y-55448000D01*
X180046447Y-55447999D01*
X180753552Y-55447999D01*
X180753552Y-55448000D01*
X181451173Y-56145622D01*
X181451174Y-56145622D01*
X181524100Y-56050586D01*
X181584554Y-55904634D01*
X181584555Y-55904630D01*
X181599999Y-55787330D01*
X181599999Y-55108675D01*
X181584557Y-54991371D01*
X181584555Y-54991366D01*
X181524100Y-54845412D01*
X181524098Y-54845409D01*
X181451175Y-54750376D01*
X181451172Y-54750376D01*
X180753552Y-55447999D01*
X180046447Y-55447999D01*
X179348824Y-54750376D01*
X179275899Y-54845413D01*
X179215445Y-54991365D01*
X179215444Y-54991369D01*
X179200000Y-55108669D01*
X176300499Y-55108669D01*
X176300499Y-55100128D01*
X176294091Y-55040517D01*
X176243796Y-54905669D01*
X176243795Y-54905668D01*
X176243793Y-54905664D01*
X176157547Y-54790456D01*
X176157548Y-54790456D01*
X176157546Y-54790454D01*
X176099854Y-54747265D01*
X176057984Y-54691333D01*
X176053000Y-54621641D01*
X176086485Y-54560318D01*
X176099854Y-54548734D01*
X176157546Y-54505546D01*
X176243796Y-54390331D01*
X176294091Y-54255483D01*
X176300500Y-54195873D01*
X176300499Y-53500128D01*
X176294091Y-53440517D01*
X176283618Y-53412438D01*
X176243797Y-53305671D01*
X176243793Y-53305664D01*
X176157547Y-53190456D01*
X176157548Y-53190456D01*
X176157546Y-53190454D01*
X176099854Y-53147265D01*
X176057984Y-53091333D01*
X176053000Y-53021641D01*
X176086485Y-52960318D01*
X176099854Y-52948734D01*
X176157546Y-52905546D01*
X176243796Y-52790331D01*
X176294091Y-52655483D01*
X176300500Y-52595873D01*
X176300499Y-51900128D01*
X176300499Y-51900127D01*
X179299500Y-51900127D01*
X179299500Y-51900134D01*
X179299500Y-51900135D01*
X179299500Y-52595870D01*
X179299501Y-52595876D01*
X179305908Y-52655483D01*
X179356202Y-52790328D01*
X179356206Y-52790335D01*
X179442452Y-52905544D01*
X179442453Y-52905544D01*
X179442454Y-52905546D01*
X179471615Y-52927376D01*
X179500145Y-52948734D01*
X179542015Y-53004668D01*
X179546999Y-53074360D01*
X179513513Y-53135683D01*
X179500145Y-53147266D01*
X179442452Y-53190455D01*
X179356206Y-53305664D01*
X179356202Y-53305671D01*
X179307661Y-53435819D01*
X179305909Y-53440517D01*
X179299500Y-53500127D01*
X179299500Y-53500134D01*
X179299500Y-53500135D01*
X179299500Y-54195870D01*
X179299501Y-54195876D01*
X179305908Y-54255483D01*
X179356202Y-54390328D01*
X179356206Y-54390335D01*
X179442452Y-54505544D01*
X179442454Y-54505546D01*
X179500146Y-54548734D01*
X179557668Y-54591795D01*
X179557671Y-54591797D01*
X179602618Y-54608561D01*
X179692517Y-54642091D01*
X179752127Y-54648500D01*
X179902691Y-54648499D01*
X179969728Y-54668183D01*
X179990370Y-54684818D01*
X180400000Y-55094448D01*
X180400001Y-55094448D01*
X180809629Y-54684818D01*
X180870952Y-54651333D01*
X180897308Y-54648499D01*
X181047872Y-54648499D01*
X181107483Y-54642091D01*
X181242331Y-54591796D01*
X181357546Y-54505546D01*
X181443796Y-54390331D01*
X181454742Y-54360984D01*
X181463301Y-54338036D01*
X181505172Y-54282102D01*
X181570636Y-54257685D01*
X181638909Y-54272536D01*
X181654845Y-54284466D01*
X181655539Y-54283562D01*
X181661988Y-54288511D01*
X181787511Y-54360982D01*
X181787512Y-54360982D01*
X181787515Y-54360984D01*
X181927525Y-54398500D01*
X181927528Y-54398500D01*
X182072472Y-54398500D01*
X182072475Y-54398500D01*
X182212485Y-54360984D01*
X182338015Y-54288509D01*
X182440509Y-54186015D01*
X182512984Y-54060485D01*
X182550500Y-53920475D01*
X182550500Y-53775525D01*
X182512984Y-53635515D01*
X182446397Y-53520184D01*
X182440511Y-53509988D01*
X182440506Y-53509982D01*
X182338017Y-53407493D01*
X182338011Y-53407488D01*
X182212488Y-53335017D01*
X182212489Y-53335017D01*
X182201006Y-53331940D01*
X182072475Y-53297500D01*
X181927525Y-53297500D01*
X181798993Y-53331940D01*
X181787511Y-53335017D01*
X181661988Y-53407488D01*
X181655539Y-53412438D01*
X181653505Y-53409788D01*
X181605734Y-53435819D01*
X181536047Y-53430774D01*
X181480150Y-53388853D01*
X181463301Y-53357963D01*
X181443797Y-53305671D01*
X181443793Y-53305664D01*
X181357547Y-53190456D01*
X181357548Y-53190456D01*
X181357546Y-53190454D01*
X181299854Y-53147265D01*
X181257984Y-53091333D01*
X181253000Y-53021641D01*
X181286485Y-52960318D01*
X181299854Y-52948734D01*
X181357546Y-52905546D01*
X181443796Y-52790331D01*
X181493836Y-52656167D01*
X181535707Y-52600233D01*
X181601171Y-52575816D01*
X181610018Y-52575500D01*
X182825950Y-52575500D01*
X182892989Y-52595185D01*
X182933335Y-52637497D01*
X182947491Y-52662015D01*
X183049985Y-52764509D01*
X183049986Y-52764510D01*
X183049988Y-52764511D01*
X183175511Y-52836982D01*
X183175512Y-52836982D01*
X183175515Y-52836984D01*
X183315525Y-52874500D01*
X183315528Y-52874500D01*
X183460472Y-52874500D01*
X183460475Y-52874500D01*
X183600485Y-52836984D01*
X183726015Y-52764509D01*
X183828509Y-52662015D01*
X183900984Y-52536485D01*
X183938500Y-52396475D01*
X183938500Y-52251525D01*
X183900984Y-52111515D01*
X183828509Y-51985985D01*
X183726015Y-51883491D01*
X183726013Y-51883490D01*
X183726011Y-51883488D01*
X183600488Y-51811017D01*
X183600489Y-51811017D01*
X183589006Y-51807940D01*
X183460475Y-51773500D01*
X183315525Y-51773500D01*
X183186993Y-51807940D01*
X183175511Y-51811017D01*
X183049988Y-51883488D01*
X183049982Y-51883493D01*
X183049295Y-51884181D01*
X183048572Y-51884575D01*
X183043539Y-51888438D01*
X183042936Y-51887652D01*
X182987972Y-51917666D01*
X182961614Y-51920500D01*
X181610018Y-51920500D01*
X181542979Y-51900815D01*
X181497224Y-51848011D01*
X181493836Y-51839833D01*
X181443797Y-51705671D01*
X181443793Y-51705664D01*
X181357547Y-51590455D01*
X181357544Y-51590452D01*
X181242335Y-51504206D01*
X181242328Y-51504202D01*
X181107482Y-51453908D01*
X181107483Y-51453908D01*
X181047883Y-51447501D01*
X181047881Y-51447500D01*
X181047873Y-51447500D01*
X181047864Y-51447500D01*
X179752129Y-51447500D01*
X179752123Y-51447501D01*
X179692516Y-51453908D01*
X179557671Y-51504202D01*
X179557664Y-51504206D01*
X179442455Y-51590452D01*
X179442452Y-51590455D01*
X179356206Y-51705664D01*
X179356202Y-51705671D01*
X179306164Y-51839833D01*
X179305909Y-51840517D01*
X179299500Y-51900127D01*
X176300499Y-51900127D01*
X176294091Y-51840517D01*
X176283088Y-51811017D01*
X176243797Y-51705671D01*
X176243793Y-51705664D01*
X176157547Y-51590455D01*
X176157544Y-51590452D01*
X176042335Y-51504206D01*
X176042328Y-51504202D01*
X175907482Y-51453908D01*
X175907483Y-51453908D01*
X175847883Y-51447501D01*
X175847881Y-51447500D01*
X175847873Y-51447500D01*
X175847864Y-51447500D01*
X174552129Y-51447500D01*
X174552123Y-51447501D01*
X174492516Y-51453908D01*
X174357671Y-51504202D01*
X174357664Y-51504206D01*
X174242455Y-51590452D01*
X174242452Y-51590455D01*
X174156206Y-51705664D01*
X174156202Y-51705671D01*
X174106164Y-51839833D01*
X174064293Y-51895767D01*
X173998829Y-51920184D01*
X173989982Y-51920500D01*
X168910018Y-51920500D01*
X168842979Y-51900815D01*
X168797224Y-51848011D01*
X168793836Y-51839833D01*
X168743797Y-51705671D01*
X168743793Y-51705664D01*
X168657547Y-51590455D01*
X168657544Y-51590452D01*
X168542335Y-51504206D01*
X168542328Y-51504202D01*
X168407482Y-51453908D01*
X168407483Y-51453908D01*
X168347883Y-51447501D01*
X168347881Y-51447500D01*
X168347873Y-51447500D01*
X168347864Y-51447500D01*
X167052129Y-51447500D01*
X167052123Y-51447501D01*
X166992516Y-51453908D01*
X166857671Y-51504202D01*
X166857664Y-51504206D01*
X166742455Y-51590452D01*
X166742452Y-51590455D01*
X166656206Y-51705664D01*
X166656202Y-51705671D01*
X166606164Y-51839833D01*
X166605909Y-51840517D01*
X166599500Y-51900127D01*
X163600499Y-51900127D01*
X163594091Y-51840517D01*
X163583088Y-51811017D01*
X163543797Y-51705671D01*
X163543793Y-51705664D01*
X163457547Y-51590455D01*
X163457544Y-51590452D01*
X163342335Y-51504206D01*
X163342328Y-51504202D01*
X163207482Y-51453908D01*
X163207483Y-51453908D01*
X163147883Y-51447501D01*
X163147881Y-51447500D01*
X163147873Y-51447500D01*
X163147864Y-51447500D01*
X161852129Y-51447500D01*
X161852123Y-51447501D01*
X161792516Y-51453908D01*
X161657671Y-51504202D01*
X161657664Y-51504206D01*
X161542455Y-51590452D01*
X161542452Y-51590455D01*
X161456206Y-51705664D01*
X161456202Y-51705671D01*
X161406164Y-51839833D01*
X161364293Y-51895767D01*
X161298829Y-51920184D01*
X161289982Y-51920500D01*
X156210018Y-51920500D01*
X156142979Y-51900815D01*
X156097224Y-51848011D01*
X156093836Y-51839833D01*
X156043797Y-51705671D01*
X156043793Y-51705664D01*
X155957547Y-51590455D01*
X155957544Y-51590452D01*
X155842335Y-51504206D01*
X155842328Y-51504202D01*
X155707482Y-51453908D01*
X155707483Y-51453908D01*
X155647883Y-51447501D01*
X155647881Y-51447500D01*
X155647873Y-51447500D01*
X155647864Y-51447500D01*
X154352129Y-51447500D01*
X154352123Y-51447501D01*
X154292516Y-51453908D01*
X154157671Y-51504202D01*
X154157664Y-51504206D01*
X154042455Y-51590452D01*
X154042452Y-51590455D01*
X153956206Y-51705664D01*
X153956202Y-51705671D01*
X153906164Y-51839833D01*
X153905909Y-51840517D01*
X153899500Y-51900127D01*
X150900499Y-51900127D01*
X150894091Y-51840517D01*
X150883088Y-51811017D01*
X150843797Y-51705671D01*
X150843793Y-51705664D01*
X150757547Y-51590455D01*
X150757544Y-51590452D01*
X150642335Y-51504206D01*
X150642328Y-51504202D01*
X150507482Y-51453908D01*
X150507483Y-51453908D01*
X150447883Y-51447501D01*
X150447881Y-51447500D01*
X150447873Y-51447500D01*
X150447864Y-51447500D01*
X149152129Y-51447500D01*
X149152123Y-51447501D01*
X149092516Y-51453908D01*
X148957671Y-51504202D01*
X148957664Y-51504206D01*
X148842455Y-51590452D01*
X148842452Y-51590455D01*
X148756206Y-51705664D01*
X148756202Y-51705671D01*
X148706164Y-51839833D01*
X148664293Y-51895767D01*
X148598829Y-51920184D01*
X148589982Y-51920500D01*
X143510018Y-51920500D01*
X143442979Y-51900815D01*
X143397224Y-51848011D01*
X143393836Y-51839833D01*
X143343797Y-51705671D01*
X143343793Y-51705664D01*
X143257547Y-51590455D01*
X143257544Y-51590452D01*
X143142335Y-51504206D01*
X143142328Y-51504202D01*
X143007482Y-51453908D01*
X143007483Y-51453908D01*
X142947883Y-51447501D01*
X142947881Y-51447500D01*
X142947873Y-51447500D01*
X142947864Y-51447500D01*
X141652129Y-51447500D01*
X141652123Y-51447501D01*
X141592516Y-51453908D01*
X141457671Y-51504202D01*
X141457664Y-51504206D01*
X141342455Y-51590452D01*
X141342452Y-51590455D01*
X141256206Y-51705664D01*
X141256202Y-51705671D01*
X141206164Y-51839833D01*
X141205909Y-51840517D01*
X141199500Y-51900127D01*
X138200499Y-51900127D01*
X138194091Y-51840517D01*
X138183088Y-51811017D01*
X138143797Y-51705671D01*
X138143793Y-51705664D01*
X138057547Y-51590455D01*
X138057544Y-51590452D01*
X137942335Y-51504206D01*
X137942328Y-51504202D01*
X137807482Y-51453908D01*
X137807483Y-51453908D01*
X137747883Y-51447501D01*
X137747881Y-51447500D01*
X137747873Y-51447500D01*
X137747864Y-51447500D01*
X136452129Y-51447500D01*
X136452123Y-51447501D01*
X136392516Y-51453908D01*
X136257671Y-51504202D01*
X136257664Y-51504206D01*
X136142455Y-51590452D01*
X136142452Y-51590455D01*
X136056206Y-51705664D01*
X136056202Y-51705671D01*
X136006164Y-51839833D01*
X135964293Y-51895767D01*
X135898829Y-51920184D01*
X135889982Y-51920500D01*
X130810018Y-51920500D01*
X130742979Y-51900815D01*
X130697224Y-51848011D01*
X130693836Y-51839833D01*
X130643797Y-51705671D01*
X130643793Y-51705664D01*
X130557547Y-51590455D01*
X130557544Y-51590452D01*
X130442335Y-51504206D01*
X130442328Y-51504202D01*
X130307482Y-51453908D01*
X130307483Y-51453908D01*
X130247883Y-51447501D01*
X130247881Y-51447500D01*
X130247873Y-51447500D01*
X130247864Y-51447500D01*
X128952129Y-51447500D01*
X128952123Y-51447501D01*
X128892516Y-51453908D01*
X128757671Y-51504202D01*
X128757664Y-51504206D01*
X128642455Y-51590452D01*
X128642452Y-51590455D01*
X128556206Y-51705664D01*
X128556202Y-51705671D01*
X128506164Y-51839833D01*
X128505909Y-51840517D01*
X128499500Y-51900127D01*
X125500499Y-51900127D01*
X125494091Y-51840517D01*
X125483088Y-51811017D01*
X125443797Y-51705671D01*
X125443793Y-51705664D01*
X125357547Y-51590455D01*
X125357544Y-51590452D01*
X125242335Y-51504206D01*
X125242328Y-51504202D01*
X125107482Y-51453908D01*
X125107483Y-51453908D01*
X125047883Y-51447501D01*
X125047881Y-51447500D01*
X125047873Y-51447500D01*
X125047864Y-51447500D01*
X123752129Y-51447500D01*
X123752123Y-51447501D01*
X123692516Y-51453908D01*
X123557671Y-51504202D01*
X123557664Y-51504206D01*
X123442455Y-51590452D01*
X123442452Y-51590455D01*
X123356206Y-51705664D01*
X123356202Y-51705671D01*
X123306164Y-51839833D01*
X123305909Y-51840517D01*
X123299500Y-51900127D01*
X116332000Y-51900127D01*
X116332000Y-45549244D01*
X144279500Y-45549244D01*
X144279500Y-45890755D01*
X144317734Y-46230092D01*
X144317736Y-46230108D01*
X144393726Y-46563044D01*
X144393730Y-46563056D01*
X144506515Y-46885375D01*
X144506524Y-46885397D01*
X144654686Y-47193059D01*
X144654690Y-47193065D01*
X144836380Y-47482222D01*
X145049303Y-47749219D01*
X145290781Y-47990697D01*
X145557778Y-48203620D01*
X145846935Y-48385310D01*
X145846940Y-48385313D01*
X146154602Y-48533475D01*
X146154611Y-48533478D01*
X146154618Y-48533482D01*
X146154624Y-48533484D01*
X146476943Y-48646269D01*
X146476949Y-48646271D01*
X146476955Y-48646273D01*
X146809895Y-48722264D01*
X147149245Y-48760499D01*
X147149246Y-48760500D01*
X147149249Y-48760500D01*
X147437246Y-48760500D01*
X147437255Y-48760499D01*
X157650756Y-48760499D01*
X157650756Y-48760498D01*
X157990107Y-48722263D01*
X158323046Y-48646271D01*
X158645384Y-48533480D01*
X158953066Y-48385308D01*
X159242223Y-48203619D01*
X159509220Y-47990696D01*
X159750697Y-47749218D01*
X159963620Y-47482221D01*
X160145310Y-47193064D01*
X160288301Y-46896138D01*
X160293476Y-46885392D01*
X160293477Y-46885389D01*
X160293481Y-46885381D01*
X160406272Y-46563044D01*
X160482263Y-46230105D01*
X160520499Y-45890751D01*
X160520499Y-45549249D01*
X160482263Y-45209895D01*
X160406272Y-44876956D01*
X160406267Y-44876943D01*
X160372939Y-44781697D01*
X160293481Y-44554619D01*
X160293478Y-44554614D01*
X160293476Y-44554607D01*
X160145313Y-44246941D01*
X160145309Y-44246935D01*
X159963620Y-43957779D01*
X159750697Y-43690782D01*
X159509220Y-43449304D01*
X159509217Y-43449302D01*
X159441412Y-43395229D01*
X159242223Y-43236381D01*
X158953066Y-43054692D01*
X158953063Y-43054690D01*
X158877986Y-43018535D01*
X184672920Y-43018535D01*
X184672920Y-43181464D01*
X184704702Y-43341242D01*
X184704704Y-43341250D01*
X184767049Y-43491766D01*
X184767054Y-43491775D01*
X184857564Y-43627232D01*
X184857567Y-43627236D01*
X184972763Y-43742432D01*
X184972767Y-43742435D01*
X185108224Y-43832945D01*
X185108230Y-43832948D01*
X185108231Y-43832949D01*
X185258750Y-43895296D01*
X185418535Y-43927079D01*
X185418539Y-43927080D01*
X185418540Y-43927080D01*
X185581461Y-43927080D01*
X185581462Y-43927079D01*
X185741250Y-43895296D01*
X185891769Y-43832949D01*
X186027233Y-43742435D01*
X186142435Y-43627233D01*
X186232949Y-43491769D01*
X186295296Y-43341250D01*
X186327080Y-43181460D01*
X186327080Y-43018540D01*
X186295296Y-42858750D01*
X186232949Y-42708231D01*
X186232948Y-42708230D01*
X186232945Y-42708224D01*
X186142435Y-42572767D01*
X186142432Y-42572763D01*
X186027236Y-42457567D01*
X186027232Y-42457564D01*
X185891775Y-42367054D01*
X185891766Y-42367049D01*
X185741250Y-42304704D01*
X185741242Y-42304702D01*
X185581464Y-42272920D01*
X185581460Y-42272920D01*
X185418540Y-42272920D01*
X185418535Y-42272920D01*
X185258757Y-42304702D01*
X185258749Y-42304704D01*
X185108233Y-42367049D01*
X185108224Y-42367054D01*
X184972767Y-42457564D01*
X184972763Y-42457567D01*
X184857567Y-42572763D01*
X184857564Y-42572767D01*
X184767054Y-42708224D01*
X184767049Y-42708233D01*
X184704704Y-42858749D01*
X184704702Y-42858757D01*
X184672920Y-43018535D01*
X158877986Y-43018535D01*
X158645387Y-42906521D01*
X158323057Y-42793732D01*
X158323045Y-42793728D01*
X158066098Y-42735081D01*
X157990107Y-42717737D01*
X157990103Y-42717736D01*
X157990094Y-42717735D01*
X157650757Y-42679501D01*
X157650753Y-42679501D01*
X157480002Y-42679501D01*
X157414110Y-42679501D01*
X157414109Y-42679501D01*
X147371363Y-42679501D01*
X147371360Y-42679500D01*
X147320000Y-42679500D01*
X147149249Y-42679500D01*
X147149244Y-42679500D01*
X146809907Y-42717734D01*
X146809891Y-42717736D01*
X146476955Y-42793726D01*
X146476943Y-42793730D01*
X146154624Y-42906515D01*
X146154602Y-42906524D01*
X145846940Y-43054686D01*
X145557779Y-43236379D01*
X145290781Y-43449302D01*
X145049302Y-43690781D01*
X144836379Y-43957779D01*
X144654686Y-44246940D01*
X144506524Y-44554602D01*
X144506515Y-44554624D01*
X144393730Y-44876943D01*
X144393726Y-44876955D01*
X144317736Y-45209891D01*
X144317734Y-45209907D01*
X144279500Y-45549244D01*
X116332000Y-45549244D01*
X116332000Y-43018535D01*
X119672920Y-43018535D01*
X119672920Y-43181464D01*
X119704702Y-43341242D01*
X119704704Y-43341250D01*
X119767049Y-43491766D01*
X119767054Y-43491775D01*
X119857564Y-43627232D01*
X119857567Y-43627236D01*
X119972763Y-43742432D01*
X119972767Y-43742435D01*
X120108224Y-43832945D01*
X120108230Y-43832948D01*
X120108231Y-43832949D01*
X120258750Y-43895296D01*
X120418535Y-43927079D01*
X120418539Y-43927080D01*
X120418540Y-43927080D01*
X120581461Y-43927080D01*
X120581462Y-43927079D01*
X120741250Y-43895296D01*
X120891769Y-43832949D01*
X121027233Y-43742435D01*
X121142435Y-43627233D01*
X121232949Y-43491769D01*
X121295296Y-43341250D01*
X121327080Y-43181460D01*
X121327080Y-43018540D01*
X121295296Y-42858750D01*
X121232949Y-42708231D01*
X121232948Y-42708230D01*
X121232945Y-42708224D01*
X121142435Y-42572767D01*
X121142432Y-42572763D01*
X121027236Y-42457567D01*
X121027232Y-42457564D01*
X120891775Y-42367054D01*
X120891766Y-42367049D01*
X120741250Y-42304704D01*
X120741242Y-42304702D01*
X120581464Y-42272920D01*
X120581460Y-42272920D01*
X120418540Y-42272920D01*
X120418535Y-42272920D01*
X120258757Y-42304702D01*
X120258749Y-42304704D01*
X120108233Y-42367049D01*
X120108224Y-42367054D01*
X119972767Y-42457564D01*
X119972763Y-42457567D01*
X119857567Y-42572763D01*
X119857564Y-42572767D01*
X119767054Y-42708224D01*
X119767049Y-42708233D01*
X119704704Y-42858749D01*
X119704702Y-42858757D01*
X119672920Y-43018535D01*
X116332000Y-43018535D01*
X116332000Y-40256000D01*
X116351685Y-40188961D01*
X116404489Y-40143206D01*
X116456000Y-40132000D01*
X188344000Y-40132000D01*
X188411039Y-40151685D01*
G37*
%TD.AperFunction*%
%TD*%
M02*
